<svg width="1440" height="165" viewBox="0 0 1440 165" fill="none" xmlns="http://www.w3.org/2000/svg">
<rect width="1440" height="165" fill="#3E96F4"/>
<path d="M346.27 67.707H352.574V76.3086C351.543 76.6445 350.551 76.8828 349.598 77.0234C348.652 77.1641 347.629 77.2344 346.527 77.2344C343.934 77.2344 341.934 76.4688 340.527 74.9375C339.121 73.3984 338.418 71.2305 338.418 68.4336C338.418 65.6758 339.211 63.5195 340.797 61.9648C342.383 60.4023 344.566 59.6211 347.348 59.6211C349.137 59.6211 350.832 59.9648 352.434 60.6523L351.449 62.9844C350.059 62.3438 348.668 62.0234 347.277 62.0234C345.449 62.0234 344.004 62.5977 342.941 63.7461C341.879 64.8945 341.348 66.4648 341.348 68.457C341.348 70.5508 341.824 72.1445 342.777 73.2383C343.738 74.3242 345.117 74.8672 346.914 74.8672C347.82 74.8672 348.789 74.7539 349.82 74.5273V70.1094H346.27V67.707ZM364.036 77L363.485 75.1953H363.391C362.766 75.9844 362.137 76.5234 361.504 76.8125C360.872 77.0938 360.059 77.2344 359.067 77.2344C357.793 77.2344 356.797 76.8906 356.079 76.2031C355.368 75.5156 355.012 74.543 355.012 73.2852C355.012 71.9492 355.508 70.9414 356.5 70.2617C357.493 69.582 359.004 69.2109 361.036 69.1484L363.274 69.0781V68.3867C363.274 67.5586 363.079 66.9414 362.688 66.5352C362.305 66.1211 361.708 65.9141 360.895 65.9141C360.231 65.9141 359.594 66.0117 358.985 66.207C358.375 66.4023 357.79 66.6328 357.227 66.8984L356.336 64.9297C357.04 64.5625 357.809 64.2852 358.645 64.0977C359.481 63.9023 360.27 63.8047 361.012 63.8047C362.661 63.8047 363.903 64.1641 364.739 64.8828C365.583 65.6016 366.004 66.7305 366.004 68.2695V77H364.036ZM359.934 75.125C360.934 75.125 361.735 74.8477 362.336 74.293C362.946 73.7305 363.25 72.9453 363.25 71.9375V70.8125L361.586 70.8828C360.29 70.9297 359.344 71.1484 358.75 71.5391C358.165 71.9219 357.872 72.5117 357.872 73.3086C357.872 73.8867 358.043 74.3359 358.387 74.6562C358.731 74.9688 359.247 75.125 359.934 75.125ZM375.942 63.8047C376.497 63.8047 376.954 63.8438 377.313 63.9219L377.044 66.4883C376.653 66.3945 376.247 66.3477 375.825 66.3477C374.724 66.3477 373.829 66.707 373.142 67.4258C372.462 68.1445 372.122 69.0781 372.122 70.2266V77H369.368V64.0391H371.524L371.888 66.3242H372.028C372.458 65.5508 373.017 64.9375 373.704 64.4844C374.399 64.0312 375.145 63.8047 375.942 63.8047ZM384.076 75.0078C384.748 75.0078 385.419 74.9023 386.091 74.6914V76.7656C385.787 76.8984 385.392 77.0078 384.908 77.0938C384.431 77.1875 383.935 77.2344 383.419 77.2344C380.81 77.2344 379.505 75.8594 379.505 73.1094V66.125H377.736V64.9062L379.634 63.8984L380.572 61.1562H382.271V64.0391H385.962V66.125H382.271V73.0625C382.271 73.7266 382.435 74.2188 382.763 74.5391C383.099 74.8516 383.537 75.0078 384.076 75.0078ZM399.615 77H396.85V69.0312C396.85 68.0312 396.646 67.2852 396.24 66.793C395.842 66.3008 395.205 66.0547 394.33 66.0547C393.166 66.0547 392.314 66.3984 391.775 67.0859C391.236 67.7734 390.967 68.9258 390.967 70.543V77H388.213V64.0391H390.369L390.756 65.7383H390.896C391.287 65.1211 391.842 64.6445 392.56 64.3086C393.279 63.9727 394.076 63.8047 394.951 63.8047C398.06 63.8047 399.615 65.3867 399.615 68.5508V77ZM408.627 77.2344C406.612 77.2344 405.034 76.6484 403.893 75.4766C402.76 74.2969 402.194 72.6758 402.194 70.6133C402.194 68.4961 402.721 66.832 403.776 65.6211C404.83 64.4102 406.28 63.8047 408.123 63.8047C409.834 63.8047 411.186 64.3242 412.178 65.3633C413.17 66.4023 413.666 67.832 413.666 69.6523V71.1406H405.03C405.069 72.3984 405.409 73.3672 406.049 74.0469C406.69 74.7188 407.592 75.0547 408.756 75.0547C409.522 75.0547 410.233 74.9844 410.889 74.8438C411.553 74.6953 412.264 74.4531 413.022 74.1172V76.3555C412.35 76.6758 411.67 76.9023 410.983 77.0352C410.295 77.168 409.51 77.2344 408.627 77.2344ZM408.123 65.8906C407.248 65.8906 406.545 66.168 406.014 66.7227C405.491 67.2773 405.178 68.0859 405.077 69.1484H410.959C410.944 68.0781 410.686 67.2695 410.186 66.7227C409.686 66.168 408.998 65.8906 408.123 65.8906ZM422.89 63.8047C423.444 63.8047 423.901 63.8438 424.261 63.9219L423.991 66.4883C423.6 66.3945 423.194 66.3477 422.772 66.3477C421.671 66.3477 420.776 66.707 420.089 67.4258C419.409 68.1445 419.069 69.0781 419.069 70.2266V77H416.315V64.0391H418.472L418.835 66.3242H418.975C419.405 65.5508 419.964 64.9375 420.651 64.4844C421.347 64.0312 422.093 63.8047 422.89 63.8047ZM438.523 63.8047C439.078 63.8047 439.535 63.8438 439.894 63.9219L439.625 66.4883C439.234 66.3945 438.828 66.3477 438.406 66.3477C437.305 66.3477 436.41 66.707 435.723 67.4258C435.043 68.1445 434.703 69.0781 434.703 70.2266V77H431.949V64.0391H434.105L434.469 66.3242H434.609C435.039 65.5508 435.598 64.9375 436.285 64.4844C436.98 64.0312 437.726 63.8047 438.523 63.8047ZM449.938 77L449.387 75.1953H449.293C448.668 75.9844 448.039 76.5234 447.407 76.8125C446.774 77.0938 445.961 77.2344 444.969 77.2344C443.696 77.2344 442.7 76.8906 441.981 76.2031C441.27 75.5156 440.914 74.543 440.914 73.2852C440.914 71.9492 441.41 70.9414 442.403 70.2617C443.395 69.582 444.907 69.2109 446.938 69.1484L449.176 69.0781V68.3867C449.176 67.5586 448.981 66.9414 448.59 66.5352C448.207 66.1211 447.61 65.9141 446.797 65.9141C446.133 65.9141 445.496 66.0117 444.887 66.207C444.278 66.4023 443.692 66.6328 443.129 66.8984L442.239 64.9297C442.942 64.5625 443.711 64.2852 444.547 64.0977C445.383 63.9023 446.172 63.8047 446.914 63.8047C448.563 63.8047 449.805 64.1641 450.641 64.8828C451.485 65.6016 451.907 66.7305 451.907 68.2695V77H449.938ZM445.836 75.125C446.836 75.125 447.637 74.8477 448.239 74.293C448.848 73.7305 449.153 72.9453 449.153 71.9375V70.8125L447.489 70.8828C446.192 70.9297 445.246 71.1484 444.653 71.5391C444.067 71.9219 443.774 72.5117 443.774 73.3086C443.774 73.8867 443.946 74.3359 444.289 74.6562C444.633 74.9688 445.149 75.125 445.836 75.125ZM460.098 75.0078C460.77 75.0078 461.442 74.9023 462.114 74.6914V76.7656C461.809 76.8984 461.415 77.0078 460.93 77.0938C460.454 77.1875 459.958 77.2344 459.442 77.2344C456.833 77.2344 455.528 75.8594 455.528 73.1094V66.125H453.759V64.9062L455.657 63.8984L456.595 61.1562H458.294V64.0391H461.985V66.125H458.294V73.0625C458.294 73.7266 458.458 74.2188 458.786 74.5391C459.122 74.8516 459.559 75.0078 460.098 75.0078ZM469.896 77.2344C467.88 77.2344 466.302 76.6484 465.161 75.4766C464.029 74.2969 463.462 72.6758 463.462 70.6133C463.462 68.4961 463.99 66.832 465.044 65.6211C466.099 64.4102 467.548 63.8047 469.392 63.8047C471.103 63.8047 472.454 64.3242 473.447 65.3633C474.439 66.4023 474.935 67.832 474.935 69.6523V71.1406H466.298C466.337 72.3984 466.677 73.3672 467.318 74.0469C467.958 74.7188 468.861 75.0547 470.025 75.0547C470.79 75.0547 471.501 74.9844 472.158 74.8438C472.822 74.6953 473.533 74.4531 474.29 74.1172V76.3555C473.618 76.6758 472.939 76.9023 472.251 77.0352C471.564 77.168 470.779 77.2344 469.896 77.2344ZM469.392 65.8906C468.517 65.8906 467.814 66.168 467.283 66.7227C466.759 67.2773 466.447 68.0859 466.345 69.1484H472.228C472.212 68.0781 471.954 67.2695 471.454 66.7227C470.954 66.168 470.267 65.8906 469.392 65.8906ZM486.291 73.3086C486.291 74.5742 485.83 75.5469 484.908 76.2266C483.986 76.8984 482.666 77.2344 480.947 77.2344C479.22 77.2344 477.834 76.9727 476.787 76.4492V74.0703C478.31 74.7734 479.728 75.125 481.041 75.125C482.736 75.125 483.584 74.6133 483.584 73.5898C483.584 73.2617 483.49 72.9883 483.303 72.7695C483.115 72.5508 482.806 72.3242 482.377 72.0898C481.947 71.8555 481.349 71.5898 480.584 71.293C479.092 70.7148 478.08 70.1367 477.549 69.5586C477.025 68.9805 476.763 68.2305 476.763 67.3086C476.763 66.1992 477.209 65.3398 478.099 64.7305C478.998 64.1133 480.217 63.8047 481.756 63.8047C483.279 63.8047 484.72 64.1133 486.08 64.7305L485.189 66.8047C483.791 66.2266 482.615 65.9375 481.662 65.9375C480.209 65.9375 479.482 66.3516 479.482 67.1797C479.482 67.5859 479.67 67.9297 480.045 68.2109C480.428 68.4922 481.256 68.8789 482.529 69.3711C483.599 69.7852 484.377 70.1641 484.861 70.5078C485.345 70.8516 485.705 71.25 485.939 71.7031C486.174 72.1484 486.291 72.6836 486.291 73.3086ZM504.538 77H494.846V59.8672H504.538V62.2344H497.647V66.8984H504.104V69.2422H497.647V74.6211H504.538V77ZM510.573 67.8359H512.519C513.823 67.8359 514.769 67.5938 515.355 67.1094C515.941 66.625 516.234 65.9062 516.234 64.9531C516.234 63.9844 515.917 63.2891 515.284 62.8672C514.652 62.4453 513.698 62.2344 512.425 62.2344H510.573V67.8359ZM510.573 70.1562V77H507.773V59.8672H512.613C514.823 59.8672 516.46 60.2812 517.523 61.1094C518.585 61.9375 519.116 63.1875 519.116 64.8594C519.116 66.9922 518.007 68.5117 515.788 69.418L520.628 77H517.441L513.339 70.1562H510.573ZM533.988 65.0469C533.988 66.8359 533.402 68.207 532.23 69.1602C531.058 70.1133 529.39 70.5898 527.226 70.5898H525.445V77H522.644V59.8672H527.578C529.718 59.8672 531.32 60.3047 532.383 61.1797C533.453 62.0547 533.988 63.3438 533.988 65.0469ZM525.445 68.2344H526.933C528.371 68.2344 529.425 67.9844 530.097 67.4844C530.769 66.9844 531.105 66.2031 531.105 65.1406C531.105 64.1562 530.804 63.4219 530.203 62.9375C529.601 62.4531 528.664 62.2109 527.39 62.2109H525.445V68.2344ZM551.203 77H547.77L539.344 63.3477H539.25L539.309 64.1094C539.418 65.5625 539.473 66.8906 539.473 68.0938V77H536.93V59.8672H540.328L548.731 73.4492H548.801C548.785 73.2695 548.754 72.6172 548.707 71.4922C548.66 70.3594 548.637 69.4766 548.637 68.8438V59.8672H551.203V77ZM560.614 77.2344C558.598 77.2344 557.02 76.6484 555.88 75.4766C554.747 74.2969 554.18 72.6758 554.18 70.6133C554.18 68.4961 554.708 66.832 555.762 65.6211C556.817 64.4102 558.266 63.8047 560.11 63.8047C561.821 63.8047 563.173 64.3242 564.165 65.3633C565.157 66.4023 565.653 67.832 565.653 69.6523V71.1406H557.016C557.055 72.3984 557.395 73.3672 558.036 74.0469C558.676 74.7188 559.579 75.0547 560.743 75.0547C561.508 75.0547 562.219 74.9844 562.876 74.8438C563.54 74.6953 564.251 74.4531 565.008 74.1172V76.3555C564.337 76.6758 563.657 76.9023 562.969 77.0352C562.282 77.168 561.497 77.2344 560.614 77.2344ZM560.11 65.8906C559.235 65.8906 558.532 66.168 558.001 66.7227C557.477 67.2773 557.165 68.0859 557.063 69.1484H562.946C562.93 68.0781 562.673 67.2695 562.173 66.7227C561.673 66.168 560.985 65.8906 560.11 65.8906ZM571.185 70.3789L566.837 64.0391H569.978L572.931 68.5742L575.907 64.0391H579.025L574.665 70.3789L579.247 77H576.13L572.931 72.1484L569.743 77H566.626L571.185 70.3789ZM585.869 75.0078C586.541 75.0078 587.212 74.9023 587.884 74.6914V76.7656C587.58 76.8984 587.185 77.0078 586.701 77.0938C586.224 77.1875 585.728 77.2344 585.212 77.2344C582.603 77.2344 581.298 75.8594 581.298 73.1094V66.125H579.529V64.9062L581.427 63.8984L582.365 61.1562H584.064V64.0391H587.755V66.125H584.064V73.0625C584.064 73.7266 584.228 74.2188 584.556 74.5391C584.892 74.8516 585.33 75.0078 585.869 75.0078ZM603.87 77L603.319 75.1953H603.225C602.6 75.9844 601.971 76.5234 601.338 76.8125C600.706 77.0938 599.893 77.2344 598.901 77.2344C597.628 77.2344 596.631 76.8906 595.913 76.2031C595.202 75.5156 594.846 74.543 594.846 73.2852C594.846 71.9492 595.342 70.9414 596.335 70.2617C597.327 69.582 598.838 69.2109 600.87 69.1484L603.108 69.0781V68.3867C603.108 67.5586 602.913 66.9414 602.522 66.5352C602.139 66.1211 601.542 65.9141 600.729 65.9141C600.065 65.9141 599.428 66.0117 598.819 66.207C598.21 66.4023 597.624 66.6328 597.061 66.8984L596.17 64.9297C596.874 64.5625 597.643 64.2852 598.479 64.0977C599.315 63.9023 600.104 63.8047 600.846 63.8047C602.495 63.8047 603.737 64.1641 604.573 64.8828C605.417 65.6016 605.838 66.7305 605.838 68.2695V77H603.87ZM599.768 75.125C600.768 75.125 601.569 74.8477 602.17 74.293C602.78 73.7305 603.085 72.9453 603.085 71.9375V70.8125L601.42 70.8828C600.124 70.9297 599.178 71.1484 598.585 71.5391C597.999 71.9219 597.706 72.5117 597.706 73.3086C597.706 73.8867 597.878 74.3359 598.221 74.6562C598.565 74.9688 599.081 75.125 599.768 75.125ZM617.909 73.3086C617.909 74.5742 617.448 75.5469 616.526 76.2266C615.605 76.8984 614.284 77.2344 612.565 77.2344C610.839 77.2344 609.452 76.9727 608.405 76.4492V74.0703C609.929 74.7734 611.347 75.125 612.659 75.125C614.355 75.125 615.202 74.6133 615.202 73.5898C615.202 73.2617 615.108 72.9883 614.921 72.7695C614.733 72.5508 614.425 72.3242 613.995 72.0898C613.565 71.8555 612.968 71.5898 612.202 71.293C610.71 70.7148 609.698 70.1367 609.167 69.5586C608.644 68.9805 608.382 68.2305 608.382 67.3086C608.382 66.1992 608.827 65.3398 609.718 64.7305C610.616 64.1133 611.835 63.8047 613.374 63.8047C614.897 63.8047 616.339 64.1133 617.698 64.7305L616.808 66.8047C615.409 66.2266 614.233 65.9375 613.28 65.9375C611.827 65.9375 611.101 66.3516 611.101 67.1797C611.101 67.5859 611.288 67.9297 611.663 68.2109C612.046 68.4922 612.874 68.8789 614.147 69.3711C615.218 69.7852 615.995 70.1641 616.48 70.5078C616.964 70.8516 617.323 71.25 617.558 71.7031C617.792 72.1484 617.909 72.6836 617.909 73.3086ZM347.078 107L346.527 105.195H346.434C345.809 105.984 345.18 106.523 344.547 106.812C343.914 107.094 343.102 107.234 342.109 107.234C340.836 107.234 339.84 106.891 339.121 106.203C338.41 105.516 338.055 104.543 338.055 103.285C338.055 101.949 338.551 100.941 339.543 100.262C340.535 99.582 342.047 99.2109 344.078 99.1484L346.316 99.0781V98.3867C346.316 97.5586 346.121 96.9414 345.73 96.5352C345.348 96.1211 344.75 95.9141 343.938 95.9141C343.273 95.9141 342.637 96.0117 342.027 96.207C341.418 96.4023 340.832 96.6328 340.27 96.8984L339.379 94.9297C340.082 94.5625 340.852 94.2852 341.688 94.0977C342.523 93.9023 343.312 93.8047 344.055 93.8047C345.703 93.8047 346.945 94.1641 347.781 94.8828C348.625 95.6016 349.047 96.7305 349.047 98.2695V107H347.078ZM342.977 105.125C343.977 105.125 344.777 104.848 345.379 104.293C345.988 103.73 346.293 102.945 346.293 101.938V100.812L344.629 100.883C343.332 100.93 342.387 101.148 341.793 101.539C341.207 101.922 340.914 102.512 340.914 103.309C340.914 103.887 341.086 104.336 341.43 104.656C341.773 104.969 342.289 105.125 342.977 105.125ZM363.333 107H360.567V99.0078C360.567 98.0156 360.379 97.2773 360.004 96.793C359.629 96.3008 359.043 96.0547 358.247 96.0547C357.184 96.0547 356.403 96.4023 355.903 97.0977C355.411 97.7852 355.165 98.9336 355.165 100.543V107H352.411V94.0391H354.567L354.954 95.7383H355.094C355.454 95.1211 355.973 94.6445 356.653 94.3086C357.34 93.9727 358.094 93.8047 358.915 93.8047C360.907 93.8047 362.227 94.4844 362.875 95.8438H363.063C363.446 95.2031 363.985 94.7031 364.68 94.3438C365.375 93.9844 366.172 93.8047 367.071 93.8047C368.618 93.8047 369.743 94.1953 370.446 94.9766C371.157 95.7578 371.512 96.9492 371.512 98.5508V107H368.758V99.0078C368.758 98.0156 368.567 97.2773 368.184 96.793C367.809 96.3008 367.223 96.0547 366.426 96.0547C365.356 96.0547 364.571 96.3906 364.071 97.0625C363.579 97.7266 363.333 98.75 363.333 100.133V107ZM386.372 100.496C386.372 102.613 385.829 104.266 384.743 105.453C383.657 106.641 382.145 107.234 380.208 107.234C378.997 107.234 377.927 106.961 376.997 106.414C376.067 105.867 375.353 105.082 374.853 104.059C374.353 103.035 374.103 101.848 374.103 100.496C374.103 98.3945 374.642 96.7539 375.72 95.5742C376.798 94.3945 378.317 93.8047 380.278 93.8047C382.153 93.8047 383.638 94.4102 384.731 95.6211C385.825 96.8242 386.372 98.4492 386.372 100.496ZM376.938 100.496C376.938 103.488 378.044 104.984 380.255 104.984C382.442 104.984 383.536 103.488 383.536 100.496C383.536 97.5352 382.435 96.0547 380.231 96.0547C379.075 96.0547 378.235 96.4375 377.712 97.2031C377.196 97.9688 376.938 99.0664 376.938 100.496ZM400.47 107H397.705V99.0312C397.705 98.0312 397.501 97.2852 397.095 96.793C396.697 96.3008 396.06 96.0547 395.185 96.0547C394.021 96.0547 393.169 96.3984 392.63 97.0859C392.091 97.7734 391.822 98.9258 391.822 100.543V107H389.068V94.0391H391.224L391.611 95.7383H391.751C392.142 95.1211 392.697 94.6445 393.415 94.3086C394.134 93.9727 394.931 93.8047 395.806 93.8047C398.915 93.8047 400.47 95.3867 400.47 98.5508V107ZM414.768 94.0391V95.5508L412.553 95.9609C412.756 96.2344 412.924 96.5703 413.057 96.9688C413.189 97.3672 413.256 97.7891 413.256 98.2344C413.256 99.5703 412.795 100.621 411.873 101.387C410.951 102.152 409.682 102.535 408.064 102.535C407.65 102.535 407.275 102.504 406.939 102.441C406.346 102.809 406.049 103.238 406.049 103.73C406.049 104.027 406.185 104.25 406.459 104.398C406.74 104.547 407.252 104.621 407.994 104.621H410.256C411.685 104.621 412.771 104.926 413.514 105.535C414.256 106.145 414.627 107.023 414.627 108.172C414.627 109.641 414.021 110.773 412.81 111.57C411.6 112.367 409.85 112.766 407.56 112.766C405.795 112.766 404.447 112.453 403.518 111.828C402.588 111.203 402.123 110.312 402.123 109.156C402.123 108.359 402.373 107.688 402.873 107.141C403.381 106.602 404.088 106.227 404.994 106.016C404.627 105.859 404.322 105.609 404.08 105.266C403.846 104.914 403.728 104.547 403.728 104.164C403.728 103.68 403.865 103.27 404.139 102.934C404.412 102.598 404.818 102.266 405.357 101.938C404.685 101.648 404.139 101.18 403.717 100.531C403.303 99.875 403.096 99.1094 403.096 98.2344C403.096 96.8281 403.537 95.7383 404.42 94.9648C405.31 94.1914 406.576 93.8047 408.217 93.8047C408.584 93.8047 408.967 93.832 409.365 93.8867C409.771 93.9336 410.076 93.9844 410.279 94.0391H414.768ZM404.584 109.016C404.584 109.609 404.85 110.066 405.381 110.387C405.92 110.707 406.674 110.867 407.643 110.867C409.143 110.867 410.26 110.652 410.994 110.223C411.728 109.793 412.096 109.223 412.096 108.512C412.096 107.949 411.893 107.547 411.486 107.305C411.088 107.07 410.342 106.953 409.248 106.953H407.162C406.373 106.953 405.744 107.137 405.275 107.504C404.814 107.879 404.584 108.383 404.584 109.016ZM405.768 98.2344C405.768 99.0469 405.975 99.6719 406.389 100.109C406.81 100.547 407.412 100.766 408.193 100.766C409.787 100.766 410.584 99.9141 410.584 98.2109C410.584 97.3672 410.385 96.7188 409.986 96.2656C409.596 95.8047 408.998 95.5742 408.193 95.5742C407.396 95.5742 406.791 95.8008 406.377 96.2539C405.971 96.707 405.768 97.3672 405.768 98.2344ZM427.284 105.008C427.956 105.008 428.628 104.902 429.3 104.691V106.766C428.995 106.898 428.6 107.008 428.116 107.094C427.64 107.188 427.143 107.234 426.628 107.234C424.018 107.234 422.714 105.859 422.714 103.109V96.125H420.944V94.9062L422.843 93.8984L423.78 91.1562H425.479V94.0391H429.171V96.125H425.479V103.062C425.479 103.727 425.643 104.219 425.972 104.539C426.308 104.852 426.745 105.008 427.284 105.008ZM442.824 107H440.058V99.0312C440.058 98.0312 439.855 97.2852 439.449 96.793C439.05 96.3008 438.413 96.0547 437.538 96.0547C436.382 96.0547 435.531 96.4023 434.984 97.0977C434.445 97.7852 434.175 98.9414 434.175 100.566V107H431.421V88.7656H434.175V93.3945C434.175 94.1367 434.128 94.9297 434.035 95.7734H434.21C434.585 95.1484 435.105 94.6641 435.769 94.3203C436.441 93.9766 437.222 93.8047 438.113 93.8047C441.253 93.8047 442.824 95.3867 442.824 98.5508V107ZM451.836 107.234C449.82 107.234 448.242 106.648 447.101 105.477C445.969 104.297 445.402 102.676 445.402 100.613C445.402 98.4961 445.93 96.832 446.984 95.6211C448.039 94.4102 449.488 93.8047 451.332 93.8047C453.043 93.8047 454.394 94.3242 455.387 95.3633C456.379 96.4023 456.875 97.832 456.875 99.6523V101.141H448.238C448.277 102.398 448.617 103.367 449.258 104.047C449.898 104.719 450.801 105.055 451.965 105.055C452.73 105.055 453.441 104.984 454.098 104.844C454.762 104.695 455.473 104.453 456.23 104.117V106.355C455.558 106.676 454.879 106.902 454.191 107.035C453.504 107.168 452.719 107.234 451.836 107.234ZM451.332 95.8906C450.457 95.8906 449.754 96.168 449.223 96.7227C448.699 97.2773 448.387 98.0859 448.285 99.1484H454.168C454.152 98.0781 453.894 97.2695 453.394 96.7227C452.894 96.168 452.207 95.8906 451.332 95.8906ZM470.106 105.008C470.778 105.008 471.45 104.902 472.122 104.691V106.766C471.817 106.898 471.423 107.008 470.938 107.094C470.462 107.188 469.966 107.234 469.45 107.234C466.841 107.234 465.536 105.859 465.536 103.109V96.125H463.766V94.9062L465.665 93.8984L466.602 91.1562H468.302V94.0391H471.993V96.125H468.302V103.062C468.302 103.727 468.466 104.219 468.794 104.539C469.13 104.852 469.567 105.008 470.106 105.008ZM485.74 100.496C485.74 102.613 485.197 104.266 484.111 105.453C483.025 106.641 481.513 107.234 479.575 107.234C478.365 107.234 477.294 106.961 476.365 106.414C475.435 105.867 474.72 105.082 474.22 104.059C473.72 103.035 473.47 101.848 473.47 100.496C473.47 98.3945 474.009 96.7539 475.087 95.5742C476.165 94.3945 477.685 93.8047 479.646 93.8047C481.521 93.8047 483.005 94.4102 484.099 95.6211C485.193 96.8242 485.74 98.4492 485.74 100.496ZM476.306 100.496C476.306 103.488 477.411 104.984 479.622 104.984C481.81 104.984 482.904 103.488 482.904 100.496C482.904 97.5352 481.802 96.0547 479.599 96.0547C478.443 96.0547 477.603 96.4375 477.079 97.2031C476.564 97.9688 476.306 99.0664 476.306 100.496ZM495.01 107.234C493.369 107.234 492.095 106.645 491.189 105.465H491.025C491.135 106.559 491.189 107.223 491.189 107.457V112.766H488.435V94.0391H490.662C490.724 94.2812 490.853 94.8594 491.049 95.7734H491.189C492.049 94.4609 493.338 93.8047 495.056 93.8047C496.674 93.8047 497.931 94.3906 498.83 95.5625C499.736 96.7344 500.189 98.3789 500.189 100.496C500.189 102.613 499.728 104.266 498.806 105.453C497.892 106.641 496.627 107.234 495.01 107.234ZM494.342 96.0547C493.248 96.0547 492.447 96.375 491.939 97.0156C491.439 97.6562 491.189 98.6797 491.189 100.086V100.496C491.189 102.074 491.439 103.219 491.939 103.93C492.439 104.633 493.256 104.984 494.388 104.984C495.342 104.984 496.076 104.594 496.592 103.812C497.107 103.031 497.365 101.918 497.365 100.473C497.365 99.0195 497.107 97.9219 496.592 97.1797C496.084 96.4297 495.334 96.0547 494.342 96.0547ZM513.561 96.3008C515.288 96.3008 516.655 96.7578 517.663 97.6719C518.671 98.5859 519.175 99.832 519.175 101.41C519.175 103.238 518.6 104.668 517.452 105.699C516.311 106.723 514.686 107.234 512.577 107.234C510.663 107.234 509.159 106.926 508.065 106.309V103.812C508.698 104.172 509.425 104.449 510.245 104.645C511.065 104.84 511.827 104.938 512.53 104.938C513.772 104.938 514.717 104.66 515.366 104.105C516.014 103.551 516.339 102.738 516.339 101.668C516.339 99.6211 515.034 98.5977 512.425 98.5977C512.057 98.5977 511.604 98.6367 511.065 98.7148C510.526 98.7852 510.053 98.8672 509.647 98.9609L508.417 98.2344L509.073 89.8672H517.979V92.3164H511.499L511.112 96.5586C511.385 96.5117 511.717 96.457 512.108 96.3945C512.507 96.332 512.991 96.3008 513.561 96.3008ZM537.633 107H527.941V89.8672H537.633V92.2344H530.742V96.8984H537.199V99.2422H530.742V104.621H537.633V107ZM543.668 97.8359H545.613C546.918 97.8359 547.863 97.5938 548.449 97.1094C549.035 96.625 549.328 95.9062 549.328 94.9531C549.328 93.9844 549.012 93.2891 548.379 92.8672C547.746 92.4453 546.793 92.2344 545.52 92.2344H543.668V97.8359ZM543.668 100.156V107H540.867V89.8672H545.707C547.918 89.8672 549.555 90.2812 550.617 91.1094C551.68 91.9375 552.211 93.1875 552.211 94.8594C552.211 96.9922 551.102 98.5117 548.883 99.418L553.723 107H550.535L546.434 100.156H543.668ZM567.083 95.0469C567.083 96.8359 566.497 98.207 565.325 99.1602C564.153 100.113 562.485 100.59 560.321 100.59H558.54V107H555.739V89.8672H560.673C562.813 89.8672 564.415 90.3047 565.477 91.1797C566.548 92.0547 567.083 93.3438 567.083 95.0469ZM558.54 98.2344H560.028C561.465 98.2344 562.52 97.9844 563.192 97.4844C563.864 96.9844 564.2 96.2031 564.2 95.1406C564.2 94.1562 563.899 93.4219 563.298 92.9375C562.696 92.4531 561.758 92.2109 560.485 92.2109H558.54V98.2344ZM584.193 103.309C584.193 104.574 583.732 105.547 582.81 106.227C581.888 106.898 580.568 107.234 578.849 107.234C577.123 107.234 575.736 106.973 574.689 106.449V104.07C576.212 104.773 577.63 105.125 578.943 105.125C580.638 105.125 581.486 104.613 581.486 103.59C581.486 103.262 581.392 102.988 581.205 102.77C581.017 102.551 580.709 102.324 580.279 102.09C579.849 101.855 579.252 101.59 578.486 101.293C576.994 100.715 575.982 100.137 575.451 99.5586C574.927 98.9805 574.666 98.2305 574.666 97.3086C574.666 96.1992 575.111 95.3398 576.002 94.7305C576.9 94.1133 578.119 93.8047 579.658 93.8047C581.181 93.8047 582.623 94.1133 583.982 94.7305L583.091 96.8047C581.693 96.2266 580.517 95.9375 579.564 95.9375C578.111 95.9375 577.384 96.3516 577.384 97.1797C577.384 97.5859 577.572 97.9297 577.947 98.2109C578.33 98.4922 579.158 98.8789 580.431 99.3711C581.502 99.7852 582.279 100.164 582.763 100.508C583.248 100.852 583.607 101.25 583.841 101.703C584.076 102.148 584.193 102.684 584.193 103.309ZM584.732 94.0391H587.732L590.369 101.387C590.768 102.434 591.033 103.418 591.166 104.34H591.26C591.33 103.91 591.459 103.391 591.647 102.781C591.834 102.164 592.826 99.25 594.623 94.0391H597.6L592.057 108.723C591.049 111.418 589.369 112.766 587.018 112.766C586.408 112.766 585.815 112.699 585.236 112.566V110.387C585.65 110.48 586.123 110.527 586.654 110.527C587.982 110.527 588.916 109.758 589.455 108.219L589.936 107L584.732 94.0391ZM607.795 103.309C607.795 104.574 607.335 105.547 606.413 106.227C605.491 106.898 604.17 107.234 602.452 107.234C600.725 107.234 599.338 106.973 598.292 106.449V104.07C599.815 104.773 601.233 105.125 602.545 105.125C604.241 105.125 605.088 104.613 605.088 103.59C605.088 103.262 604.995 102.988 604.807 102.77C604.62 102.551 604.311 102.324 603.881 102.09C603.452 101.855 602.854 101.59 602.088 101.293C600.596 100.715 599.585 100.137 599.053 99.5586C598.53 98.9805 598.268 98.2305 598.268 97.3086C598.268 96.1992 598.713 95.3398 599.604 94.7305C600.503 94.1133 601.721 93.8047 603.26 93.8047C604.784 93.8047 606.225 94.1133 607.585 94.7305L606.694 96.8047C605.295 96.2266 604.12 95.9375 603.167 95.9375C601.713 95.9375 600.987 96.3516 600.987 97.1797C600.987 97.5859 601.174 97.9297 601.549 98.2109C601.932 98.4922 602.76 98.8789 604.034 99.3711C605.104 99.7852 605.881 100.164 606.366 100.508C606.85 100.852 607.21 101.25 607.444 101.703C607.678 102.148 607.795 102.684 607.795 103.309ZM615.132 105.008C615.804 105.008 616.476 104.902 617.147 104.691V106.766C616.843 106.898 616.448 107.008 615.964 107.094C615.487 107.188 614.991 107.234 614.476 107.234C611.866 107.234 610.562 105.859 610.562 103.109V96.125H608.792V94.9062L610.69 93.8984L611.628 91.1562H613.327V94.0391H617.019V96.125H613.327V103.062C613.327 103.727 613.491 104.219 613.819 104.539C614.155 104.852 614.593 105.008 615.132 105.008ZM624.929 107.234C622.914 107.234 621.335 106.648 620.195 105.477C619.062 104.297 618.496 102.676 618.496 100.613C618.496 98.4961 619.023 96.832 620.078 95.6211C621.132 94.4102 622.582 93.8047 624.425 93.8047C626.136 93.8047 627.488 94.3242 628.48 95.3633C629.472 96.4023 629.968 97.832 629.968 99.6523V101.141H621.332C621.371 102.398 621.71 103.367 622.351 104.047C622.992 104.719 623.894 105.055 625.058 105.055C625.824 105.055 626.535 104.984 627.191 104.844C627.855 104.695 628.566 104.453 629.324 104.117V106.355C628.652 106.676 627.972 106.902 627.285 107.035C626.597 107.168 625.812 107.234 624.929 107.234ZM624.425 95.8906C623.55 95.8906 622.847 96.168 622.316 96.7227C621.793 97.2773 621.48 98.0859 621.378 99.1484H627.261C627.246 98.0781 626.988 97.2695 626.488 96.7227C625.988 96.168 625.3 95.8906 624.425 95.8906ZM643.539 107H640.773V99.0078C640.773 98.0156 640.586 97.2773 640.211 96.793C639.836 96.3008 639.25 96.0547 638.453 96.0547C637.391 96.0547 636.609 96.4023 636.109 97.0977C635.617 97.7852 635.371 98.9336 635.371 100.543V107H632.617V94.0391H634.773L635.16 95.7383H635.301C635.66 95.1211 636.18 94.6445 636.859 94.3086C637.547 93.9727 638.301 93.8047 639.121 93.8047C641.113 93.8047 642.434 94.4844 643.082 95.8438H643.27C643.652 95.2031 644.191 94.7031 644.887 94.3438C645.582 93.9844 646.379 93.8047 647.277 93.8047C648.824 93.8047 649.949 94.1953 650.652 94.9766C651.363 95.7578 651.719 96.9492 651.719 98.5508V107H648.965V99.0078C648.965 98.0156 648.773 97.2773 648.391 96.793C648.016 96.3008 647.43 96.0547 646.633 96.0547C645.562 96.0547 644.777 96.3906 644.277 97.0625C643.785 97.7266 643.539 98.75 643.539 100.133V107ZM657.461 101.797H655.422L654.813 89.8672H658.059L657.461 101.797ZM654.672 105.535C654.672 104.957 654.825 104.52 655.129 104.223C655.434 103.918 655.868 103.766 656.43 103.766C656.985 103.766 657.411 103.922 657.707 104.234C658.004 104.547 658.153 104.98 658.153 105.535C658.153 106.09 658 106.531 657.696 106.859C657.399 107.18 656.977 107.34 656.43 107.34C655.875 107.34 655.442 107.184 655.129 106.871C654.825 106.559 654.672 106.113 654.672 105.535Z" fill="white"/>
<path d="M947.953 77H938.262V59.8672H947.953V62.2344H941.062V66.8984H947.52V69.2422H941.062V74.6211H947.953V77ZM953.989 67.8359H955.934C957.239 67.8359 958.184 67.5938 958.77 67.1094C959.356 66.625 959.649 65.9062 959.649 64.9531C959.649 63.9844 959.333 63.2891 958.7 62.8672C958.067 62.4453 957.114 62.2344 955.84 62.2344H953.989V67.8359ZM953.989 70.1562V77H951.188V59.8672H956.028C958.239 59.8672 959.875 60.2812 960.938 61.1094C962 61.9375 962.532 63.1875 962.532 64.8594C962.532 66.9922 961.422 68.5117 959.204 69.418L964.043 77H960.856L956.754 70.1562H953.989ZM977.403 65.0469C977.403 66.8359 976.817 68.207 975.645 69.1602C974.474 70.1133 972.806 70.5898 970.642 70.5898H968.86V77H966.06V59.8672H970.993C973.134 59.8672 974.735 60.3047 975.798 61.1797C976.868 62.0547 977.403 63.3438 977.403 65.0469ZM968.86 68.2344H970.349C971.786 68.2344 972.841 67.9844 973.513 67.4844C974.185 66.9844 974.52 66.2031 974.52 65.1406C974.52 64.1562 974.22 63.4219 973.618 62.9375C973.017 62.4531 972.079 62.2109 970.806 62.2109H968.86V68.2344ZM994.619 77H991.185L982.759 63.3477H982.665L982.724 64.1094C982.833 65.5625 982.888 66.8906 982.888 68.0938V77H980.345V59.8672H983.744L992.146 73.4492H992.216C992.201 73.2695 992.169 72.6172 992.123 71.4922C992.076 70.3594 992.052 69.4766 992.052 68.8438V59.8672H994.619V77ZM1004.03 77.2344C1002.01 77.2344 1000.44 76.6484 999.295 75.4766C998.162 74.2969 997.596 72.6758 997.596 70.6133C997.596 68.4961 998.123 66.832 999.178 65.6211C1000.23 64.4102 1001.68 63.8047 1003.53 63.8047C1005.24 63.8047 1006.59 64.3242 1007.58 65.3633C1008.57 66.4023 1009.07 67.832 1009.07 69.6523V71.1406H1000.43C1000.47 72.3984 1000.81 73.3672 1001.45 74.0469C1002.09 74.7188 1002.99 75.0547 1004.16 75.0547C1004.92 75.0547 1005.63 74.9844 1006.29 74.8438C1006.96 74.6953 1007.67 74.4531 1008.42 74.1172V76.3555C1007.75 76.6758 1007.07 76.9023 1006.38 77.0352C1005.7 77.168 1004.91 77.2344 1004.03 77.2344ZM1003.53 65.8906C1002.65 65.8906 1001.95 66.168 1001.42 66.7227C1000.89 67.2773 1000.58 68.0859 1000.48 69.1484H1006.36C1006.35 68.0781 1006.09 67.2695 1005.59 66.7227C1005.09 66.168 1004.4 65.8906 1003.53 65.8906ZM1014.6 70.3789L1010.25 64.0391H1013.39L1016.35 68.5742L1019.32 64.0391H1022.44L1018.08 70.3789L1022.66 77H1019.55L1016.35 72.1484L1013.16 77H1010.04L1014.6 70.3789ZM1029.28 75.0078C1029.96 75.0078 1030.63 74.9023 1031.3 74.6914V76.7656C1031 76.8984 1030.6 77.0078 1030.12 77.0938C1029.64 77.1875 1029.14 77.2344 1028.63 77.2344C1026.02 77.2344 1024.71 75.8594 1024.71 73.1094V66.125H1022.94V64.9062L1024.84 63.8984L1025.78 61.1562H1027.48V64.0391H1031.17V66.125H1027.48V73.0625C1027.48 73.7266 1027.64 74.2188 1027.97 74.5391C1028.31 74.8516 1028.75 75.0078 1029.28 75.0078ZM1050.58 77H1047.81V69.0312C1047.81 68.0312 1047.61 67.2852 1047.2 66.793C1046.8 66.3008 1046.17 66.0547 1045.29 66.0547C1044.14 66.0547 1043.29 66.4023 1042.74 67.0977C1042.2 67.7852 1041.93 68.9414 1041.93 70.5664V77H1039.18V58.7656H1041.93V63.3945C1041.93 64.1367 1041.88 64.9297 1041.79 65.7734H1041.96C1042.34 65.1484 1042.86 64.6641 1043.52 64.3203C1044.2 63.9766 1044.98 63.8047 1045.87 63.8047C1049.01 63.8047 1050.58 65.3867 1050.58 68.5508V77ZM1062.04 77L1061.49 75.1953H1061.39C1060.77 75.9844 1060.14 76.5234 1059.51 76.8125C1058.88 77.0938 1058.06 77.2344 1057.07 77.2344C1055.8 77.2344 1054.8 76.8906 1054.08 76.2031C1053.37 75.5156 1053.02 74.543 1053.02 73.2852C1053.02 71.9492 1053.51 70.9414 1054.5 70.2617C1055.5 69.582 1057.01 69.2109 1059.04 69.1484L1061.28 69.0781V68.3867C1061.28 67.5586 1061.08 66.9414 1060.69 66.5352C1060.31 66.1211 1059.71 65.9141 1058.9 65.9141C1058.23 65.9141 1057.6 66.0117 1056.99 66.207C1056.38 66.4023 1055.79 66.6328 1055.23 66.8984L1054.34 64.9297C1055.04 64.5625 1055.81 64.2852 1056.65 64.0977C1057.48 63.9023 1058.27 63.8047 1059.02 63.8047C1060.66 63.8047 1061.91 64.1641 1062.74 64.8828C1063.59 65.6016 1064.01 66.7305 1064.01 68.2695V77H1062.04ZM1057.94 75.125C1058.94 75.125 1059.74 74.8477 1060.34 74.293C1060.95 73.7305 1061.25 72.9453 1061.25 71.9375V70.8125L1059.59 70.8828C1058.29 70.9297 1057.35 71.1484 1056.75 71.5391C1056.17 71.9219 1055.88 72.5117 1055.88 73.3086C1055.88 73.8867 1056.05 74.3359 1056.39 74.6562C1056.73 74.9688 1057.25 75.125 1057.94 75.125ZM1076.08 73.3086C1076.08 74.5742 1075.62 75.5469 1074.7 76.2266C1073.77 76.8984 1072.45 77.2344 1070.74 77.2344C1069.01 77.2344 1067.62 76.9727 1066.57 76.4492V74.0703C1068.1 74.7734 1069.52 75.125 1070.83 75.125C1072.52 75.125 1073.37 74.6133 1073.37 73.5898C1073.37 73.2617 1073.28 72.9883 1073.09 72.7695C1072.9 72.5508 1072.59 72.3242 1072.16 72.0898C1071.74 71.8555 1071.14 71.5898 1070.37 71.293C1068.88 70.7148 1067.87 70.1367 1067.34 69.5586C1066.81 68.9805 1066.55 68.2305 1066.55 67.3086C1066.55 66.1992 1067 65.3398 1067.89 64.7305C1068.79 64.1133 1070 63.8047 1071.54 63.8047C1073.07 63.8047 1074.51 64.1133 1075.87 64.7305L1074.98 66.8047C1073.58 66.2266 1072.4 65.9375 1071.45 65.9375C1070 65.9375 1069.27 66.3516 1069.27 67.1797C1069.27 67.5859 1069.46 67.9297 1069.83 68.2109C1070.22 68.4922 1071.04 68.8789 1072.32 69.3711C1073.39 69.7852 1074.16 70.1641 1074.65 70.5078C1075.13 70.8516 1075.49 71.25 1075.73 71.7031C1075.96 72.1484 1076.08 72.6836 1076.08 73.3086ZM1090.96 63.8047C1092.58 63.8047 1093.84 64.3906 1094.74 65.5625C1095.64 66.7344 1096.1 68.3789 1096.1 70.4961C1096.1 72.6211 1095.64 74.2773 1094.72 75.4648C1093.81 76.6445 1092.54 77.2344 1090.92 77.2344C1089.28 77.2344 1088 76.6445 1087.1 75.4648H1086.91L1086.4 77H1084.34V58.7656H1087.1V63.1016C1087.1 63.4219 1087.08 63.8984 1087.05 64.5312C1087.02 65.1641 1086.99 65.5664 1086.98 65.7383H1087.1C1087.97 64.4492 1089.26 63.8047 1090.96 63.8047ZM1090.25 66.0547C1089.14 66.0547 1088.34 66.3828 1087.85 67.0391C1087.36 67.6875 1087.11 68.7773 1087.1 70.3086V70.4961C1087.1 72.0742 1087.35 73.2188 1087.85 73.9297C1088.35 74.6328 1089.16 74.9844 1090.29 74.9844C1091.27 74.9844 1092.01 74.5977 1092.51 73.8242C1093.02 73.0508 1093.27 71.9336 1093.27 70.4727C1093.27 67.5273 1092.26 66.0547 1090.25 66.0547ZM1104.47 77.2344C1102.46 77.2344 1100.88 76.6484 1099.74 75.4766C1098.61 74.2969 1098.04 72.6758 1098.04 70.6133C1098.04 68.4961 1098.57 66.832 1099.62 65.6211C1100.68 64.4102 1102.13 63.8047 1103.97 63.8047C1105.68 63.8047 1107.03 64.3242 1108.03 65.3633C1109.02 66.4023 1109.51 67.832 1109.51 69.6523V71.1406H1100.88C1100.92 72.3984 1101.26 73.3672 1101.9 74.0469C1102.54 74.7188 1103.44 75.0547 1104.6 75.0547C1105.37 75.0547 1106.08 74.9844 1106.74 74.8438C1107.4 74.6953 1108.11 74.4531 1108.87 74.1172V76.3555C1108.2 76.6758 1107.52 76.9023 1106.83 77.0352C1106.14 77.168 1105.36 77.2344 1104.47 77.2344ZM1103.97 65.8906C1103.1 65.8906 1102.39 66.168 1101.86 66.7227C1101.34 67.2773 1101.03 68.0859 1100.92 69.1484H1106.81C1106.79 68.0781 1106.53 67.2695 1106.03 66.7227C1105.53 66.168 1104.85 65.8906 1103.97 65.8906ZM1117.82 77.2344C1115.81 77.2344 1114.23 76.6484 1113.09 75.4766C1111.96 74.2969 1111.39 72.6758 1111.39 70.6133C1111.39 68.4961 1111.92 66.832 1112.97 65.6211C1114.03 64.4102 1115.48 63.8047 1117.32 63.8047C1119.03 63.8047 1120.38 64.3242 1121.37 65.3633C1122.37 66.4023 1122.86 67.832 1122.86 69.6523V71.1406H1114.23C1114.26 72.3984 1114.6 73.3672 1115.24 74.0469C1115.89 74.7188 1116.79 75.0547 1117.95 75.0547C1118.72 75.0547 1119.43 74.9844 1120.08 74.8438C1120.75 74.6953 1121.46 74.4531 1122.22 74.1172V76.3555C1121.55 76.6758 1120.87 76.9023 1120.18 77.0352C1119.49 77.168 1118.71 77.2344 1117.82 77.2344ZM1117.32 65.8906C1116.44 65.8906 1115.74 66.168 1115.21 66.7227C1114.69 67.2773 1114.37 68.0859 1114.27 69.1484H1120.15C1120.14 68.0781 1119.88 67.2695 1119.38 66.7227C1118.88 66.168 1118.19 65.8906 1117.32 65.8906ZM1136.91 77H1134.15V69.0312C1134.15 68.0312 1133.94 67.2852 1133.54 66.793C1133.14 66.3008 1132.5 66.0547 1131.63 66.0547C1130.46 66.0547 1129.61 66.3984 1129.07 67.0859C1128.53 67.7734 1128.26 68.9258 1128.26 70.543V77H1125.51V64.0391H1127.67L1128.05 65.7383H1128.19C1128.59 65.1211 1129.14 64.6445 1129.86 64.3086C1130.58 63.9727 1131.37 63.8047 1132.25 63.8047C1135.36 63.8047 1136.91 65.3867 1136.91 68.5508V77ZM1152.59 63.8047C1153.15 63.8047 1153.61 63.8438 1153.96 63.9219L1153.7 66.4883C1153.3 66.3945 1152.9 66.3477 1152.48 66.3477C1151.38 66.3477 1150.48 66.707 1149.79 67.4258C1149.11 68.1445 1148.77 69.0781 1148.77 70.2266V77H1146.02V64.0391H1148.18L1148.54 66.3242H1148.68C1149.11 65.5508 1149.67 64.9375 1150.36 64.4844C1151.05 64.0312 1151.8 63.8047 1152.59 63.8047ZM1164.01 77L1163.46 75.1953H1163.36C1162.74 75.9844 1162.11 76.5234 1161.48 76.8125C1160.84 77.0938 1160.03 77.2344 1159.04 77.2344C1157.77 77.2344 1156.77 76.8906 1156.05 76.2031C1155.34 75.5156 1154.99 74.543 1154.99 73.2852C1154.99 71.9492 1155.48 70.9414 1156.47 70.2617C1157.47 69.582 1158.98 69.2109 1161.01 69.1484L1163.25 69.0781V68.3867C1163.25 67.5586 1163.05 66.9414 1162.66 66.5352C1162.28 66.1211 1161.68 65.9141 1160.87 65.9141C1160.2 65.9141 1159.57 66.0117 1158.96 66.207C1158.35 66.4023 1157.76 66.6328 1157.2 66.8984L1156.31 64.9297C1157.01 64.5625 1157.78 64.2852 1158.62 64.0977C1159.45 63.9023 1160.24 63.8047 1160.99 63.8047C1162.63 63.8047 1163.88 64.1641 1164.71 64.8828C1165.56 65.6016 1165.98 66.7305 1165.98 68.2695V77H1164.01ZM1159.91 75.125C1160.91 75.125 1161.71 74.8477 1162.31 74.293C1162.92 73.7305 1163.22 72.9453 1163.22 71.9375V70.8125L1161.56 70.8828C1160.26 70.9297 1159.32 71.1484 1158.72 71.5391C1158.14 71.9219 1157.84 72.5117 1157.84 73.3086C1157.84 73.8867 1158.02 74.3359 1158.36 74.6562C1158.7 74.9688 1159.22 75.125 1159.91 75.125ZM1174.17 75.0078C1174.84 75.0078 1175.51 74.9023 1176.18 74.6914V76.7656C1175.88 76.8984 1175.49 77.0078 1175 77.0938C1174.52 77.1875 1174.03 77.2344 1173.51 77.2344C1170.9 77.2344 1169.6 75.8594 1169.6 73.1094V66.125H1167.83V64.9062L1169.73 63.8984L1170.67 61.1562H1172.36V64.0391H1176.06V66.125H1172.36V73.0625C1172.36 73.7266 1172.53 74.2188 1172.86 74.5391C1173.19 74.8516 1173.63 75.0078 1174.17 75.0078ZM1183.97 77.2344C1181.95 77.2344 1180.37 76.6484 1179.23 75.4766C1178.1 74.2969 1177.53 72.6758 1177.53 70.6133C1177.53 68.4961 1178.06 66.832 1179.11 65.6211C1180.17 64.4102 1181.62 63.8047 1183.46 63.8047C1185.17 63.8047 1186.52 64.3242 1187.52 65.3633C1188.51 66.4023 1189.01 67.832 1189.01 69.6523V71.1406H1180.37C1180.41 72.3984 1180.75 73.3672 1181.39 74.0469C1182.03 74.7188 1182.93 75.0547 1184.1 75.0547C1184.86 75.0547 1185.57 74.9844 1186.23 74.8438C1186.89 74.6953 1187.6 74.4531 1188.36 74.1172V76.3555C1187.69 76.6758 1187.01 76.9023 1186.32 77.0352C1185.63 77.168 1184.85 77.2344 1183.97 77.2344ZM1183.46 65.8906C1182.59 65.8906 1181.88 66.168 1181.35 66.7227C1180.83 67.2773 1180.52 68.0859 1180.42 69.1484H1186.3C1186.28 68.0781 1186.02 67.2695 1185.52 66.7227C1185.02 66.168 1184.34 65.8906 1183.46 65.8906ZM1196.03 77.2344C1194.41 77.2344 1193.15 76.6484 1192.24 75.4766C1191.33 74.3047 1190.88 72.6602 1190.88 70.543C1190.88 68.418 1191.34 66.7656 1192.25 65.5859C1193.17 64.3984 1194.45 63.8047 1196.07 63.8047C1197.78 63.8047 1199.07 64.4336 1199.96 65.6914H1200.1C1199.97 64.7617 1199.9 64.0273 1199.9 63.4883V58.7656H1202.67V77H1200.51L1200.03 75.3008H1199.9C1199.02 76.5898 1197.73 77.2344 1196.03 77.2344ZM1196.76 75.0078C1197.9 75.0078 1198.72 74.6914 1199.24 74.0586C1199.75 73.418 1200.02 72.3828 1200.03 70.9531V70.5664C1200.03 68.9336 1199.77 67.7734 1199.24 67.0859C1198.71 66.3984 1197.87 66.0547 1196.74 66.0547C1195.77 66.0547 1195.03 66.4492 1194.5 67.2383C1193.98 68.0195 1193.72 69.1367 1193.72 70.5898C1193.72 72.0273 1193.97 73.125 1194.48 73.8828C1194.99 74.6328 1195.75 75.0078 1196.76 75.0078ZM1219.99 77L1219.44 75.1953H1219.35C1218.72 75.9844 1218.09 76.5234 1217.46 76.8125C1216.83 77.0938 1216.01 77.2344 1215.02 77.2344C1213.75 77.2344 1212.75 76.8906 1212.03 76.2031C1211.32 75.5156 1210.97 74.543 1210.97 73.2852C1210.97 71.9492 1211.46 70.9414 1212.46 70.2617C1213.45 69.582 1214.96 69.2109 1216.99 69.1484L1219.23 69.0781V68.3867C1219.23 67.5586 1219.03 66.9414 1218.64 66.5352C1218.26 66.1211 1217.66 65.9141 1216.85 65.9141C1216.19 65.9141 1215.55 66.0117 1214.94 66.207C1214.33 66.4023 1213.75 66.6328 1213.18 66.8984L1212.29 64.9297C1213 64.5625 1213.76 64.2852 1214.6 64.0977C1215.44 63.9023 1216.23 63.8047 1216.97 63.8047C1218.62 63.8047 1219.86 64.1641 1220.69 64.8828C1221.54 65.6016 1221.96 66.7305 1221.96 68.2695V77H1219.99ZM1215.89 75.125C1216.89 75.125 1217.69 74.8477 1218.29 74.293C1218.9 73.7305 1219.21 72.9453 1219.21 71.9375V70.8125L1217.54 70.8828C1216.25 70.9297 1215.3 71.1484 1214.71 71.5391C1214.12 71.9219 1213.83 72.5117 1213.83 73.3086C1213.83 73.8867 1214 74.3359 1214.34 74.6562C1214.69 74.9688 1215.2 75.125 1215.89 75.125ZM1234.03 73.3086C1234.03 74.5742 1233.57 75.5469 1232.65 76.2266C1231.73 76.8984 1230.41 77.2344 1228.69 77.2344C1226.96 77.2344 1225.57 76.9727 1224.53 76.4492V74.0703C1226.05 74.7734 1227.47 75.125 1228.78 75.125C1230.48 75.125 1231.32 74.6133 1231.32 73.5898C1231.32 73.2617 1231.23 72.9883 1231.04 72.7695C1230.86 72.5508 1230.55 72.3242 1230.12 72.0898C1229.69 71.8555 1229.09 71.5898 1228.32 71.293C1226.83 70.7148 1225.82 70.1367 1225.29 69.5586C1224.77 68.9805 1224.5 68.2305 1224.5 67.3086C1224.5 66.1992 1224.95 65.3398 1225.84 64.7305C1226.74 64.1133 1227.96 63.8047 1229.5 63.8047C1231.02 63.8047 1232.46 64.1133 1233.82 64.7305L1232.93 66.8047C1231.53 66.2266 1230.36 65.9375 1229.4 65.9375C1227.95 65.9375 1227.22 66.3516 1227.22 67.1797C1227.22 67.5859 1227.41 67.9297 1227.78 68.2109C1228.17 68.4922 1229 68.8789 1230.27 69.3711C1231.34 69.7852 1232.12 70.1641 1232.6 70.5078C1233.09 70.8516 1233.44 71.25 1233.68 71.7031C1233.91 72.1484 1234.03 72.6836 1234.03 73.3086ZM1250.4 77L1249.85 75.1953H1249.76C1249.13 75.9844 1248.5 76.5234 1247.87 76.8125C1247.24 77.0938 1246.43 77.2344 1245.43 77.2344C1244.16 77.2344 1243.16 76.8906 1242.45 76.2031C1241.73 75.5156 1241.38 74.543 1241.38 73.2852C1241.38 71.9492 1241.88 70.9414 1242.87 70.2617C1243.86 69.582 1245.37 69.2109 1247.4 69.1484L1249.64 69.0781V68.3867C1249.64 67.5586 1249.45 66.9414 1249.06 66.5352C1248.67 66.1211 1248.07 65.9141 1247.26 65.9141C1246.6 65.9141 1245.96 66.0117 1245.35 66.207C1244.74 66.4023 1244.16 66.6328 1243.59 66.8984L1242.7 64.9297C1243.41 64.5625 1244.18 64.2852 1245.01 64.0977C1245.85 63.9023 1246.64 63.8047 1247.38 63.8047C1249.03 63.8047 1250.27 64.1641 1251.11 64.8828C1251.95 65.6016 1252.37 66.7305 1252.37 68.2695V77H1250.4ZM1246.3 75.125C1247.3 75.125 1248.1 74.8477 1248.7 74.293C1249.31 73.7305 1249.62 72.9453 1249.62 71.9375V70.8125L1247.95 70.8828C1246.66 70.9297 1245.71 71.1484 1245.12 71.5391C1244.53 71.9219 1244.24 72.5117 1244.24 73.3086C1244.24 73.8867 1244.41 74.3359 1244.75 74.6562C1245.1 74.9688 1245.61 75.125 1246.3 75.125ZM945.551 92.0234C943.941 92.0234 942.676 92.5938 941.754 93.7344C940.832 94.875 940.371 96.4492 940.371 98.457C940.371 100.559 940.812 102.148 941.695 103.227C942.586 104.305 943.871 104.844 945.551 104.844C946.277 104.844 946.98 104.773 947.66 104.633C948.34 104.484 949.047 104.297 949.781 104.07V106.473C948.438 106.98 946.914 107.234 945.211 107.234C942.703 107.234 940.777 106.477 939.434 104.961C938.09 103.438 937.418 101.262 937.418 98.4336C937.418 96.6523 937.742 95.0938 938.391 93.7578C939.047 92.4219 939.992 91.3984 941.227 90.6875C942.461 89.9766 943.91 89.6211 945.574 89.6211C947.324 89.6211 948.941 89.9883 950.426 90.7227L949.418 93.0547C948.84 92.7812 948.227 92.543 947.578 92.3398C946.938 92.1289 946.262 92.0234 945.551 92.0234ZM960.809 107L960.258 105.195H960.165C959.54 105.984 958.911 106.523 958.278 106.812C957.645 107.094 956.833 107.234 955.84 107.234C954.567 107.234 953.571 106.891 952.852 106.203C952.141 105.516 951.786 104.543 951.786 103.285C951.786 101.949 952.282 100.941 953.274 100.262C954.266 99.582 955.778 99.2109 957.809 99.1484L960.047 99.0781V98.3867C960.047 97.5586 959.852 96.9414 959.461 96.5352C959.079 96.1211 958.481 95.9141 957.668 95.9141C957.004 95.9141 956.368 96.0117 955.758 96.207C955.149 96.4023 954.563 96.6328 954 96.8984L953.11 94.9297C953.813 94.5625 954.583 94.2852 955.418 94.0977C956.254 93.9023 957.043 93.8047 957.786 93.8047C959.434 93.8047 960.676 94.1641 961.512 94.8828C962.356 95.6016 962.778 96.7305 962.778 98.2695V107H960.809ZM956.708 105.125C957.708 105.125 958.508 104.848 959.11 104.293C959.719 103.73 960.024 102.945 960.024 101.938V100.812L958.36 100.883C957.063 100.93 956.118 101.148 955.524 101.539C954.938 101.922 954.645 102.512 954.645 103.309C954.645 103.887 954.817 104.336 955.161 104.656C955.504 104.969 956.02 105.125 956.708 105.125ZM970.97 105.008C971.642 105.008 972.313 104.902 972.985 104.691V106.766C972.681 106.898 972.286 107.008 971.802 107.094C971.325 107.188 970.829 107.234 970.313 107.234C967.704 107.234 966.399 105.859 966.399 103.109V96.125H964.63V94.9062L966.528 93.8984L967.466 91.1562H969.165V94.0391H972.856V96.125H969.165V103.062C969.165 103.727 969.329 104.219 969.657 104.539C969.993 104.852 970.431 105.008 970.97 105.008ZM980.767 107.234C978.751 107.234 977.173 106.648 976.033 105.477C974.9 104.297 974.333 102.676 974.333 100.613C974.333 98.4961 974.861 96.832 975.915 95.6211C976.97 94.4102 978.419 93.8047 980.263 93.8047C981.974 93.8047 983.326 94.3242 984.318 95.3633C985.31 96.4023 985.806 97.832 985.806 99.6523V101.141H977.169C977.208 102.398 977.548 103.367 978.189 104.047C978.83 104.719 979.732 105.055 980.896 105.055C981.662 105.055 982.373 104.984 983.029 104.844C983.693 104.695 984.404 104.453 985.162 104.117V106.355C984.49 106.676 983.81 106.902 983.123 107.035C982.435 107.168 981.65 107.234 980.767 107.234ZM980.263 95.8906C979.388 95.8906 978.685 96.168 978.154 96.7227C977.63 97.2773 977.318 98.0859 977.216 99.1484H983.099C983.083 98.0781 982.826 97.2695 982.326 96.7227C981.826 96.168 981.138 95.8906 980.263 95.8906ZM999.4 94.0391V95.5508L997.185 95.9609C997.389 96.2344 997.557 96.5703 997.689 96.9688C997.822 97.3672 997.889 97.7891 997.889 98.2344C997.889 99.5703 997.428 100.621 996.506 101.387C995.584 102.152 994.314 102.535 992.697 102.535C992.283 102.535 991.908 102.504 991.572 102.441C990.978 102.809 990.682 103.238 990.682 103.73C990.682 104.027 990.818 104.25 991.092 104.398C991.373 104.547 991.885 104.621 992.627 104.621H994.889C996.318 104.621 997.404 104.926 998.146 105.535C998.889 106.145 999.26 107.023 999.26 108.172C999.26 109.641 998.654 110.773 997.443 111.57C996.232 112.367 994.482 112.766 992.193 112.766C990.428 112.766 989.08 112.453 988.15 111.828C987.221 111.203 986.756 110.312 986.756 109.156C986.756 108.359 987.006 107.688 987.506 107.141C988.014 106.602 988.721 106.227 989.627 106.016C989.26 105.859 988.955 105.609 988.713 105.266C988.478 104.914 988.361 104.547 988.361 104.164C988.361 103.68 988.498 103.27 988.771 102.934C989.045 102.598 989.451 102.266 989.99 101.938C989.318 101.648 988.771 101.18 988.35 100.531C987.935 99.875 987.728 99.1094 987.728 98.2344C987.728 96.8281 988.17 95.7383 989.053 94.9648C989.943 94.1914 991.209 93.8047 992.85 93.8047C993.217 93.8047 993.6 93.832 993.998 93.8867C994.404 93.9336 994.709 93.9844 994.912 94.0391H999.4ZM989.217 109.016C989.217 109.609 989.482 110.066 990.014 110.387C990.553 110.707 991.307 110.867 992.275 110.867C993.775 110.867 994.893 110.652 995.627 110.223C996.361 109.793 996.728 109.223 996.728 108.512C996.728 107.949 996.525 107.547 996.119 107.305C995.721 107.07 994.975 106.953 993.881 106.953H991.795C991.006 106.953 990.377 107.137 989.908 107.504C989.447 107.879 989.217 108.383 989.217 109.016ZM990.4 98.2344C990.4 99.0469 990.607 99.6719 991.021 100.109C991.443 100.547 992.045 100.766 992.826 100.766C994.42 100.766 995.217 99.9141 995.217 98.2109C995.217 97.3672 995.018 96.7188 994.619 96.2656C994.228 95.8047 993.631 95.5742 992.826 95.5742C992.029 95.5742 991.424 95.8008 991.01 96.2539C990.603 96.707 990.4 97.3672 990.4 98.2344ZM1012.83 100.496C1012.83 102.613 1012.29 104.266 1011.2 105.453C1010.12 106.641 1008.6 107.234 1006.67 107.234C1005.46 107.234 1004.39 106.961 1003.46 106.414C1002.53 105.867 1001.81 105.082 1001.31 104.059C1000.81 103.035 1000.56 101.848 1000.56 100.496C1000.56 98.3945 1001.1 96.7539 1002.18 95.5742C1003.26 94.3945 1004.78 93.8047 1006.74 93.8047C1008.61 93.8047 1010.1 94.4102 1011.19 95.6211C1012.28 96.8242 1012.83 98.4492 1012.83 100.496ZM1003.4 100.496C1003.4 103.488 1004.5 104.984 1006.71 104.984C1008.9 104.984 1009.99 103.488 1009.99 100.496C1009.99 97.5352 1008.89 96.0547 1006.69 96.0547C1005.53 96.0547 1004.69 96.4375 1004.17 97.2031C1003.65 97.9688 1003.4 99.0664 1003.4 100.496ZM1022.1 93.8047C1022.66 93.8047 1023.11 93.8438 1023.47 93.9219L1023.2 96.4883C1022.81 96.3945 1022.41 96.3477 1021.98 96.3477C1020.88 96.3477 1019.99 96.707 1019.3 97.4258C1018.62 98.1445 1018.28 99.0781 1018.28 100.227V107H1015.53V94.0391H1017.68L1018.05 96.3242H1018.19C1018.62 95.5508 1019.17 94.9375 1019.86 94.4844C1020.56 94.0312 1021.3 93.8047 1022.1 93.8047ZM1023.44 94.0391H1026.44L1029.07 101.387C1029.47 102.434 1029.74 103.418 1029.87 104.34H1029.96C1030.03 103.91 1030.16 103.391 1030.35 102.781C1030.54 102.164 1031.53 99.25 1033.33 94.0391H1036.3L1030.76 108.723C1029.75 111.418 1028.07 112.766 1025.72 112.766C1025.11 112.766 1024.52 112.699 1023.94 112.566V110.387C1024.35 110.48 1024.83 110.527 1025.36 110.527C1026.69 110.527 1027.62 109.758 1028.16 108.219L1028.64 107L1023.44 94.0391ZM1043.84 107V89.8672H1046.64V104.598H1053.89V107H1043.84ZM1061.74 107.234C1059.72 107.234 1058.14 106.648 1057 105.477C1055.87 104.297 1055.3 102.676 1055.3 100.613C1055.3 98.4961 1055.83 96.832 1056.88 95.6211C1057.94 94.4102 1059.39 93.8047 1061.23 93.8047C1062.94 93.8047 1064.29 94.3242 1065.29 95.3633C1066.28 96.4023 1066.77 97.832 1066.77 99.6523V101.141H1058.14C1058.18 102.398 1058.52 103.367 1059.16 104.047C1059.8 104.719 1060.7 105.055 1061.86 105.055C1062.63 105.055 1063.34 104.984 1064 104.844C1064.66 104.695 1065.37 104.453 1066.13 104.117V106.355C1065.46 106.676 1064.78 106.902 1064.09 107.035C1063.4 107.168 1062.62 107.234 1061.74 107.234ZM1061.23 95.8906C1060.36 95.8906 1059.65 96.168 1059.12 96.7227C1058.6 97.2773 1058.29 98.0859 1058.18 99.1484H1064.07C1064.05 98.0781 1063.79 97.2695 1063.29 96.7227C1062.79 96.168 1062.11 95.8906 1061.23 95.8906ZM1077.53 107L1076.98 105.195H1076.89C1076.26 105.984 1075.63 106.523 1075 106.812C1074.37 107.094 1073.56 107.234 1072.56 107.234C1071.29 107.234 1070.29 106.891 1069.58 106.203C1068.86 105.516 1068.51 104.543 1068.51 103.285C1068.51 101.949 1069.01 100.941 1070 100.262C1070.99 99.582 1072.5 99.2109 1074.53 99.1484L1076.77 99.0781V98.3867C1076.77 97.5586 1076.58 96.9414 1076.18 96.5352C1075.8 96.1211 1075.2 95.9141 1074.39 95.9141C1073.73 95.9141 1073.09 96.0117 1072.48 96.207C1071.87 96.4023 1071.29 96.6328 1070.72 96.8984L1069.83 94.9297C1070.54 94.5625 1071.31 94.2852 1072.14 94.0977C1072.98 93.9023 1073.77 93.8047 1074.51 93.8047C1076.16 93.8047 1077.4 94.1641 1078.24 94.8828C1079.08 95.6016 1079.5 96.7305 1079.5 98.2695V107H1077.53ZM1073.43 105.125C1074.43 105.125 1075.23 104.848 1075.83 104.293C1076.44 103.73 1076.75 102.945 1076.75 101.938V100.812L1075.08 100.883C1073.79 100.93 1072.84 101.148 1072.25 101.539C1071.66 101.922 1071.37 102.512 1071.37 103.309C1071.37 103.887 1071.54 104.336 1071.88 104.656C1072.23 104.969 1072.74 105.125 1073.43 105.125ZM1087.24 107.234C1085.62 107.234 1084.36 106.648 1083.45 105.477C1082.54 104.305 1082.09 102.66 1082.09 100.543C1082.09 98.418 1082.55 96.7656 1083.46 95.5859C1084.38 94.3984 1085.66 93.8047 1087.28 93.8047C1088.99 93.8047 1090.28 94.4336 1091.17 95.6914H1091.31C1091.18 94.7617 1091.12 94.0273 1091.12 93.4883V88.7656H1093.88V107H1091.72L1091.24 105.301H1091.12C1090.23 106.59 1088.94 107.234 1087.24 107.234ZM1087.97 105.008C1089.11 105.008 1089.93 104.691 1090.45 104.059C1090.96 103.418 1091.23 102.383 1091.24 100.953V100.566C1091.24 98.9336 1090.98 97.7734 1090.45 97.0859C1089.92 96.3984 1089.08 96.0547 1087.95 96.0547C1086.98 96.0547 1086.24 96.4492 1085.71 97.2383C1085.19 98.0195 1084.93 99.1367 1084.93 100.59C1084.93 102.027 1085.18 103.125 1085.69 103.883C1086.2 104.633 1086.96 105.008 1087.97 105.008ZM1103 107.234C1100.98 107.234 1099.4 106.648 1098.26 105.477C1097.13 104.297 1096.56 102.676 1096.56 100.613C1096.56 98.4961 1097.09 96.832 1098.15 95.6211C1099.2 94.4102 1100.65 93.8047 1102.49 93.8047C1104.21 93.8047 1105.56 94.3242 1106.55 95.3633C1107.54 96.4023 1108.04 97.832 1108.04 99.6523V101.141H1099.4C1099.44 102.398 1099.78 103.367 1100.42 104.047C1101.06 104.719 1101.96 105.055 1103.13 105.055C1103.89 105.055 1104.6 104.984 1105.26 104.844C1105.92 104.695 1106.63 104.453 1107.39 104.117V106.355C1106.72 106.676 1106.04 106.902 1105.35 107.035C1104.67 107.168 1103.88 107.234 1103 107.234ZM1102.49 95.8906C1101.62 95.8906 1100.92 96.168 1100.38 96.7227C1099.86 97.2773 1099.55 98.0859 1099.45 99.1484H1105.33C1105.31 98.0781 1105.06 97.2695 1104.56 96.7227C1104.06 96.168 1103.37 95.8906 1102.49 95.8906ZM1117.26 93.8047C1117.82 93.8047 1118.27 93.8438 1118.63 93.9219L1118.36 96.4883C1117.97 96.3945 1117.57 96.3477 1117.14 96.3477C1116.04 96.3477 1115.15 96.707 1114.46 97.4258C1113.78 98.1445 1113.44 99.0781 1113.44 100.227V107H1110.69V94.0391H1112.84L1113.21 96.3242H1113.35C1113.78 95.5508 1114.33 94.9375 1115.02 94.4844C1115.72 94.0312 1116.46 93.8047 1117.26 93.8047ZM1132.94 93.8047C1134.56 93.8047 1135.82 94.3906 1136.71 95.5625C1137.62 96.7344 1138.07 98.3789 1138.07 100.496C1138.07 102.621 1137.62 104.277 1136.7 105.465C1135.79 106.645 1134.52 107.234 1132.89 107.234C1131.25 107.234 1129.98 106.645 1129.07 105.465H1128.89L1128.38 107H1126.32V88.7656H1129.07V93.1016C1129.07 93.4219 1129.06 93.8984 1129.03 94.5312C1129 95.1641 1128.97 95.5664 1128.96 95.7383H1129.07C1129.95 94.4492 1131.24 93.8047 1132.94 93.8047ZM1132.23 96.0547C1131.12 96.0547 1130.32 96.3828 1129.82 97.0391C1129.34 97.6875 1129.09 98.7773 1129.07 100.309V100.496C1129.07 102.074 1129.32 103.219 1129.82 103.93C1130.32 104.633 1131.14 104.984 1132.27 104.984C1133.25 104.984 1133.99 104.598 1134.49 103.824C1135 103.051 1135.25 101.934 1135.25 100.473C1135.25 97.5273 1134.24 96.0547 1132.23 96.0547ZM1138.82 94.0391H1141.82L1144.46 101.387C1144.86 102.434 1145.13 103.418 1145.26 104.34H1145.35C1145.42 103.91 1145.55 103.391 1145.74 102.781C1145.93 102.164 1146.92 99.25 1148.71 94.0391H1151.69L1146.15 108.723C1145.14 111.418 1143.46 112.766 1141.11 112.766C1140.5 112.766 1139.91 112.699 1139.33 112.566V110.387C1139.74 110.48 1140.21 110.527 1140.75 110.527C1142.07 110.527 1143.01 109.758 1143.55 108.219L1144.03 107L1138.82 94.0391ZM1166.24 97.707H1172.54V106.309C1171.51 106.645 1170.52 106.883 1169.56 107.023C1168.62 107.164 1167.59 107.234 1166.49 107.234C1163.9 107.234 1161.9 106.469 1160.49 104.938C1159.09 103.398 1158.38 101.23 1158.38 98.4336C1158.38 95.6758 1159.18 93.5195 1160.76 91.9648C1162.35 90.4023 1164.53 89.6211 1167.31 89.6211C1169.1 89.6211 1170.8 89.9648 1172.4 90.6523L1171.42 92.9844C1170.02 92.3438 1168.63 92.0234 1167.24 92.0234C1165.42 92.0234 1163.97 92.5977 1162.91 93.7461C1161.84 94.8945 1161.31 96.4648 1161.31 98.457C1161.31 100.551 1161.79 102.145 1162.74 103.238C1163.7 104.324 1165.08 104.867 1166.88 104.867C1167.79 104.867 1168.76 104.754 1169.79 104.527V100.109H1166.24V97.707ZM1181.55 107.234C1179.54 107.234 1177.96 106.648 1176.82 105.477C1175.69 104.297 1175.12 102.676 1175.12 100.613C1175.12 98.4961 1175.65 96.832 1176.7 95.6211C1177.76 94.4102 1179.2 93.8047 1181.05 93.8047C1182.76 93.8047 1184.11 94.3242 1185.1 95.3633C1186.1 96.4023 1186.59 97.832 1186.59 99.6523V101.141H1177.95C1177.99 102.398 1178.33 103.367 1178.97 104.047C1179.61 104.719 1180.52 105.055 1181.68 105.055C1182.45 105.055 1183.16 104.984 1183.81 104.844C1184.48 104.695 1185.19 104.453 1185.95 104.117V106.355C1185.27 106.676 1184.6 106.902 1183.91 107.035C1183.22 107.168 1182.44 107.234 1181.55 107.234ZM1181.05 95.8906C1180.17 95.8906 1179.47 96.168 1178.94 96.7227C1178.42 97.2773 1178.1 98.0859 1178 99.1484H1183.88C1183.87 98.0781 1183.61 97.2695 1183.11 96.7227C1182.61 96.168 1181.92 95.8906 1181.05 95.8906ZM1194.07 105.008C1194.74 105.008 1195.41 104.902 1196.08 104.691V106.766C1195.78 106.898 1195.38 107.008 1194.9 107.094C1194.42 107.188 1193.93 107.234 1193.41 107.234C1190.8 107.234 1189.5 105.859 1189.5 103.109V96.125H1187.73V94.9062L1189.63 93.8984L1190.56 91.1562H1192.26V94.0391H1195.96V96.125H1192.26V103.062C1192.26 103.727 1192.43 104.219 1192.76 104.539C1193.09 104.852 1193.53 105.008 1194.07 105.008ZM1209.13 107L1207.42 102.242H1200.87L1199.19 107H1196.24L1202.65 89.7969H1205.69L1212.1 107H1209.13ZM1206.68 99.8281L1205.07 95.1641C1204.96 94.8516 1204.79 94.3594 1204.58 93.6875C1204.38 93.0156 1204.24 92.5234 1204.16 92.2109C1203.95 93.1719 1203.64 94.2227 1203.23 95.3633L1201.69 99.8281H1206.68ZM1220.17 107.234C1218.53 107.234 1217.25 106.645 1216.35 105.465H1216.18C1216.29 106.559 1216.35 107.223 1216.35 107.457V112.766H1213.59V94.0391H1215.82C1215.88 94.2812 1216.01 94.8594 1216.21 95.7734H1216.35C1217.21 94.4609 1218.5 93.8047 1220.21 93.8047C1221.83 93.8047 1223.09 94.3906 1223.99 95.5625C1224.89 96.7344 1225.35 98.3789 1225.35 100.496C1225.35 102.613 1224.89 104.266 1223.96 105.453C1223.05 106.641 1221.78 107.234 1220.17 107.234ZM1219.5 96.0547C1218.41 96.0547 1217.6 96.375 1217.1 97.0156C1216.6 97.6562 1216.35 98.6797 1216.35 100.086V100.496C1216.35 102.074 1216.6 103.219 1217.1 103.93C1217.6 104.633 1218.41 104.984 1219.55 104.984C1220.5 104.984 1221.23 104.594 1221.75 103.812C1222.26 103.031 1222.52 101.918 1222.52 100.473C1222.52 99.0195 1222.26 97.9219 1221.75 97.1797C1221.24 96.4297 1220.49 96.0547 1219.5 96.0547ZM1234.64 107.234C1233 107.234 1231.73 106.645 1230.82 105.465H1230.66C1230.77 106.559 1230.82 107.223 1230.82 107.457V112.766H1228.07V94.0391H1230.29C1230.36 94.2812 1230.48 94.8594 1230.68 95.7734H1230.82C1231.68 94.4609 1232.97 93.8047 1234.69 93.8047C1236.3 93.8047 1237.56 94.3906 1238.46 95.5625C1239.37 96.7344 1239.82 98.3789 1239.82 100.496C1239.82 102.613 1239.36 104.266 1238.44 105.453C1237.52 106.641 1236.26 107.234 1234.64 107.234ZM1233.97 96.0547C1232.88 96.0547 1232.08 96.375 1231.57 97.0156C1231.07 97.6562 1230.82 98.6797 1230.82 100.086V100.496C1230.82 102.074 1231.07 103.219 1231.57 103.93C1232.07 104.633 1232.89 104.984 1234.02 104.984C1234.97 104.984 1235.71 104.594 1236.22 103.812C1236.74 103.031 1237 101.918 1237 100.473C1237 99.0195 1236.74 97.9219 1236.22 97.1797C1235.71 96.4297 1234.96 96.0547 1233.97 96.0547ZM1242.13 105.535C1242.13 104.965 1242.28 104.527 1242.57 104.223C1242.87 103.918 1243.3 103.766 1243.86 103.766C1244.43 103.766 1244.87 103.926 1245.16 104.246C1245.46 104.559 1245.61 104.988 1245.61 105.535C1245.61 106.09 1245.46 106.531 1245.15 106.859C1244.86 107.18 1244.43 107.34 1243.86 107.34C1243.3 107.34 1242.87 107.18 1242.57 106.859C1242.28 106.539 1242.13 106.098 1242.13 105.535Z" fill="white"/>
<rect x="163" y="53" width="156" height="60" fill="white"/>
<path d="M304.136 77.8813L303.766 82.321H301.974C299.119 82.321 297.638 84.6379 297.638 86.8699V96.9016H292.598V77.8813H297.387L297.495 80.2589C298.498 78.6334 300.254 77.8813 302.428 77.8813H304.136Z" fill="#002856"/>
<path d="M269.103 96.9011H264.05V86.8451C264.05 84.7344 263.859 82.09 260.957 82.09C258.15 82.09 257.027 84.1522 257.027 86.5418V96.8889H251.975V77.8808H256.669L256.776 80.3069C257.78 78.6814 259.655 77.4077 262.414 77.4077C267.514 77.4077 269.115 81.1074 269.115 84.9406L269.103 96.9011Z" fill="#002856"/>
<path d="M249.765 92.4617L249.407 96.7922C248.236 97.1076 247.03 97.2653 245.812 97.241C241.046 97.241 239.66 95.0212 239.66 90.5572V72.5195H244.725V77.8811H249.753L249.407 82.3208H244.725V90.1569C244.725 91.9522 245.202 92.9105 247.018 92.9105C247.95 92.9227 248.881 92.765 249.765 92.4617Z" fill="#002856"/>
<path d="M238.012 77.8813L237.618 82.321H236.244C233.402 82.321 231.98 84.6379 231.98 86.8699V96.9016H226.928V77.8813H231.706L231.801 80.2589C232.816 78.6456 234.572 77.8813 236.746 77.8813H238.012Z" fill="#002856"/>
<path d="M204.101 94.79C200.673 96.658 197.245 97.7255 192.718 97.5921C184.333 97.3373 178.277 92.0364 178.277 83.1085C178.277 74.217 184.393 68.5279 192.73 68.3945C196.958 68.3338 200.733 69.4134 203.695 72.07L200.124 75.7212C198.296 74.1321 195.609 73.2102 192.384 73.3558C187.14 73.5984 183.975 77.4801 183.903 82.7931C183.832 88.555 187.319 92.5337 192.766 92.6793C195.334 92.74 197.162 92.4003 198.75 91.6725V85.7893H193.088L193.471 80.9493H204.089L204.101 94.79Z" fill="#002856"/>
<path d="M290.341 89.2106H276.473C276.867 91.6366 278.754 93.1044 281.096 93.1771C283.377 93.2378 284.643 92.5464 286.315 90.8239L289.612 93.3591C287.271 96.2946 284.452 97.3621 281.239 97.3621C275.601 97.3621 271.385 93.3591 271.385 87.391C271.385 81.4229 275.589 77.4199 281.036 77.4199C287.044 77.4199 290.329 81.1197 290.329 87.67L290.341 89.2106ZM285.276 85.2197C285.121 82.8179 283.353 81.3016 280.904 81.3987C278.468 81.4957 276.808 83.1211 276.473 85.2197H285.276Z" fill="#002856"/>
<path d="M223.738 84.4435V96.9013H219.271L219.164 95.0211C217.802 96.7436 215.58 97.3622 213.287 97.3622C209.847 97.3622 206.598 95.6397 206.526 91.6246C206.431 85.3169 213.526 84.868 217.981 84.868H218.877V84.6133C218.877 82.5269 217.515 81.3988 214.959 81.3988C213.096 81.4109 211.316 82.1266 209.954 83.4245L207.04 80.4162C209.381 78.439 212.343 77.3715 215.377 77.42C221.182 77.42 223.738 80.1372 223.738 84.4435ZM218.877 88.6042H218.172C215.783 88.6042 211.579 88.7255 211.591 91.2728C211.615 94.8634 218.877 93.711 218.877 89.3926V88.6042Z" fill="#002856"/>
<path d="M300.195 94.6815C300.231 93.5292 301.175 92.6315 302.298 92.6679C303.432 92.7043 304.316 93.6626 304.28 94.8028C304.245 95.9309 303.337 96.8165 302.238 96.8165C301.103 96.8165 300.195 95.8824 300.195 94.7422C300.195 94.73 300.195 94.7058 300.195 94.6815ZM302.238 97.2531C303.623 97.2289 304.746 96.0765 304.722 94.6573C304.698 93.2502 303.564 92.1099 302.166 92.1342C300.793 92.1584 299.682 93.2865 299.682 94.6815C299.67 96.0886 300.793 97.241 302.178 97.2531C302.202 97.2531 302.226 97.2531 302.238 97.2531ZM301.7 94.8877H302.214L302.978 96.1614H303.468L302.656 94.8635C303.086 94.815 303.396 94.5724 303.396 94.0508C303.396 93.4685 303.062 93.2138 302.369 93.2138H301.27V96.1614H301.712L301.7 94.8877ZM301.7 94.5117V93.6019H302.298C302.608 93.6019 302.931 93.6626 302.931 94.0386C302.931 94.4874 302.596 94.5238 302.226 94.5238L301.7 94.5117Z" fill="#002856"/>
<rect x="733" y="53" width="184" height="60" fill="white"/>
<path d="M786.63 80.0058L776.246 69.2638C776.079 69.1009 775.858 69.0103 775.628 69.0103C775.398 69.0103 775.177 69.1009 775.009 69.2638L772.969 71.3752L781.312 80.0058C781.394 80.0896 781.459 80.1893 781.503 80.2991C781.547 80.4089 781.57 80.5267 781.57 80.6457C781.57 80.7646 781.547 80.8824 781.503 80.9923C781.459 81.1021 781.394 81.2017 781.312 81.2855L772.734 90.1593L774.774 92.2696C774.942 92.4325 775.163 92.5232 775.393 92.5232C775.623 92.5232 775.844 92.4325 776.011 92.2696L786.631 81.2865C786.789 81.1133 786.876 80.8845 786.876 80.6467C786.876 80.4089 786.789 80.1801 786.631 80.0069L786.63 80.0058Z" fill="#009C9C"/>
<path d="M768.939 70.0438L768.184 69.2638C768.016 69.1009 767.795 69.0103 767.565 69.0103C767.335 69.0103 767.114 69.1009 766.947 69.2638L764.907 71.3752L766.261 72.7758L768.92 75.5276L771.575 72.7758L768.938 70.0448L768.939 70.0438ZM768.685 86.0027L766.031 88.7545L764.676 90.1552L766.716 92.2655C766.883 92.4287 767.105 92.5195 767.335 92.5195C767.565 92.5195 767.786 92.4287 767.954 92.2655L768.704 91.4855L771.362 88.7348L768.685 86.0027Z" fill="#40E3E3"/>
<path d="M773.253 80.0049C773.41 80.1781 773.498 80.407 773.498 80.6447C773.498 80.8825 773.41 81.1113 773.253 81.2845L768.688 86.0018L771.347 88.7535L778.57 81.2804C778.652 81.1966 778.717 81.0969 778.761 80.9871C778.805 80.8773 778.828 80.7595 778.828 80.6406C778.828 80.5217 778.805 80.4039 778.761 80.2941C778.717 80.1843 778.652 80.0846 778.57 80.0008L771.601 72.7925L768.941 75.5442L773.253 80.0039V80.0049Z" fill="#1ABAB8"/>
<path d="M756.317 80.2624L763.54 72.7903L760.881 70.0386L760.123 69.2638C759.955 69.1009 759.734 69.0103 759.504 69.0103C759.274 69.0103 759.053 69.1009 758.886 69.2638L748.258 80.2634C748.176 80.3471 748.111 80.4467 748.067 80.5564C748.023 80.6662 748 80.7839 748 80.9027C748 81.0216 748.023 81.1393 748.067 81.2491C748.111 81.3588 748.176 81.4584 748.258 81.5421L758.642 92.2841C758.809 92.447 759.03 92.5376 759.26 92.5376C759.49 92.5376 759.711 92.447 759.879 92.2841L760.642 91.5041L763.302 88.7534L756.317 81.5431C756.235 81.4593 756.17 81.3596 756.126 81.2498C756.082 81.1399 756.059 81.0222 756.059 80.9033C756.059 80.7843 756.082 80.6666 756.126 80.5568C756.17 80.447 756.235 80.3462 756.317 80.2624Z" fill="#87F0F0"/>
<path d="M764.377 80.2618L767.569 76.9649L764.909 74.2131L763.555 72.8135L756.332 80.2855C756.25 80.3694 756.185 80.4691 756.141 80.5789C756.097 80.6887 756.074 80.8064 756.074 80.9254C756.074 81.0443 756.097 81.1621 756.141 81.2719C756.185 81.3817 756.25 81.4814 756.332 81.5652L763.289 88.7528L764.643 87.3521L767.303 84.6004L764.359 81.56C764.201 81.3868 764.113 81.158 764.113 80.9202C764.113 80.6824 764.201 80.4536 764.359 80.2804" fill="#40E3E3"/>
<path d="M764.374 81.5424L767.317 84.5817L770.505 81.2848C770.587 81.201 770.652 81.1013 770.696 80.9915C770.74 80.8817 770.763 80.7639 770.763 80.645C770.763 80.5261 770.74 80.4083 770.696 80.2985C770.652 80.1887 770.587 80.089 770.505 80.0052L767.565 76.9648L764.374 80.2617C764.217 80.435 764.129 80.6641 764.129 80.9021C764.129 81.1401 764.217 81.3691 764.374 81.5424Z" fill="#17CFCF"/>
<path d="M794.956 77.7264C794.986 76.5108 795.22 75.3098 795.647 74.177C796.048 73.133 796.664 72.1923 797.453 71.4212C798.298 70.6247 799.292 70.0174 800.374 69.6377C801.684 69.1929 803.059 68.9788 804.438 69.0067C805.973 68.955 807.505 69.2033 808.953 69.735C809.992 70.1314 810.949 70.7255 811.775 71.4864C812.408 72.0697 812.91 72.7888 813.246 73.5936C813.49 74.1801 813.651 74.7998 813.725 75.4329C813.739 75.5499 813.724 75.6684 813.683 75.7784C813.642 75.8883 813.576 75.9863 813.49 76.0639C813.323 76.2219 813.103 76.3087 812.876 76.307H810.339C810.141 76.3166 809.946 76.2536 809.788 76.1291C809.666 76.0274 809.566 75.9001 809.494 75.7557C809.388 75.5634 809.278 75.3733 809.164 75.1857C808.932 74.8373 808.646 74.5311 808.316 74.2795C807.853 73.9239 807.342 73.6408 806.799 73.4395C806.044 73.1672 805.247 73.0403 804.447 73.065C803.078 72.9946 801.734 73.4637 800.686 74.3777C800.214 74.8244 799.837 75.3677 799.578 75.9731C799.319 76.5785 799.184 77.233 799.182 77.895C799.137 78.7752 799.116 79.6566 799.119 80.5381C799.119 81.4764 799.119 82.3588 799.182 83.1812C799.241 84.975 799.747 86.2774 800.686 87.0853C801.757 87.9396 803.088 88.3703 804.438 88.2998C805.156 88.3056 805.872 88.2176 806.568 88.0381C807.178 87.8841 807.75 87.5978 808.244 87.1981C808.729 86.7877 809.107 86.2576 809.341 85.6567C809.621 84.9119 809.754 84.1195 809.734 83.3219V83.0457H805.91C805.799 83.0476 805.688 83.0253 805.586 82.9802C805.483 82.9352 805.391 82.8683 805.314 82.7839C805.235 82.705 805.172 82.6101 805.129 82.5049C805.086 82.3998 805.064 82.2867 805.065 82.1726V79.8698C805.068 79.6385 805.158 79.4174 805.316 79.2535C805.473 79.0897 805.687 78.9961 805.91 78.9926H813.133C813.357 78.9961 813.57 79.0897 813.728 79.2535C813.886 79.4174 813.976 79.6385 813.978 79.8698V83.4336C813.991 84.6553 813.79 85.8692 813.382 87.016C812.991 88.0782 812.374 89.0356 811.576 89.8174C810.722 90.6518 809.707 91.2886 808.596 91.6857C805.893 92.5608 802.996 92.5608 800.293 91.6857C799.215 91.3167 798.226 90.7116 797.394 89.9115C796.614 89.1217 796.01 88.1653 795.624 87.1091C795.205 85.9631 794.976 84.7518 794.947 83.5267C794.947 83.116 794.911 82.6629 794.902 82.1674C794.893 81.6729 794.902 81.1588 794.902 80.6405V79.1177C794.902 78.6181 794.929 78.1836 794.947 77.7543M823.631 78.735C823.101 78.7193 822.573 78.8128 822.077 79.0101C821.677 79.1746 821.311 79.4146 820.998 79.7208C820.715 79.9988 820.485 80.3298 820.321 80.6964C820.177 81.0196 820.078 81.3628 820.028 81.7153H827.107C827.062 81.3684 826.983 81.0271 826.872 80.6964C826.755 80.3324 826.562 79.9995 826.307 79.7208C826.017 79.4095 825.664 79.1674 825.274 79.0101C824.749 78.8077 824.192 78.7142 823.631 78.735ZM815.955 83.597C815.947 82.4343 816.127 81.2798 816.488 80.1781C816.817 79.1485 817.338 78.1961 818.023 77.3757C818.698 76.5837 819.525 75.9471 820.452 75.5074C821.446 75.0483 822.524 74.8175 823.612 74.8308C824.699 74.8165 825.777 75.0426 826.772 75.4939C827.706 75.9144 828.545 76.5297 829.237 77.3012C829.916 78.0622 830.444 78.9539 830.79 79.9257C831.158 80.9364 831.345 82.0081 831.341 83.0881V84.5446C831.338 84.7767 831.248 84.9983 831.089 85.1625C830.931 85.3267 830.717 85.4205 830.492 85.4239H820.027C820.017 85.8791 820.117 86.3301 820.321 86.7357C820.521 87.1029 820.795 87.4215 821.125 87.6698C821.472 87.9357 821.864 88.1333 822.28 88.2533C822.722 88.3803 823.177 88.4447 823.635 88.4446C824.185 88.4612 824.735 88.3898 825.265 88.2346C825.635 88.1188 825.985 87.9388 826.298 87.7019C826.474 87.5622 826.663 87.4412 826.863 87.3429C827.053 87.2695 827.256 87.2353 827.459 87.2446H829.964C830.194 87.2477 830.414 87.3408 830.578 87.5064C830.662 87.5828 830.726 87.6784 830.767 87.7856C830.808 87.8927 830.824 88.0083 830.813 88.1229C830.743 88.5464 830.576 88.9465 830.326 89.2898C829.959 89.8381 829.5 90.3119 828.971 90.6915C828.277 91.1908 827.517 91.5838 826.714 91.8584C825.718 92.1948 824.674 92.3529 823.626 92.326C822.543 92.3382 821.468 92.1236 820.466 91.695C819.533 91.2956 818.697 90.6864 818.018 89.9115C817.334 89.101 816.813 88.1579 816.484 87.137C816.117 85.9929 815.937 84.7933 815.951 83.5877M838.846 85.9319C838.816 86.5153 839.001 87.0874 839.365 87.5343C839.708 87.9357 840.349 88.1364 841.293 88.1364H843.203C843.427 88.139 843.64 88.2317 843.799 88.3948C843.957 88.5578 844.048 88.7784 844.051 89.0095V91.1488C844.048 91.3805 843.957 91.6018 843.799 91.7657C843.64 91.9296 843.426 92.0233 843.202 92.027H840.882C838.916 92.027 837.412 91.5346 836.367 90.5508C835.323 89.5681 834.796 88.0608 834.787 86.0301V79.0577H832.701C832.591 79.059 832.481 79.0364 832.379 78.9913C832.278 78.9463 832.186 78.8797 832.11 78.796C832.029 78.7184 831.964 78.6237 831.92 78.5181C831.876 78.4125 831.855 78.2984 831.857 78.1836V76.0412C831.856 75.9267 831.878 75.8131 831.922 75.7079C831.965 75.6026 832.029 75.5079 832.11 75.4298C832.187 75.3469 832.278 75.2809 832.38 75.2359C832.481 75.1909 832.591 75.1678 832.701 75.1681H834.773V69.8819C834.777 69.6511 834.867 69.4308 835.025 69.2676C835.182 69.1044 835.395 69.0112 835.618 69.0077H838.001C838.224 69.0112 838.437 69.1043 838.595 69.2672C838.753 69.4302 838.843 69.6503 838.846 69.8808V75.1681H842.909C843.126 75.1811 843.329 75.2784 843.479 75.4404C843.629 75.6023 843.714 75.817 843.717 76.0412V78.1846C843.714 78.4152 843.624 78.6354 843.467 78.7985C843.309 78.9617 843.096 79.055 842.873 79.0588H838.809L838.846 85.9329V85.9319ZM859.439 83.5639L855.989 74.3219L852.544 83.5639H859.439ZM857.714 69.3295C857.852 69.3192 857.989 69.3383 858.119 69.3857C858.249 69.433 858.368 69.5076 858.468 69.6046C858.67 69.8467 858.823 70.127 858.919 70.4322L866.595 90.9253C866.616 90.9977 866.626 91.0733 866.626 91.1488C866.623 91.3805 866.533 91.6019 866.375 91.7659C866.216 91.9299 866.002 92.0236 865.778 92.027H863.52C863.363 92.0439 863.205 92.0282 863.054 91.9808C862.902 91.9333 862.762 91.8552 862.64 91.7508C862.493 91.5972 862.376 91.4147 862.297 91.2139L860.942 87.6181H851.041L849.686 91.2139C849.608 91.415 849.491 91.5979 849.343 91.7519C849.222 91.8563 849.082 91.9345 848.93 91.9818C848.779 92.029 848.62 92.0444 848.463 92.027H846.205C845.982 92.0222 845.769 91.928 845.612 91.7642C845.455 91.6004 845.365 91.3797 845.361 91.1488C845.36 91.0726 845.37 90.9967 845.393 90.9243L853.068 70.4312C853.164 70.127 853.318 69.8467 853.52 69.6046C853.621 69.5071 853.74 69.4322 853.869 69.3848C853.999 69.3374 854.137 69.3186 854.274 69.3295H857.714ZM880.031 84.5033C880.094 83.9009 880.094 83.2932 880.031 82.6908C879.909 81.2901 879.489 80.2722 878.78 79.6598C878.051 79.0338 877.128 78.702 876.18 78.7257C875.236 78.6947 874.314 79.0276 873.593 79.6598C873.231 80.0035 872.937 80.4182 872.73 80.8798C872.523 81.3415 872.407 81.841 872.387 82.3495C872.339 82.7585 872.318 83.1705 872.324 83.5826C872.318 83.9953 872.339 84.407 872.387 84.8157C872.442 85.8295 872.874 86.7822 873.593 87.4743C874.305 88.1268 875.23 88.4739 876.18 88.4446C877.128 88.4684 878.051 88.1366 878.78 87.5105C879.489 86.8991 879.909 85.8864 880.031 84.4795V84.5033ZM877.128 92.3488C876.544 92.3555 875.961 92.2912 875.39 92.1574C874.925 92.05 874.471 91.8936 874.035 91.6908C873.689 91.5106 873.364 91.2913 873.064 91.037C872.83 90.8453 872.612 90.6342 872.41 90.406V97.3091C872.407 97.5409 872.316 97.7621 872.158 97.926C871.999 98.0899 871.785 98.1837 871.561 98.1874H869.182C868.958 98.1842 868.744 98.0906 868.586 97.9266C868.427 97.7626 868.337 97.541 868.333 97.3091V76.0401C868.339 75.8094 868.43 75.5898 868.588 75.4271C868.747 75.2644 868.959 75.1712 869.182 75.167H871.561C871.785 75.1707 871.998 75.2637 872.156 75.4266C872.314 75.5894 872.406 75.8093 872.41 76.0401V76.7881C872.872 76.2588 873.431 75.8289 874.053 75.5229C874.489 75.3198 874.943 75.1631 875.408 75.0553C875.979 74.9215 876.562 74.8573 877.146 74.8639C878.125 74.8492 879.095 75.0646 879.981 75.4939C880.805 75.8974 881.541 76.4715 882.143 77.1801C882.749 77.8991 883.228 78.7227 883.557 79.6133C883.9 80.5298 884.096 81.4981 884.134 82.4808C884.157 82.8026 884.166 83.1812 884.166 83.6157C884.166 84.0501 884.166 84.4288 884.134 84.7505C884.096 85.7327 883.901 86.7016 883.557 87.6181C883.228 88.5086 882.749 89.3322 882.143 90.0512C881.541 90.7597 880.806 91.3335 879.981 91.7374C879.088 92.1631 878.112 92.3722 877.128 92.3488ZM897.747 84.5033C897.81 83.9009 897.81 83.2932 897.747 82.6908C897.621 81.2901 897.206 80.2722 896.492 79.6598C895.764 79.0323 894.84 78.7003 893.892 78.7257C892.948 78.6949 892.026 79.0278 891.305 79.6598C890.943 80.0036 890.649 80.4182 890.442 80.8799C890.235 81.3415 890.119 81.841 890.099 82.3495C890.054 82.7588 890.033 83.1706 890.036 83.5826C890.032 83.9953 890.053 84.407 890.099 84.8157C890.154 85.8295 890.586 86.7822 891.305 87.4743C892.017 88.1268 892.942 88.4739 893.892 88.4446C894.84 88.4701 895.764 88.1381 896.492 87.5105C897.206 86.8991 897.621 85.8864 897.747 84.4795V84.5033ZM894.831 92.326C894.247 92.3324 893.664 92.2682 893.093 92.1346C892.628 92.0262 892.174 91.8695 891.738 91.667C891.388 91.4941 891.058 91.281 890.754 91.0319C890.519 90.8398 890.299 90.6288 890.095 90.4008V97.3091C890.096 97.4243 890.074 97.5383 890.03 97.6443C889.987 97.7503 889.923 97.846 889.842 97.9257C889.766 98.0086 889.675 98.0745 889.573 98.1195C889.471 98.1645 889.362 98.1876 889.251 98.1874H886.867C886.644 98.1834 886.431 98.0894 886.273 97.9254C886.116 97.7614 886.026 97.5403 886.023 97.3091V76.0401C886.026 75.8094 886.116 75.5889 886.274 75.4257C886.431 75.2626 886.644 75.1697 886.867 75.167H889.251C889.474 75.1726 889.685 75.2663 889.842 75.4289C889.999 75.5914 890.09 75.8103 890.095 76.0401V76.7881C890.298 76.5605 890.519 76.3484 890.754 76.157C891.058 75.9088 891.388 75.6946 891.738 75.5219C892.174 75.3198 892.628 75.1635 893.093 75.0553C893.664 74.9214 894.247 74.8569 894.831 74.8629C895.812 74.8485 896.783 75.0643 897.671 75.4939C898.494 75.8998 899.23 76.4733 899.833 77.1801C900.437 77.8994 900.914 78.723 901.242 79.6133C901.586 80.5298 901.781 81.4981 901.82 82.4808C901.842 82.8026 901.851 83.1812 901.851 83.6157C901.851 84.0501 901.851 84.4288 901.82 84.7505C901.782 85.7327 901.586 86.7016 901.242 87.6181C900.914 88.5084 900.437 89.332 899.833 90.0512C899.23 90.758 898.494 91.3315 897.671 91.7374C896.783 92.1671 895.812 92.3828 894.831 92.3684" fill="#424A52"/>
<path d="M344.014 126.006H345.709L342.209 136H340.486L337 126.006H338.682L340.767 132.22C340.876 132.516 340.992 132.899 341.115 133.368C341.238 133.833 341.318 134.179 341.354 134.407C341.414 134.061 341.505 133.66 341.628 133.204C341.751 132.748 341.851 132.411 341.929 132.192L344.014 126.006ZM348.184 136H346.577V128.439H348.184V136ZM346.482 126.437C346.482 126.149 346.559 125.928 346.714 125.773C346.874 125.618 347.099 125.541 347.391 125.541C347.673 125.541 347.892 125.618 348.047 125.773C348.207 125.928 348.286 126.149 348.286 126.437C348.286 126.71 348.207 126.926 348.047 127.086C347.892 127.241 347.673 127.318 347.391 127.318C347.099 127.318 346.874 127.241 346.714 127.086C346.559 126.926 346.482 126.71 346.482 126.437ZM353.509 136.137C352.334 136.137 351.413 135.795 350.748 135.111C350.087 134.423 349.756 133.478 349.756 132.274C349.756 131.039 350.064 130.069 350.679 129.362C351.294 128.656 352.14 128.303 353.215 128.303C354.213 128.303 355.002 128.606 355.581 129.212C356.159 129.818 356.449 130.652 356.449 131.714V132.582H351.411C351.433 133.316 351.632 133.881 352.005 134.277C352.379 134.669 352.905 134.865 353.585 134.865C354.031 134.865 354.446 134.824 354.829 134.742C355.216 134.656 355.631 134.514 356.073 134.318V135.624C355.681 135.811 355.284 135.943 354.883 136.021C354.482 136.098 354.024 136.137 353.509 136.137ZM353.215 129.52C352.705 129.52 352.295 129.681 351.985 130.005C351.68 130.328 351.497 130.8 351.438 131.42H354.87C354.861 130.796 354.71 130.324 354.419 130.005C354.127 129.681 353.726 129.52 353.215 129.52ZM364.194 136L363.217 132.473C363.098 132.099 362.884 131.231 362.574 129.868H362.513C362.248 131.099 362.039 131.971 361.884 132.486L360.879 136H359.101L356.982 128.439H358.623L359.587 132.165C359.806 133.086 359.96 133.874 360.052 134.53H360.093C360.138 134.198 360.207 133.817 360.298 133.389C360.393 132.956 360.475 132.632 360.544 132.418L361.692 128.439H363.456L364.57 132.418C364.639 132.641 364.723 132.983 364.823 133.443C364.928 133.904 364.989 134.261 365.008 134.517H365.062C365.131 133.956 365.29 133.172 365.541 132.165L366.518 128.439H368.132L365.999 136H364.194ZM374.319 130.654H375.454C376.215 130.654 376.766 130.513 377.108 130.23C377.45 129.948 377.621 129.529 377.621 128.973C377.621 128.408 377.436 128.002 377.067 127.756C376.698 127.51 376.142 127.387 375.399 127.387H374.319V130.654ZM374.319 132.008V136H372.685V126.006H375.508C376.798 126.006 377.753 126.247 378.372 126.73C378.992 127.214 379.302 127.943 379.302 128.918C379.302 130.162 378.655 131.049 377.361 131.577L380.184 136H378.325L375.932 132.008H374.319ZM384.491 136.137C383.315 136.137 382.395 135.795 381.729 135.111C381.068 134.423 380.738 133.478 380.738 132.274C380.738 131.039 381.046 130.069 381.661 129.362C382.276 128.656 383.121 128.303 384.197 128.303C385.195 128.303 385.983 128.606 386.562 129.212C387.141 129.818 387.43 130.652 387.43 131.714V132.582H382.392C382.415 133.316 382.613 133.881 382.987 134.277C383.361 134.669 383.887 134.865 384.566 134.865C385.013 134.865 385.427 134.824 385.81 134.742C386.198 134.656 386.612 134.514 387.054 134.318V135.624C386.662 135.811 386.266 135.943 385.865 136.021C385.464 136.098 385.006 136.137 384.491 136.137ZM384.197 129.52C383.687 129.52 383.276 129.681 382.966 130.005C382.661 130.328 382.479 130.8 382.42 131.42H385.851C385.842 130.796 385.692 130.324 385.4 130.005C385.108 129.681 384.707 129.52 384.197 129.52ZM392.811 136.137C391.853 136.137 391.111 135.793 390.582 135.104H390.486C390.55 135.743 390.582 136.13 390.582 136.267V139.363H388.976V128.439H390.274C390.311 128.581 390.386 128.918 390.5 129.451H390.582C391.083 128.686 391.835 128.303 392.838 128.303C393.781 128.303 394.515 128.645 395.039 129.328C395.568 130.012 395.832 130.971 395.832 132.206C395.832 133.441 395.563 134.405 395.025 135.098C394.492 135.79 393.754 136.137 392.811 136.137ZM392.421 129.615C391.783 129.615 391.316 129.802 391.019 130.176C390.728 130.549 390.582 131.146 390.582 131.967V132.206C390.582 133.127 390.728 133.794 391.019 134.209C391.311 134.619 391.787 134.824 392.448 134.824C393.004 134.824 393.433 134.596 393.733 134.141C394.034 133.685 394.185 133.035 394.185 132.192C394.185 131.345 394.034 130.704 393.733 130.271C393.437 129.834 393 129.615 392.421 129.615ZM404.124 132.206C404.124 133.441 403.808 134.405 403.174 135.098C402.541 135.79 401.659 136.137 400.529 136.137C399.822 136.137 399.198 135.977 398.656 135.658C398.113 135.339 397.696 134.881 397.405 134.284C397.113 133.687 396.967 132.994 396.967 132.206C396.967 130.98 397.281 130.023 397.91 129.335C398.539 128.647 399.426 128.303 400.57 128.303C401.663 128.303 402.529 128.656 403.167 129.362C403.805 130.064 404.124 131.012 404.124 132.206ZM398.621 132.206C398.621 133.951 399.266 134.824 400.556 134.824C401.832 134.824 402.47 133.951 402.47 132.206C402.47 130.479 401.827 129.615 400.542 129.615C399.868 129.615 399.378 129.839 399.072 130.285C398.772 130.732 398.621 131.372 398.621 132.206ZM409.532 128.303C409.855 128.303 410.122 128.326 410.332 128.371L410.174 129.868C409.946 129.813 409.709 129.786 409.463 129.786C408.821 129.786 408.299 129.996 407.898 130.415C407.501 130.834 407.303 131.379 407.303 132.049V136H405.697V128.439H406.955L407.167 129.772H407.249C407.499 129.321 407.825 128.964 408.226 128.699C408.632 128.435 409.067 128.303 409.532 128.303ZM414.276 134.838C414.668 134.838 415.06 134.776 415.452 134.653V135.863C415.274 135.941 415.044 136.005 414.762 136.055C414.484 136.109 414.194 136.137 413.893 136.137C412.371 136.137 411.61 135.335 411.61 133.73V129.656H410.578V128.945L411.685 128.357L412.232 126.758H413.223V128.439H415.377V129.656H413.223V133.703C413.223 134.09 413.319 134.378 413.511 134.564C413.707 134.747 413.962 134.838 414.276 134.838Z" fill="white"/>
<path d="M337 137.401H415.814V138.099H337V137.401Z" fill="white"/>
<a href="https://www.gartner.com/en/research/magic-quadrant">
<rect fill="black" fill-opacity="0" y="0.467285" width="78.8143" height="19.0654"/>
</a>
</svg>
