<svg width="457" height="197" viewBox="0 0 457 197" fill="none" xmlns="http://www.w3.org/2000/svg">
<path d="M472.53 153.82H345.75C344.66 153.818 343.616 153.384 342.845 152.614C342.075 151.844 341.642 150.8 341.64 149.71V-34.9369C341.642 -36.0263 342.075 -37.0706 342.845 -37.841C343.616 -38.6113 344.66 -39.0449 345.75 -39.0468H472.53C473.619 -39.0449 474.663 -38.6113 475.434 -37.841C476.204 -37.0706 476.638 -36.0263 476.639 -34.9369V149.71C476.638 150.8 476.204 151.844 475.434 152.614C474.663 153.384 473.619 153.818 472.53 153.82ZM345.75 -38.8714C344.707 -38.8696 343.707 -38.4544 342.969 -37.717C342.232 -36.9795 341.817 -35.9798 341.815 -34.9369V149.71C341.817 150.753 342.232 151.753 342.969 152.49C343.707 153.228 344.707 153.643 345.75 153.645H472.53C473.573 153.643 474.572 153.228 475.31 152.49C476.047 151.753 476.462 150.753 476.464 149.71V-34.9369C476.462 -35.9798 476.047 -36.9795 475.31 -37.717C474.572 -38.4544 473.573 -38.8696 472.53 -38.8714H345.75Z" fill="#E1E1E1"/>
<path d="M326.337 153.82H199.571C198.481 153.818 197.437 153.384 196.667 152.614C195.897 151.844 195.463 150.8 195.461 149.71V-34.9369C195.463 -36.0263 195.897 -37.0706 196.667 -37.841C197.437 -38.6113 198.481 -39.0449 199.571 -39.0468H326.337C327.426 -39.0449 328.471 -38.6113 329.241 -37.841C330.011 -37.0706 330.445 -36.0263 330.447 -34.9369V149.71C330.445 150.8 330.011 151.844 329.241 152.614C328.471 153.384 327.426 153.818 326.337 153.82ZM199.571 -38.8714C198.528 -38.8696 197.528 -38.4544 196.791 -37.717C196.053 -36.9795 195.638 -35.9798 195.636 -34.9369V149.71C195.638 150.753 196.053 151.753 196.791 152.49C197.528 153.228 198.528 153.643 199.571 153.645H326.337C327.38 153.643 328.379 153.228 329.117 152.49C329.854 151.753 330.27 150.753 330.271 149.71V-34.9369C330.27 -35.9798 329.854 -36.9795 329.117 -37.717C328.379 -38.4544 327.38 -38.8696 326.337 -38.8714H199.571Z" fill="#E1E1E1"/>
<path d="M180.257 153.82H53.4908C52.4014 153.818 51.3571 153.384 50.5867 152.614C49.8164 151.844 49.3828 150.8 49.381 149.71V-34.9369C49.3828 -36.0263 49.8164 -37.0706 50.5867 -37.841C51.3571 -38.6113 52.4014 -39.0449 53.4908 -39.0468H180.257C181.346 -39.0449 182.39 -38.6113 183.161 -37.841C183.931 -37.0706 184.365 -36.0263 184.367 -34.9369V149.71C184.365 150.8 183.931 151.844 183.161 152.614C182.39 153.384 181.346 153.818 180.257 153.82ZM53.4908 -38.8714C52.9741 -38.8714 52.4625 -38.7696 51.9851 -38.5719C51.5078 -38.3742 51.0741 -38.0844 50.7087 -37.719C50.3434 -37.3537 50.0535 -36.9199 49.8558 -36.4426C49.6581 -35.9652 49.5563 -35.4536 49.5563 -34.9369V149.71C49.5563 150.227 49.6581 150.738 49.8558 151.216C50.0535 151.693 50.3434 152.127 50.7087 152.492C51.0741 152.858 51.5078 153.147 51.9851 153.345C52.4625 153.543 52.9741 153.645 53.4908 153.645H180.257C181.3 153.643 182.299 153.228 183.037 152.49C183.774 151.753 184.189 150.753 184.191 149.71V-34.9369C184.189 -35.9798 183.774 -36.9795 183.037 -37.717C182.299 -38.4544 181.3 -38.8696 180.257 -38.8714H53.4908Z" fill="#E1E1E1"/>
<path d="M526 196.643H0V196.727H526V196.643Z" fill="#E1E1E1"/>
<path d="M282.173 -31.9703C279.886 -31.379 277.846 -30.0776 276.345 -28.2532C273.736 -26.1913 272.25 -26.4087 271.611 -26.6963L266.043 -48.3745C265.84 -49.1629 265.332 -49.8385 264.631 -50.2527C263.93 -50.667 263.093 -50.786 262.305 -50.5837L202.074 -35.1193C201.286 -34.9162 200.61 -34.4084 200.196 -33.7075C199.782 -33.0065 199.663 -32.1698 199.865 -31.3812L205.476 -9.57672C203.975 -7.83741 200.566 -9.00864 200.566 -9.00864C198.632 -9.72266 196.539 -9.89 194.516 -9.49229C192.493 -9.09457 190.618 -8.1472 189.098 -6.75414C187.578 -5.36107 186.472 -3.57616 185.899 -1.59537C185.327 0.385426 185.312 2.48555 185.855 4.47448C186.398 6.4634 187.479 8.26422 188.978 9.6793C190.478 11.0944 192.338 12.069 194.355 12.4961C196.372 12.9233 198.468 12.7865 200.412 12.1008C202.357 11.415 204.075 10.2068 205.377 8.60885C207.538 6.89759 208.926 6.75031 209.705 6.91863L215.315 28.8143C215.413 29.2087 215.587 29.5799 215.829 29.9064C216.071 30.2328 216.375 30.5081 216.724 30.7161C217.073 30.9242 217.46 31.061 217.862 31.1186C218.265 31.1761 218.674 31.1533 219.067 31.0515L279.298 15.6222C280.086 15.4191 280.762 14.9113 281.176 14.2104C281.59 13.5094 281.71 12.6727 281.507 11.8841L275.988 -9.62582C277.292 -11.9122 281.178 -10.5726 281.178 -10.5726C282.825 -9.97869 284.589 -9.77977 286.327 -9.9919C288.065 -10.204 289.729 -10.8212 291.185 -11.7939C292.641 -12.7666 293.849 -14.0675 294.71 -15.5919C295.572 -17.1164 296.063 -18.8219 296.146 -20.571C296.228 -22.3202 295.898 -24.0642 295.183 -25.6627C294.468 -27.2612 293.388 -28.6696 292.03 -29.7744C290.671 -30.8793 289.072 -31.6497 287.361 -32.0238C285.651 -32.3979 283.876 -32.3651 282.18 -31.9282L282.173 -31.9703Z" fill="#ECECEC"/>
<path d="M205.385 -35.982C205.034 -35.8908 206.626 -26.556 218.998 -24.7606C231.37 -22.9652 260.98 -3.90999 257.122 21.2538L265.314 19.1498C264.928 19.248 264.963 -13.6445 232.386 -23.1405C199.81 -32.6366 226.776 -41.5015 226.776 -41.5015L205.385 -35.982Z" fill="#F0F0F0"/>
<path d="M344.831 114.952C346.523 116.989 348.82 118.436 351.388 119.083C354.727 120.731 355.218 122.344 355.232 123.137L335.917 139.141C335.214 139.725 334.771 140.563 334.685 141.473C334.6 142.383 334.879 143.29 335.461 143.994L379.954 197.681C380.537 198.384 381.376 198.827 382.286 198.913C383.196 198.998 384.102 198.719 384.807 198.137L404.241 182.006C406.724 182.708 407.158 186.719 407.158 186.719C407.366 189.011 408.201 191.201 409.57 193.05C410.939 194.9 412.79 196.337 414.921 197.205C417.052 198.073 419.38 198.338 421.652 197.972C423.923 197.605 426.05 196.621 427.8 195.127C429.55 193.634 430.855 191.687 431.574 189.501C432.292 187.315 432.395 184.974 431.872 182.733C431.349 180.493 430.221 178.439 428.609 176.797C426.997 175.155 424.965 173.987 422.735 173.422C419.972 172.02 419.158 170.715 418.955 169.845L438.466 153.673C439.169 153.089 439.612 152.25 439.697 151.34C439.783 150.43 439.504 149.524 438.922 148.819L400.924 102.987L394.429 95.1464C393.845 94.4432 393.007 94.0003 392.097 93.9148C391.187 93.8293 390.28 94.1083 389.576 94.6905L370.408 110.583C367.463 110.351 366.965 105.779 366.965 105.779C366.74 103.279 365.762 100.907 364.16 98.9756C363.115 97.6894 361.825 96.6231 360.366 95.8383C358.906 95.0535 357.306 94.5657 355.656 94.4032C354.007 94.2408 352.342 94.4068 350.757 94.8917C349.173 95.3766 347.7 96.1708 346.424 97.2284C345.148 98.2859 344.095 99.5858 343.324 101.053C342.554 102.52 342.082 104.126 341.936 105.776C341.79 107.427 341.972 109.09 342.473 110.67C342.973 112.25 343.782 113.715 344.852 114.98L344.831 114.952Z" fill="#ECECEC"/>
<path d="M398.588 100.126C398.588 100.126 390.172 110.085 388.664 118.36C387.156 126.636 388.664 161.422 380.465 168.113C372.267 174.804 362.167 176.227 362.167 176.227L369.244 183.143C369.244 183.143 384.996 175.267 390.824 165.336C396.652 155.405 387.373 126.061 393.629 120.654C399.885 115.246 410.012 113.907 410.012 113.907L398.588 100.126Z" fill="#F5F5F5"/>
<path d="M102.928 189.553C104.476 189.243 105.887 188.453 106.961 187.295C108.896 185.892 109.892 186.243 110.257 186.474L113.139 201.097C113.244 201.632 113.558 202.103 114.01 202.406C114.463 202.71 115.017 202.822 115.552 202.717L156.355 194.666C156.62 194.614 156.872 194.51 157.096 194.36C157.321 194.211 157.513 194.018 157.663 193.794C157.813 193.57 157.917 193.319 157.97 193.054C158.022 192.79 158.022 192.517 157.969 192.253L155.079 177.63C154.742 177.406 153.747 177.027 151.748 178.43C150.82 179.44 149.632 180.176 148.314 180.557C146.997 180.938 145.599 180.948 144.276 180.588C142.952 180.228 141.753 179.51 140.81 178.514C139.867 177.518 139.216 176.281 138.929 174.94C138.642 173.598 138.729 172.204 139.182 170.909C139.634 169.614 140.434 168.468 141.494 167.597C142.554 166.727 143.833 166.164 145.192 165.972C146.55 165.78 147.935 165.965 149.195 166.507C149.195 166.507 151.867 167.601 152.758 165.946L149.917 151.428C149.811 150.893 149.496 150.422 149.042 150.118C148.589 149.815 148.033 149.703 147.498 149.808L129.887 153.315C128.218 152.424 129.319 149.731 129.319 149.731C129.857 148.47 130.037 147.086 129.842 145.729C129.646 144.372 129.082 143.095 128.21 142.037C127.338 140.98 126.192 140.182 124.898 139.731C123.603 139.279 122.21 139.193 120.869 139.479C119.529 139.766 118.293 140.416 117.297 141.357C116.3 142.298 115.581 143.495 115.219 144.817C114.856 146.139 114.863 147.535 115.24 148.853C115.617 150.171 116.348 151.36 117.354 152.291C118.757 154.311 118.371 155.307 118.14 155.629L106.701 157.888C106.166 157.993 105.695 158.306 105.391 158.758C105.088 159.211 104.976 159.765 105.081 160.3L107.942 174.79C107.031 176.403 104.394 175.323 104.394 175.323C103.316 174.866 102.145 174.668 100.977 174.746C99.8087 174.823 98.6749 175.174 97.6667 175.769C96.6586 176.365 95.8042 177.189 95.1724 178.175C94.5406 179.161 94.149 180.281 94.029 181.446C93.909 182.61 94.064 183.787 94.4816 184.881C94.8992 185.975 95.5676 186.956 96.4332 187.744C97.2988 188.533 98.3373 189.107 99.4653 189.421C100.593 189.736 101.779 189.781 102.928 189.553Z" fill="#F0F0F0"/>
<path d="M133.401 152.585C133.401 152.585 134.551 161.829 129.354 168.576C124.157 175.323 114.163 196.152 117.474 202.31L121.801 201.454C121.801 201.454 117.137 196.103 123.596 183.177C130.056 170.252 139.397 164.305 138.107 151.681L133.401 152.585Z" fill="#F5F5F5"/>
<path d="M453.371 13.3706C452.436 12.6807 451.307 12.305 450.145 12.2976C448.441 11.9188 448.125 11.2175 448.041 10.8949L454.556 2.09316C454.793 1.77198 454.892 1.37031 454.833 0.976006C454.774 0.581707 454.561 0.226883 454.241 -0.0108433L429.694 -18.1824C429.536 -18.3003 429.355 -18.3856 429.163 -18.4336C428.971 -18.4815 428.772 -18.4911 428.577 -18.4618C428.381 -18.4325 428.193 -18.3648 428.024 -18.2627C427.855 -18.1606 427.707 -18.026 427.59 -17.8668L421.082 -9.07908C421.131 -8.78452 421.411 -8.05513 423.186 -7.67641C424.192 -7.66905 425.176 -7.38548 426.032 -6.85668C426.888 -6.32788 427.582 -5.57417 428.039 -4.67779C428.495 -3.78141 428.697 -2.7768 428.622 -1.77364C428.546 -0.770475 428.197 0.192688 427.611 1.01077C427.026 1.82884 426.227 2.47038 425.302 2.86535C424.376 3.26033 423.36 3.39357 422.365 3.25052C421.369 3.10748 420.432 2.69365 419.655 2.0542C418.878 1.41476 418.292 0.574272 417.961 -0.375528C417.961 -0.375528 417.26 -2.36031 415.857 -2.03069L409.412 6.6939C409.175 7.01508 409.076 7.41675 409.135 7.81105C409.194 8.20535 409.407 8.56017 409.727 8.7979L420.324 16.6458C420.668 17.9924 418.662 18.7498 418.662 18.7498C417.711 19.0814 416.869 19.6679 416.228 20.4453C415.588 21.2228 415.173 22.1613 415.029 23.1584C414.886 24.1556 415.019 25.1729 415.414 26.0995C415.81 27.0261 416.452 27.8263 417.271 28.4128C418.09 28.9992 419.055 29.3493 420.059 29.4249C421.064 29.5005 422.07 29.2987 422.967 28.8415C423.865 28.3842 424.62 27.6892 425.149 26.8321C425.679 25.9751 425.963 24.9892 425.97 23.9818C426.363 22.2074 427.106 21.9409 427.373 21.8778L434.26 26.9694C434.581 27.2057 434.983 27.3051 435.377 27.246C435.771 27.1869 436.126 26.9739 436.364 26.6539L442.816 17.9363C444.142 17.6347 444.864 19.5985 444.864 19.5985C445.145 20.414 445.614 21.1518 446.234 21.7522C446.853 22.3525 447.606 22.7985 448.43 23.0539C449.254 23.3094 450.126 23.3671 450.977 23.2224C451.827 23.0777 452.631 22.7347 453.325 22.2212C454.018 21.7077 454.58 21.0381 454.966 20.2667C455.352 19.4953 455.551 18.6438 455.547 17.7811C455.543 16.9185 455.335 16.069 454.941 15.3015C454.547 14.534 453.978 13.8701 453.28 13.3636L453.371 13.3706Z" fill="#F0F0F0"/>
<path d="M415.373 12.9639C415.373 12.9639 433.608 15.11 435.894 7.88628C438.18 0.662551 428.881 -1.70094 437.577 -12.3612L440.039 -10.5377C440.039 -10.5377 435.031 -11.4635 435.894 -4.22573C436.757 3.01202 441.505 6.58179 437.339 11.428C433.173 16.2742 420.352 16.667 420.352 16.667L415.373 12.9639Z" fill="#F5F5F5"/>
<path d="M110.889 53.4309C109.475 51.7049 107.546 50.4762 105.384 49.9243C102.396 48.4375 102.122 46.9927 102.165 46.4176L118.295 33.0432C118.886 32.5536 119.259 31.8496 119.331 31.0856C119.403 30.3216 119.17 29.5602 118.681 28.9684L81.398 -16.1133C80.9085 -16.7042 80.2045 -17.0768 79.4405 -17.1491C78.6765 -17.2214 77.915 -16.9876 77.3233 -16.499L61.1926 -3.17366C61.1295 -2.60558 61.3259 -1.11877 64.4048 0.403124C66.2677 0.883139 67.9634 1.86484 69.3074 3.24142C70.6513 4.61799 71.592 6.33673 72.0272 8.2107C72.4624 10.0847 72.3754 12.0421 71.7756 13.8701C71.1759 15.698 70.0863 17.3265 68.6255 18.5784C67.1648 19.8303 65.3886 20.6576 63.4904 20.9704C61.5921 21.2832 59.6445 21.0695 57.8592 20.3525C56.074 19.6355 54.5196 18.4427 53.365 16.9039C52.2104 15.365 51.5 13.539 51.3109 11.6245C51.3109 11.6245 50.869 7.59179 48.218 7.59179L32.2416 20.819C31.6507 21.3085 31.2781 22.0126 31.2058 22.7765C31.1335 23.5405 31.3673 24.3019 31.8558 24.8937L47.9865 44.3557C47.9865 47.0208 43.9398 47.4556 43.9398 47.4556C42.0253 47.6447 40.1993 48.3552 38.6605 49.5097C37.1216 50.6643 35.9288 52.2187 35.2118 54.004C34.4948 55.7892 34.2811 57.7369 34.5939 59.6351C34.9067 61.5334 35.734 63.3095 36.9859 64.7703C38.2378 66.231 39.8663 67.3206 41.6942 67.9204C43.5222 68.5201 45.4796 68.6071 47.3536 68.1719C49.2276 67.7368 50.9463 66.796 52.3229 65.4521C53.6995 64.1082 54.6812 62.4125 55.1612 60.5495C56.7041 57.4356 58.205 57.2743 58.759 57.3374L69.2229 69.9614C69.7125 70.5523 70.4165 70.9249 71.1805 70.9972C71.9444 71.0695 72.7059 70.8357 73.2977 70.3471L89.3091 57.0919C91.9111 57.141 92.3458 61.1316 92.3458 61.1316C92.5067 62.7671 93.0485 64.3422 93.9277 65.7305C94.807 67.1189 95.9994 68.282 97.4092 69.1266C98.8189 69.9711 100.407 70.4736 102.046 70.5938C103.685 70.714 105.329 70.4485 106.847 69.8187C108.365 69.1889 109.714 68.2121 110.787 66.9669C111.859 65.7216 112.625 64.2425 113.023 62.6479C113.42 61.0534 113.439 59.3878 113.077 57.7848C112.715 56.1818 111.983 54.6859 110.938 53.4169L110.889 53.4309Z" fill="#E7E7E7"/>
<path d="M69.3279 -9.87827C69.3279 -9.87827 88.327 0.711851 88.32 10.5796C88.313 20.4474 59.9721 49.9875 73.2483 70.3613L79.2938 65.4519C79.2938 65.4519 70.3027 64.0493 73.9286 50.6187C77.5545 37.1882 93.2784 13.5533 92.1984 4.5762C91.1183 -4.40087 77.3231 -16.5199 77.3231 -16.5199L69.3279 -9.87827Z" fill="#ECECEC"/>
<path d="M30.2983 72.1987L31.5186 77.4657L36.7786 78.6861L31.5186 79.8994L30.2983 85.1664L29.085 79.8994L23.8179 78.6861L29.085 77.4657L30.2983 72.1987Z" fill="#E7E7E7"/>
<path d="M290.942 156.162L291.665 159.283L294.793 160.006L291.665 160.728L290.942 163.856L290.22 160.728L287.092 160.006L290.22 159.283L290.942 156.162Z" fill="#E7E7E7"/>
<path d="M197.236 178.577L197.958 181.698L201.086 182.42L197.958 183.142L197.236 186.27L196.514 183.142L193.393 182.42L196.514 181.698L197.236 178.577Z" fill="#E7E7E7"/>
<path d="M29.5394 160.005L30.2618 163.133L33.3897 163.856L30.2618 164.578L29.5394 167.706L28.817 164.578L25.6891 163.856L28.817 163.133L29.5394 160.005Z" fill="#E7E7E7"/>
<path d="M186.387 23.0774L187.11 26.2053L190.238 26.9277L187.11 27.6501L186.387 30.778L185.672 27.6501L182.544 26.9277L185.672 26.2053L186.387 23.0774Z" fill="#E7E7E7"/>
<path d="M382.114 28.0637L382.836 31.1917L385.964 31.907L382.836 32.6294L382.114 35.7573L381.392 32.6294L378.271 31.907L381.392 31.1917L382.114 28.0637Z" fill="#E7E7E7"/>
<path d="M280.1 190.521C279.229 189.874 278.175 189.523 277.091 189.518C275.506 189.167 275.211 188.515 275.162 188.22L281.236 180.015C281.347 179.866 281.427 179.697 281.472 179.518C281.517 179.338 281.527 179.151 281.499 178.968C281.472 178.785 281.408 178.609 281.313 178.45C281.217 178.291 281.091 178.153 280.941 178.044L258.036 161.093C257.887 160.982 257.718 160.901 257.539 160.856C257.359 160.811 257.172 160.802 256.989 160.829C256.806 160.857 256.63 160.92 256.471 161.016C256.312 161.112 256.174 161.238 256.065 161.387L249.998 169.586C250.04 169.859 250.307 170.54 251.941 170.897C252.877 170.912 253.79 171.182 254.583 171.68C255.375 172.177 256.016 172.882 256.437 173.718C256.857 174.554 257.04 175.489 256.965 176.422C256.891 177.355 256.563 178.249 256.016 179.008C255.469 179.768 254.725 180.362 253.864 180.728C253.003 181.094 252.058 181.217 251.132 181.084C250.206 180.95 249.334 180.566 248.611 179.972C247.888 179.378 247.342 178.597 247.032 177.714C247.032 177.714 246.33 175.856 245.096 176.164L239.086 184.286C238.975 184.434 238.894 184.603 238.849 184.783C238.804 184.962 238.795 185.149 238.822 185.332C238.85 185.516 238.913 185.692 239.009 185.85C239.105 186.009 239.231 186.147 239.38 186.256L249.269 193.571C249.592 194.827 247.719 195.507 247.719 195.507C246.834 195.816 246.05 196.362 245.454 197.086C244.857 197.81 244.471 198.683 244.336 199.611C244.201 200.539 244.324 201.486 244.69 202.35C245.057 203.213 245.653 203.959 246.414 204.507C247.175 205.055 248.071 205.384 249.006 205.458C249.941 205.532 250.878 205.348 251.716 204.926C252.553 204.504 253.259 203.86 253.756 203.065C254.254 202.27 254.523 201.354 254.536 200.416C254.901 198.768 255.595 198.516 255.869 198.481L262.286 203.229C262.434 203.34 262.603 203.42 262.783 203.465C262.962 203.51 263.149 203.52 263.332 203.492C263.516 203.465 263.692 203.401 263.85 203.306C264.009 203.21 264.147 203.084 264.257 202.934L270.274 194.799C271.515 194.525 272.182 196.356 272.182 196.356C272.447 197.113 272.886 197.797 273.463 198.354C274.041 198.91 274.741 199.323 275.508 199.56C276.274 199.797 277.086 199.85 277.876 199.716C278.667 199.582 279.416 199.265 280.062 198.789C280.707 198.313 281.232 197.692 281.595 196.976C281.957 196.261 282.146 195.47 282.147 194.668C282.148 193.865 281.961 193.074 281.6 192.358C281.24 191.641 280.716 191.019 280.072 190.542L280.1 190.521Z" fill="#E7E7E7"/>
<path d="M241.512 187.814C241.512 187.814 241.891 183.669 251.436 185.429C260.981 187.189 269.972 185.247 270.618 181.263C271.263 177.28 266.543 167.391 266.543 167.391L274.482 173.261C274.482 173.261 277.94 180.611 272.75 184.223C267.56 187.835 253.849 185.941 249.606 187.814C245.363 189.686 246.702 191.657 246.702 191.657L241.092 188.024" fill="#ECECEC"/>
<path d="M377.703 81.954C374.4 81.9536 371.182 83.0049 368.516 84.9557C363.978 86.9755 362.071 85.9165 361.418 85.2993V54.104C361.416 52.9651 360.963 51.8733 360.157 51.0686C359.351 50.2639 358.258 49.8119 357.119 49.8119H270.154C269.015 49.8119 267.922 50.2639 267.116 51.0686C266.31 51.8733 265.857 52.9651 265.855 54.104V85.2362C266.458 85.8394 268.344 87.0247 273.001 84.9417C275.317 83.2603 278.049 82.2467 280.901 82.0114C283.753 81.7761 286.615 82.3281 289.175 83.6073C291.734 84.8864 293.894 86.8436 295.418 89.2656C296.942 91.6876 297.772 94.4815 297.817 97.3427C297.863 100.204 297.122 103.023 295.676 105.492C294.23 107.961 292.133 109.986 289.616 111.346C287.098 112.706 284.255 113.348 281.397 113.204C278.539 113.059 275.776 112.133 273.408 110.526C273.408 110.526 268.365 107.202 265.855 110.239V141.097C265.855 142.238 266.308 143.331 267.114 144.137C267.92 144.944 269.014 145.397 270.154 145.397H307.717C310.782 147.9 307.43 152.971 307.43 152.971C305.82 155.341 304.891 158.107 304.746 160.968C304.6 163.829 305.242 166.675 306.603 169.196C307.964 171.717 309.991 173.816 312.462 175.264C314.934 176.713 317.756 177.454 320.621 177.409C323.485 177.363 326.282 176.532 328.707 175.006C331.131 173.48 333.09 171.318 334.37 168.755C335.65 166.192 336.202 163.327 335.965 160.472C335.729 157.617 334.713 154.882 333.028 152.564C330.924 147.844 332.159 145.972 332.762 145.397H357.147C358.287 145.397 359.381 144.944 360.187 144.137C360.993 143.331 361.446 142.238 361.446 141.097V110.239C363.971 107.314 368.944 110.589 368.944 110.589C370.969 111.966 373.289 112.849 375.717 113.165C378.146 113.482 380.615 113.224 382.925 112.413C385.236 111.601 387.324 110.259 389.021 108.493C390.718 106.728 391.977 104.588 392.697 102.247C393.416 99.9066 393.576 97.4295 393.164 95.0155C392.752 92.6015 391.779 90.318 390.323 88.3487C388.867 86.3794 386.969 84.7793 384.782 83.6772C382.595 82.575 380.18 82.0017 377.731 82.0031L377.703 81.954Z" fill="#A9B7C7"/>
<path opacity="0.2" d="M282.615 145.193C282.615 145.193 285.694 128.894 312.008 113.675C338.322 98.4564 309.673 49.8119 309.673 49.8119H317.612C317.612 49.8119 336.429 69.2949 335.524 97.5026C334.542 128.361 305.731 112.932 296.951 128.361C288.17 143.791 294.91 145.193 294.91 145.193H282.615Z" fill="white"/>
<path opacity="0.2" d="M339.36 145.214C339.36 145.214 339.36 136.377 349.6 127.751C359.839 119.125 361.417 118.395 361.417 118.395V125.331C361.417 125.331 350.406 129.469 348.52 135.08C346.633 140.691 350.385 145.214 350.385 145.214H339.36Z" fill="white"/>
<path d="M166.558 84.9557V54.097C166.557 52.9574 166.103 51.865 165.297 51.0591C164.491 50.2533 163.399 49.7997 162.259 49.7979H128.834C126.73 47.1749 129.654 42.7845 129.654 42.7845C131.264 40.4149 132.193 37.6487 132.338 34.7876C132.484 31.9266 131.842 29.0803 130.481 26.5594C129.12 24.0384 127.093 21.9393 124.622 20.4912C122.15 19.043 119.328 18.3012 116.463 18.3467C113.599 18.3922 110.802 19.2233 108.377 20.7493C105.953 22.2753 103.994 24.4376 102.714 27.0006C101.434 29.5635 100.882 32.4287 101.119 35.2837C101.355 38.1387 102.371 40.874 104.056 43.1913C105.725 46.9294 105.297 48.8861 104.757 49.8189H75.301C74.1613 49.8208 73.0689 50.2743 72.2631 51.0801C71.4572 51.886 71.0036 52.9784 71.0018 54.1181V141.083C71.0018 142.224 71.4548 143.317 72.261 144.123C73.0673 144.93 74.1607 145.383 75.301 145.383H162.266C163.407 145.383 164.5 144.93 165.306 144.123C166.113 143.317 166.565 142.224 166.565 141.083V109.979C165.962 109.369 164.076 108.191 159.419 110.267C157.104 111.949 154.371 112.964 151.519 113.2C148.666 113.437 145.804 112.885 143.243 111.606C140.683 110.327 138.523 108.37 136.998 105.948C135.474 103.526 134.643 100.731 134.598 97.8695C134.552 95.0078 135.293 92.1885 136.74 89.7189C138.187 87.2494 140.284 85.2245 142.802 83.8648C145.321 82.5052 148.164 81.863 151.022 82.0084C153.881 82.1537 156.645 83.081 159.012 84.6892C159.012 84.6892 164.048 87.9925 166.558 84.9557Z" fill="#A9B7C7"/>
<path opacity="0.2" d="M137.096 49.8259C137.096 49.8259 141.83 58.284 131.043 65.662C120.257 73.0401 107.766 90.0755 105.304 101.619C102.843 113.163 71.0511 115.814 71.0511 115.814V135.269C71.0511 135.269 102.843 131.216 108.923 116.607C115.004 101.998 115.817 87.6138 125.902 77.5847C135.988 67.5556 156.614 49.8259 156.614 49.8259H137.096Z" fill="white"/>
<path opacity="0.2" d="M146.453 112.82C146.453 112.82 120.994 132.345 122.285 145.404H136.27C136.27 145.404 124.866 144.773 130.659 135.27C136.452 125.767 151.741 112.778 151.755 113.178C149.982 113.174 148.211 113.054 146.453 112.82Z" fill="white"/>
<path d="M206.902 148.981C210.196 144.865 214.435 141.605 219.259 139.478C226.918 136.293 228.881 136.827 229.996 138.945C231.112 141.063 225.901 147.69 223.684 149.528C221.468 151.365 207.554 160.749 207.554 160.749L206.902 148.981Z" fill="#FF8037"/>
<path d="M280.035 81.975C276.729 81.9732 273.509 83.0246 270.841 84.9768C266.633 86.8704 264.655 86.0568 263.891 85.4396V54.1251C263.889 52.9855 263.435 51.893 262.629 51.0872C261.824 50.2813 260.731 49.8278 259.592 49.8259H172.626C171.487 49.8278 170.394 50.2813 169.588 51.0872C168.782 51.893 168.329 52.9855 168.327 54.1251V85.622C165.683 87.4525 161.475 84.6752 161.475 84.6752C159.105 83.0589 156.337 82.1249 153.472 81.9751C150.608 81.8253 147.757 82.4655 145.232 83.8258C142.706 85.186 140.603 87.2141 139.152 89.6884C137.701 92.1628 136.957 94.9883 137.003 97.8564C137.049 100.725 137.881 103.525 139.411 105.952C140.94 108.379 143.106 110.339 145.674 111.618C148.241 112.898 151.111 113.447 153.969 113.206C156.827 112.965 159.565 111.944 161.882 110.253C165.388 108.689 167.331 108.976 168.327 109.474V141.09C168.327 142.231 168.78 143.324 169.586 144.13C170.392 144.937 171.486 145.39 172.626 145.39H259.592C260.732 145.39 261.825 144.937 262.631 144.13C263.438 143.324 263.891 142.231 263.891 141.09V110.042C266.458 107.398 271.248 110.561 271.248 110.561C273.272 111.936 275.591 112.816 278.017 113.131C280.444 113.446 282.91 113.188 285.219 112.376C287.527 111.565 289.613 110.223 291.309 108.459C293.004 106.695 294.262 104.557 294.981 102.218C295.7 99.8795 295.861 97.4046 295.449 94.9926C295.038 92.5805 294.066 90.2985 292.613 88.3303C291.159 86.362 289.264 84.7623 287.079 83.6598C284.895 82.5572 282.482 81.9826 280.035 81.9821V81.975Z" fill="#3D96F5"/>
<path opacity="0.4" d="M180.013 142.732C180.013 142.732 193.149 140.375 199.454 139.877H201.957C201.957 139.877 203.164 120.086 213.277 119.342L209.623 147.697L221.041 145.404C221.041 145.404 224.87 122.674 233.363 119.777L236.687 127.204C236.687 127.204 242.038 118.564 250.174 118.585L240.867 146.119L218.789 155.524L199.454 154.269L180.013 142.732Z" fill="black"/>
<path opacity="0.2" d="M250.536 49.8119C250.926 50.3899 251.118 51.0791 251.083 51.7756C251.179 54.62 250.687 57.4536 249.637 60.099C248.587 62.7443 247.002 65.1443 244.982 67.1488C237.737 74.2534 226.48 75.0178 217.566 79.864C213.671 82.0133 210.251 84.9289 207.513 88.4352C204.774 91.9415 202.774 95.9658 201.632 100.266C200.931 103.071 200.552 105.961 199.402 108.605C197.073 113.921 191.743 117.455 186.154 119.033C180.564 120.611 174.119 119.889 168.312 119.777V129.112C174.119 129.224 182.724 126.72 188.314 125.149C193.903 123.578 199.234 120.036 201.562 114.72C202.712 112.076 203.07 109.173 203.792 106.381C206.022 97.7901 209.508 89.3741 217.3 85.131C226.214 80.2848 239.897 80.369 247.142 73.2645C251.195 69.2879 260.165 55.5207 259.941 49.8469L250.536 49.8119Z" fill="white"/>
<path d="M172.922 228.273C173.006 226.443 185.679 173.022 185.679 173.022C192.833 166.191 206.53 166.858 212.926 165.946C228.145 163.786 227.857 159.297 227.857 159.297C227.857 159.297 236.372 159.999 240.103 154.57C242.031 151.765 254.508 118.627 254.508 118.627C254.508 118.627 252.166 115.822 246.359 121.432C240.552 127.043 236.54 140.586 236.54 140.586C236.54 140.586 240.748 121.909 240.832 118.606C240.916 115.303 234.387 116.277 232.318 121.671C230.249 127.064 223.348 144.555 223.348 144.555C221.51 147.473 219.273 149.464 216.334 149.787C216.334 149.787 218.775 122.751 218.768 119.798C218.761 116.845 213.108 117.294 210.696 122.603C208.283 127.913 205.015 142.563 205.015 142.563C205.015 142.563 178.224 141.231 173.623 144.183C164.758 149.871 135.19 228.273 135.19 228.273H172.922Z" fill="#FFAE66"/>
<path d="M234.21 156.457C234.56 156.752 238.383 160.125 243.215 158.126C248.047 156.127 253.875 152.81 260.327 149.893C266.78 146.975 267.341 146.722 263.364 144.541C259.388 142.36 253.048 145.004 248.748 146.428C244.449 147.852 240.388 149.065 240.388 149.065L234.21 156.457Z" fill="#FFAE66"/>
<path d="M227.961 159.395C232.302 155.671 237.022 142.676 240.865 118.564" stroke="#FF8037" stroke-width="0.75" stroke-linecap="round" stroke-linejoin="round"/>
<path d="M207.762 157.453C210.763 157.165 212.755 156.583 214.249 155.349C216.907 153.132 218.787 119.791 218.787 119.791" stroke="#FF8037" stroke-width="0.75" stroke-linecap="round" stroke-linejoin="round"/>
<path d="M235.086 158.266C237.892 157.291 240.459 153.665 241.854 151.063C243.25 148.462 253.56 121.951 254.478 118.627" stroke="#FF8037" stroke-width="0.75" stroke-linecap="round" stroke-linejoin="round"/>
</svg>
