<svg width="489" height="444" viewBox="0 0 489 444" fill="none" xmlns="http://www.w3.org/2000/svg">
<path d="M0 0L65 10V227H0V0Z" fill="url(#paint0_linear_1_1270)"/>
<path d="M81 10L146 20V227H81L81 10Z" fill="url(#paint1_linear_1_1270)"/>
<path d="M489 0L312 30V304.805L489 314.156V0Z" fill="url(#paint2_linear_1_1270)"/>
<path d="M436 298H30L30 444H436V298Z" fill="url(#paint3_linear_1_1270)"/>
<rect x="40" y="315" width="188" height="111" rx="8" fill="url(#paint4_linear_1_1270)"/>
<rect x="238" y="315" width="188" height="111" rx="8" fill="url(#paint5_linear_1_1270)"/>
<path d="M66.0156 342.109C67.4844 342.109 68.8516 342.336 70.1172 342.789C71.3828 343.242 72.4844 343.906 73.4219 344.781C74.3594 345.656 75.0938 346.75 75.625 348.062C76.1562 349.359 76.4219 350.852 76.4219 352.539C76.4219 354.398 76.1328 356.07 75.5547 357.555C74.9766 359.023 74.125 360.273 73 361.305C71.875 362.32 70.4766 363.102 68.8047 363.648C67.1484 364.195 65.2422 364.469 63.0859 364.469C62.2266 364.469 61.375 364.43 60.5312 364.352C59.6875 364.273 58.875 364.156 58.0938 364C57.3281 363.859 56.5938 363.672 55.8906 363.438C55.2031 363.203 54.5781 362.93 54.0156 362.617V356.359C54.5625 356.672 55.1953 356.969 55.9141 357.25C56.6328 357.516 57.375 357.75 58.1406 357.953C58.9219 358.141 59.7031 358.297 60.4844 358.422C61.2656 358.531 62.0078 358.586 62.7109 358.586C64.8047 358.586 66.3984 358.156 67.4922 357.297C68.5859 356.422 69.1328 355.039 69.1328 353.148C69.1328 351.461 68.5938 350.18 67.5156 349.305C66.4531 348.414 64.8047 347.969 62.5703 347.969C62.1641 347.969 61.7266 347.992 61.2578 348.039C60.8047 348.086 60.3516 348.148 59.8984 348.227C59.4609 348.305 59.0391 348.391 58.6328 348.484C58.2266 348.562 57.875 348.648 57.5781 348.742L54.6953 347.195L55.9844 329.734H74.0781V335.875H62.2656L61.7031 342.602C62.2031 342.492 62.7812 342.383 63.4375 342.273C64.1094 342.164 64.9688 342.109 66.0156 342.109ZM101.478 346.867C101.478 349.633 101.26 352.102 100.822 354.273C100.4 356.445 99.7128 358.289 98.7597 359.805C97.8222 361.32 96.6034 362.477 95.1034 363.273C93.6191 364.07 91.8222 364.469 89.7128 364.469C87.7284 364.469 86.0019 364.07 84.5331 363.273C83.0644 362.477 81.8456 361.32 80.8769 359.805C79.9081 358.289 79.1816 356.445 78.6972 354.273C78.2284 352.102 77.9941 349.633 77.9941 346.867C77.9941 344.102 78.205 341.625 78.6269 339.438C79.0644 337.25 79.7519 335.398 80.6894 333.883C81.6269 332.367 82.8378 331.211 84.3222 330.414C85.8066 329.602 87.6034 329.195 89.7128 329.195C91.6816 329.195 93.4003 329.594 94.8691 330.391C96.3378 331.188 97.5644 332.344 98.5487 333.859C99.5331 335.375 100.267 337.227 100.752 339.414C101.236 341.602 101.478 344.086 101.478 346.867ZM85.2128 346.867C85.2128 350.773 85.5487 353.711 86.2206 355.68C86.8925 357.648 88.0566 358.633 89.7128 358.633C91.3378 358.633 92.5019 357.656 93.205 355.703C93.9237 353.75 94.2831 350.805 94.2831 346.867C94.2831 342.945 93.9237 340 93.205 338.031C92.5019 336.047 91.3378 335.055 89.7128 335.055C88.8847 335.055 88.1816 335.305 87.6034 335.805C87.0409 336.305 86.58 337.047 86.2206 338.031C85.8612 339.016 85.6034 340.25 85.4472 341.734C85.2909 343.203 85.2128 344.914 85.2128 346.867ZM112.168 351.062H103.566V345.93H112.168V337.281H117.301V345.93H125.879V351.062H117.301V359.594H112.168V351.062Z" fill="#3E96F4"/>
<g clip-path="url(#clip0_1_1270)">
<path d="M342.945 329.655H257.057C254.626 329.655 252.656 331.626 252.656 334.056V359.304C252.656 361.734 254.626 363.705 257.057 363.705H342.945C345.375 363.705 347.345 361.734 347.345 359.304V334.056C347.345 331.626 345.375 329.655 342.945 329.655Z" fill="white" stroke="#0089FF" stroke-width="1.2" stroke-miterlimit="10"/>
<path d="M290.483 346.582H290.723C291.968 346.582 293.224 346.582 294.469 346.647C294.816 346.66 295.16 346.711 295.495 346.8C295.959 346.901 296.391 347.115 296.751 347.424C297.111 347.733 297.389 348.126 297.559 348.569C297.769 349.048 297.871 349.568 297.857 350.09C297.844 350.613 297.716 351.126 297.483 351.594C297.279 352.021 296.973 352.391 296.592 352.671C296.211 352.951 295.767 353.132 295.299 353.199C294.764 353.276 294.207 353.287 293.683 353.32H292.591C292.339 353.32 292.329 353.32 292.318 353.604C292.318 354.521 292.318 355.438 292.318 356.355V356.672C291.734 356.75 291.143 356.75 290.559 356.672V346.549L290.483 346.582ZM292.285 351.747C292.333 351.772 292.385 351.79 292.438 351.802C293.131 351.873 293.83 351.873 294.524 351.802C294.736 351.781 294.941 351.718 295.129 351.617C295.316 351.515 295.482 351.378 295.616 351.212C295.809 350.935 295.922 350.61 295.943 350.273C296.021 349.85 295.94 349.414 295.716 349.048C295.493 348.681 295.142 348.41 294.731 348.285C294.54 348.222 294.342 348.185 294.141 348.176C293.519 348.176 292.907 348.176 292.285 348.176V351.769V351.747Z" fill="#010101"/>
<path d="M333.913 353.44H328.671C328.587 353.884 328.681 354.343 328.932 354.719C329.183 355.095 329.572 355.357 330.014 355.449C330.441 355.558 330.888 355.558 331.314 355.449C331.624 355.343 331.89 355.135 332.067 354.859C332.242 354.564 332.275 354.564 332.613 354.63L333.618 354.794L333.815 354.859C333.701 355.234 333.509 355.579 333.251 355.873C332.993 356.167 332.675 356.402 332.319 356.563C331.279 357.016 330.104 357.047 329.042 356.65C328.566 356.469 328.139 356.176 327.799 355.796C327.459 355.416 327.215 354.96 327.088 354.466C326.749 353.483 326.749 352.414 327.088 351.43C327.284 350.793 327.671 350.231 328.196 349.819C328.721 349.407 329.359 349.165 330.025 349.126C330.599 349.077 331.176 349.152 331.718 349.345C332.202 349.517 332.636 349.807 332.981 350.188C333.326 350.569 333.571 351.03 333.694 351.529C333.825 352.072 333.891 352.629 333.891 353.189C333.891 353.265 333.891 353.341 333.891 353.483M332.22 352.162C332.205 352.023 332.184 351.884 332.155 351.747C332.104 351.441 331.963 351.158 331.748 350.934C331.534 350.709 331.257 350.555 330.953 350.491C330.722 350.458 330.486 350.458 330.255 350.491C329.817 350.523 329.406 350.716 329.102 351.033C328.797 351.349 328.621 351.767 328.606 352.206C329.809 352.288 331.017 352.288 332.22 352.206V352.162Z" fill="#010101"/>
<path d="M299.197 351.081C299.302 350.723 299.483 350.392 299.729 350.112C299.974 349.831 300.277 349.606 300.617 349.454C301.128 349.216 301.682 349.085 302.245 349.068C302.808 349.052 303.369 349.149 303.893 349.356C304.368 349.524 304.775 349.842 305.055 350.261C305.334 350.68 305.471 351.178 305.444 351.682C305.444 352.042 305.444 352.391 305.444 352.774V356.749H303.751C303.79 356.386 303.79 356.019 303.751 355.657C303.675 355.723 303.609 355.801 303.555 355.886C303.406 356.125 303.208 356.33 302.975 356.489C302.742 356.647 302.478 356.754 302.2 356.803C301.552 356.955 300.873 356.902 300.257 356.65C299.924 356.511 299.632 356.291 299.405 356.011C299.178 355.731 299.024 355.399 298.957 355.045C298.849 354.547 298.932 354.026 299.189 353.586C299.445 353.145 299.857 352.816 300.344 352.664C300.839 352.483 301.358 352.373 301.884 352.337L302.976 352.206C303.076 352.191 303.175 352.165 303.271 352.129C303.696 351.998 303.784 351.867 303.729 351.419C303.721 351.204 303.644 350.997 303.508 350.829C303.372 350.662 303.185 350.543 302.976 350.491C302.688 350.393 302.382 350.362 302.081 350.402C301.779 350.442 301.491 350.551 301.239 350.721C301.078 350.843 300.95 351.005 300.868 351.19C300.868 351.288 300.77 351.365 300.639 351.343L299.383 351.146C299.325 351.128 299.27 351.102 299.219 351.07L299.197 351.081ZM303.718 353.178H303.555C302.987 353.276 302.408 353.374 301.84 353.494C301.6 353.544 301.366 353.617 301.141 353.713C300.969 353.783 300.825 353.907 300.731 354.067C300.636 354.227 300.596 354.413 300.617 354.597C300.61 354.796 300.669 354.991 300.786 355.151C300.903 355.312 301.07 355.428 301.261 355.482C301.545 355.582 301.846 355.623 302.146 355.602C302.477 355.601 302.8 355.495 303.067 355.298C303.334 355.102 303.531 354.826 303.631 354.51C303.737 354.063 303.766 353.602 303.718 353.145V353.178Z" fill="#010101"/>
<path d="M318.592 356.738V349.192C319.16 349.104 319.684 349.192 320.284 349.192V350.502C320.459 350.426 320.514 350.284 320.59 350.175C320.738 349.908 320.939 349.675 321.179 349.487C321.419 349.3 321.694 349.162 321.988 349.083C322.375 348.978 322.78 348.96 323.174 349.03C323.569 349.1 323.943 349.256 324.27 349.487C324.54 349.681 324.764 349.931 324.93 350.219C325.096 350.507 325.198 350.827 325.231 351.157C325.275 351.49 325.297 351.826 325.297 352.162C325.297 353.527 325.297 354.892 325.297 356.257V356.618C324.724 356.69 324.144 356.69 323.571 356.618C323.571 356.541 323.571 356.454 323.571 356.366C323.571 355.1 323.571 353.833 323.571 352.566C323.588 352.312 323.588 352.056 323.571 351.802C323.548 351.48 323.417 351.175 323.199 350.937C322.981 350.699 322.689 350.542 322.37 350.491C322.037 350.414 321.688 350.456 321.383 350.61C321.078 350.763 320.836 351.019 320.699 351.332C320.578 351.58 320.514 351.853 320.514 352.129C320.514 353.538 320.514 354.947 320.514 356.366V356.639L318.592 356.738Z" fill="#010101"/>
<path d="M315.6 347.368V349.137H317.03C317.068 349.522 317.068 349.91 317.03 350.295C317.03 350.448 316.899 350.458 316.779 350.458H315.589C315.589 350.579 315.589 350.655 315.589 350.742V354.433C315.589 354.979 315.796 355.285 316.539 355.307C316.604 355.312 316.67 355.312 316.735 355.307C316.757 355.3 316.78 355.299 316.802 355.302C316.824 355.305 316.846 355.314 316.865 355.326C316.883 355.339 316.899 355.355 316.911 355.375C316.922 355.394 316.93 355.416 316.932 355.438C317.019 355.798 317.085 356.159 317.161 356.53C317.171 356.588 317.171 356.647 317.161 356.705C316.507 356.885 315.817 356.885 315.163 356.705C314.802 356.607 314.483 356.396 314.251 356.103C314.019 355.811 313.887 355.451 313.874 355.078C313.874 354.379 313.874 353.691 313.82 352.992C313.765 352.293 313.82 351.671 313.82 351.015V350.6C313.458 350.548 313.093 350.519 312.728 350.513V349.257C313.077 349.126 313.437 349.257 313.82 349.17V347.401C314.427 347.368 315.036 347.368 315.643 347.401L315.6 347.368Z" fill="#010101"/>
<path d="M309.102 350.371C309.299 350.109 309.473 349.825 309.692 349.585C309.927 349.342 310.233 349.178 310.565 349.115C310.909 349.054 311.26 349.054 311.603 349.115C311.657 349.629 311.603 350.142 311.603 350.677H311.275C310.887 350.616 310.49 350.65 310.118 350.775C309.934 350.832 309.765 350.927 309.621 351.056C309.478 351.184 309.364 351.341 309.288 351.518C309.153 351.813 309.083 352.133 309.08 352.457V356.825H307.344C307.267 356.585 307.246 349.705 307.344 349.29C307.91 349.224 308.481 349.224 309.047 349.29V350.458H309.113L309.102 350.371Z" fill="#010101"/>
<path d="M337.178 349.148V350.502L337.364 350.371C337.39 350.333 337.412 350.293 337.429 350.251C337.634 349.828 337.978 349.488 338.403 349.289C338.829 349.09 339.31 349.044 339.766 349.159H339.853C339.892 349.672 339.892 350.186 339.853 350.699L339.286 350.644C338.916 350.59 338.538 350.639 338.194 350.786C337.894 350.898 337.639 351.102 337.464 351.369C337.289 351.636 337.204 351.952 337.222 352.271C337.222 353.636 337.222 355.012 337.222 356.388V356.77H335.496C335.496 356.661 335.496 356.563 335.496 356.465C335.496 354.16 335.496 351.856 335.496 349.552C335.496 349.214 335.496 349.203 335.857 349.192H337.189" fill="#010101"/>
<path d="M303.544 340.008L304.636 341.963H303.828C303.686 341.963 303.631 341.842 303.576 341.733C303.358 341.329 303.129 340.936 302.932 340.521C302.878 340.374 302.774 340.251 302.638 340.173C302.502 340.095 302.344 340.068 302.19 340.095C301.698 340.095 301.698 340.095 301.698 340.576V341.952C301.404 341.973 301.108 341.973 300.814 341.952C300.726 340.275 300.726 338.594 300.814 336.917C300.89 336.912 300.967 336.912 301.043 336.917H302.823C303.011 336.924 303.198 336.954 303.38 337.005C303.672 337.066 303.937 337.22 304.134 337.445C304.331 337.669 304.45 337.952 304.472 338.25C304.466 338.297 304.466 338.344 304.472 338.392C304.51 338.665 304.466 338.944 304.345 339.193C304.225 339.442 304.033 339.649 303.795 339.789L303.555 339.964L303.544 340.008ZM301.731 339.407C302.146 339.407 302.528 339.407 302.91 339.331C303.097 339.311 303.27 339.222 303.394 339.08C303.518 338.938 303.583 338.754 303.576 338.566C303.589 338.374 303.532 338.183 303.415 338.029C303.299 337.874 303.132 337.767 302.943 337.725C302.615 337.725 302.288 337.725 301.971 337.671C301.654 337.616 301.698 337.671 301.687 337.955V339.047C301.68 339.152 301.68 339.258 301.687 339.363L301.731 339.407Z" fill="#010101"/>
<path d="M326.411 341.973C326.411 340.27 326.411 338.61 326.411 336.906H328.169C328.392 336.921 328.614 336.946 328.835 336.983C329.279 337.08 329.682 337.313 329.987 337.649C330.293 337.986 330.485 338.41 330.539 338.861C330.61 339.28 330.61 339.709 330.539 340.128C330.459 340.569 330.242 340.974 329.919 341.284C329.595 341.594 329.181 341.793 328.737 341.853C328.495 341.897 328.25 341.919 328.005 341.919L326.411 341.973ZM327.361 341.198C327.789 341.237 328.221 341.237 328.649 341.198C329.228 341.078 329.545 340.86 329.741 340.106C329.795 339.744 329.795 339.376 329.741 339.014C329.697 338.673 329.531 338.36 329.274 338.131C329.018 337.903 328.687 337.774 328.344 337.769H327.71C327.383 337.769 327.361 337.769 327.361 338.108V340.958C327.361 341.056 327.361 341.154 327.361 341.285V341.198Z" fill="#010101"/>
<path d="M299.099 336.961V337.671H296.762C296.762 338.097 296.762 338.479 296.762 338.872C296.762 339.047 296.828 339.101 297.024 339.101H298.946C299.029 339.327 299.029 339.575 298.946 339.8H296.762C296.762 340.237 296.762 340.619 296.762 341.012C296.759 341.044 296.763 341.076 296.773 341.105C296.783 341.135 296.8 341.163 296.821 341.185C296.843 341.208 296.87 341.226 296.899 341.238C296.928 341.249 296.96 341.254 296.991 341.253H299.176V341.93H295.976V336.961H299.176H299.099Z" fill="#010101"/>
<path d="M321.54 336.95H324.729V337.671H322.392V339.058C322.622 339.125 322.864 339.144 323.102 339.112C323.331 339.112 323.571 339.112 323.812 339.112H324.576V339.822H322.392V341.22C323.184 341.286 323.98 341.286 324.773 341.22V341.952H321.573V336.95H321.54Z" fill="#010101"/>
<path d="M294.207 340.412C294.151 340.843 293.927 341.236 293.584 341.504C293.129 341.867 292.553 342.045 291.972 342.002C291.392 341.96 290.848 341.7 290.45 341.275C290.181 340.961 289.993 340.586 289.904 340.183C289.784 339.702 289.784 339.2 289.904 338.719C289.969 338.399 290.103 338.097 290.295 337.833C290.488 337.569 290.735 337.35 291.02 337.19C291.305 337.03 291.622 336.934 291.947 336.908C292.273 336.881 292.6 336.926 292.907 337.038C293.225 337.137 293.511 337.32 293.734 337.568C293.957 337.816 294.109 338.119 294.174 338.446C294.18 338.493 294.18 338.541 294.174 338.588C293.968 338.651 293.747 338.651 293.541 338.588C293.399 338.588 293.344 338.446 293.279 338.337C293.185 338.155 293.05 337.999 292.884 337.88C292.717 337.762 292.525 337.685 292.323 337.656C292.121 337.627 291.915 337.647 291.722 337.714C291.529 337.782 291.355 337.894 291.215 338.042C290.918 338.33 290.742 338.721 290.723 339.134C290.69 339.457 290.69 339.783 290.723 340.106C290.76 340.348 290.858 340.577 291.01 340.77C291.161 340.963 291.359 341.113 291.586 341.206C291.812 341.3 292.059 341.333 292.302 341.303C292.545 341.273 292.776 341.18 292.973 341.034C293.07 340.959 293.151 340.867 293.213 340.761C293.442 340.357 293.53 340.314 293.988 340.379L294.196 340.445L294.207 340.412Z" fill="#010101"/>
<path d="M314.114 336.928H317.183C317.281 337.166 317.281 337.433 317.183 337.671H314.999C314.992 337.765 314.992 337.86 314.999 337.955C314.999 338.228 314.999 338.501 314.999 338.763C314.999 339.025 314.999 339.112 315.37 339.112H316.932C316.995 339.212 317.035 339.325 317.048 339.442C317.062 339.559 317.048 339.678 317.008 339.789C316.667 339.817 316.323 339.817 315.982 339.789H314.955C314.902 340.151 314.884 340.516 314.901 340.881C314.901 341.231 314.901 341.569 314.901 341.973C314.637 342.022 314.367 342.022 314.104 341.973C314.038 341.624 314.038 337.201 314.104 336.95L314.114 336.928Z" fill="#010101"/>
<path d="M308.294 337.671V341.941H307.486V337.682H305.902V336.928H309.877V337.671H308.294Z" fill="#010101"/>
<path d="M312.302 336.917H311.439V341.952H312.302V336.917Z" fill="#010101"/>
<path d="M318.865 341.973V336.906L319.727 336.961C319.733 337.048 319.733 337.136 319.727 337.223V340.87C319.727 341.133 319.727 341.406 319.727 341.668C319.727 341.93 319.727 341.963 319.444 341.963H318.843L318.865 341.973Z" fill="#010101"/>
<path d="M257.084 329.786H283.169V363.574H256.952C255.847 363.574 254.788 363.13 254.006 362.339C253.225 361.549 252.786 360.477 252.786 359.359V334.134C252.786 332.983 253.237 331.878 254.041 331.063C254.844 330.248 255.935 329.789 257.073 329.786H257.084Z" fill="#0089FF"/>
<path d="M274.124 337.397H261.118V340.936H274.124V337.397Z" fill="white"/>
<path d="M273.305 346.319H261.118V349.857H273.305V346.319Z" fill="white"/>
<path d="M265.192 346.319H261.118V357.425H265.192V346.319Z" fill="white"/>
</g>
<path d="M54.2784 392V380.364H61.5739V381.875H56.0341V385.42H61.1932V386.926H56.0341V390.489H61.642V392H54.2784ZM63.919 392V380.364H68.0668C68.9683 380.364 69.7164 380.519 70.3111 380.83C70.9096 381.14 71.3565 381.57 71.652 382.119C71.9474 382.665 72.0952 383.295 72.0952 384.011C72.0952 384.723 71.9455 385.35 71.6463 385.892C71.3509 386.43 70.9039 386.848 70.3054 387.148C69.7107 387.447 68.9626 387.597 68.0611 387.597H64.919V386.085H67.902C68.4702 386.085 68.9323 386.004 69.2884 385.841C69.6482 385.678 69.9115 385.441 70.0781 385.131C70.2448 384.82 70.3281 384.447 70.3281 384.011C70.3281 383.572 70.2429 383.191 70.0724 382.869C69.9058 382.547 69.6425 382.301 69.2827 382.131C68.9266 381.956 68.4588 381.869 67.8793 381.869H65.6747V392H63.919ZM69.6634 386.75L72.5384 392H70.5384L67.7202 386.75H69.6634ZM74.2315 392V380.364H78.3793C79.2846 380.364 80.0346 380.528 80.6293 380.858C81.224 381.187 81.669 381.638 81.9645 382.21C82.2599 382.778 82.4077 383.419 82.4077 384.131C82.4077 384.847 82.258 385.491 81.9588 386.062C81.6634 386.631 81.2164 387.081 80.6179 387.415C80.0232 387.744 79.2751 387.909 78.3736 387.909H75.5213V386.42H78.2145C78.7865 386.42 79.2505 386.322 79.6065 386.125C79.9626 385.924 80.224 385.652 80.3906 385.307C80.5573 384.962 80.6406 384.57 80.6406 384.131C80.6406 383.691 80.5573 383.301 80.3906 382.96C80.224 382.619 79.9607 382.352 79.6009 382.159C79.2448 381.966 78.7751 381.869 78.1918 381.869H75.9872V392H74.2315ZM93.858 380.364V392H92.2443L86.3295 383.466H86.2216V392H84.4659V380.364H86.0909L92.0114 388.909H92.1193V380.364H93.858ZM100.044 392.176C99.1842 392.176 98.4437 391.992 97.8224 391.625C97.205 391.254 96.7277 390.733 96.3906 390.062C96.0573 389.388 95.8906 388.598 95.8906 387.693C95.8906 386.799 96.0573 386.011 96.3906 385.33C96.7277 384.648 97.1974 384.116 97.7997 383.733C98.4058 383.35 99.1141 383.159 99.9247 383.159C100.417 383.159 100.894 383.241 101.357 383.403C101.819 383.566 102.233 383.822 102.601 384.17C102.968 384.519 103.258 384.972 103.47 385.528C103.682 386.081 103.788 386.754 103.788 387.545V388.148H96.8509V386.875H102.124C102.124 386.428 102.033 386.032 101.851 385.688C101.669 385.339 101.413 385.064 101.084 384.864C100.758 384.663 100.375 384.562 99.9361 384.562C99.4588 384.562 99.0421 384.68 98.6861 384.915C98.3338 385.146 98.0611 385.449 97.8679 385.824C97.6785 386.195 97.5838 386.598 97.5838 387.034V388.028C97.5838 388.612 97.6861 389.108 97.8906 389.517C98.099 389.926 98.3887 390.239 98.7599 390.455C99.1312 390.667 99.5649 390.773 100.061 390.773C100.383 390.773 100.677 390.727 100.942 390.636C101.207 390.542 101.436 390.402 101.629 390.216C101.822 390.03 101.97 389.801 102.072 389.528L103.68 389.818C103.552 390.292 103.321 390.706 102.987 391.062C102.658 391.415 102.243 391.689 101.743 391.886C101.247 392.08 100.68 392.176 100.044 392.176ZM106.811 383.273L108.737 386.67L110.68 383.273H112.538L109.817 387.636L112.561 392H110.703L108.737 388.739L106.777 392H104.913L107.629 387.636L104.947 383.273H106.811ZM118.357 383.273V384.636H113.589V383.273H118.357ZM114.868 381.182H116.567V389.438C116.567 389.767 116.616 390.015 116.714 390.182C116.813 390.345 116.94 390.456 117.095 390.517C117.254 390.574 117.427 390.602 117.612 390.602C117.749 390.602 117.868 390.593 117.97 390.574C118.072 390.555 118.152 390.54 118.209 390.528L118.516 391.932C118.417 391.97 118.277 392.008 118.095 392.045C117.913 392.087 117.686 392.11 117.413 392.114C116.966 392.121 116.55 392.042 116.163 391.875C115.777 391.708 115.464 391.451 115.226 391.102C114.987 390.754 114.868 390.316 114.868 389.79V381.182ZM58.0455 412H54.2784V400.364H58.1648C59.3049 400.364 60.2841 400.597 61.1023 401.062C61.9205 401.525 62.5473 402.189 62.983 403.057C63.4223 403.92 63.642 404.956 63.642 406.165C63.642 407.377 63.4205 408.419 62.9773 409.29C62.5379 410.161 61.9015 410.831 61.0682 411.301C60.2348 411.767 59.2273 412 58.0455 412ZM56.0341 410.466H57.9489C58.8352 410.466 59.572 410.299 60.1591 409.966C60.7462 409.629 61.1856 409.142 61.4773 408.506C61.7689 407.866 61.9148 407.085 61.9148 406.165C61.9148 405.252 61.7689 404.477 61.4773 403.841C61.1894 403.205 60.7595 402.722 60.1875 402.392C59.6155 402.062 58.9053 401.898 58.0568 401.898H56.0341V410.466ZM69.4503 412.176C68.5904 412.176 67.8499 411.992 67.2287 411.625C66.6113 411.254 66.134 410.733 65.7969 410.062C65.4635 409.388 65.2969 408.598 65.2969 407.693C65.2969 406.799 65.4635 406.011 65.7969 405.33C66.134 404.648 66.6037 404.116 67.206 403.733C67.812 403.35 68.5204 403.159 69.331 403.159C69.8234 403.159 70.3007 403.241 70.7628 403.403C71.2249 403.566 71.6397 403.822 72.0071 404.17C72.3745 404.519 72.6643 404.972 72.8764 405.528C73.0885 406.081 73.1946 406.754 73.1946 407.545V408.148H66.2571V406.875H71.5298C71.5298 406.428 71.4389 406.032 71.2571 405.688C71.0753 405.339 70.8196 405.064 70.4901 404.864C70.1643 404.663 69.7817 404.562 69.3423 404.562C68.8651 404.562 68.4484 404.68 68.0923 404.915C67.7401 405.146 67.4673 405.449 67.2741 405.824C67.0848 406.195 66.9901 406.598 66.9901 407.034V408.028C66.9901 408.612 67.0923 409.108 67.2969 409.517C67.5052 409.926 67.795 410.239 68.1662 410.455C68.5374 410.667 68.9711 410.773 69.4673 410.773C69.7893 410.773 70.0829 410.727 70.348 410.636C70.6132 410.542 70.8423 410.402 71.0355 410.216C71.2287 410.03 71.3764 409.801 71.4787 409.528L73.0866 409.818C72.9579 410.292 72.7268 410.706 72.3935 411.062C72.0639 411.415 71.6491 411.689 71.1491 411.886C70.6529 412.08 70.0866 412.176 69.4503 412.176ZM82.2955 403.273L79.1307 412H77.3125L74.142 403.273H75.9659L78.1761 409.989H78.267L80.4716 403.273H82.2955ZM87.3565 412.176C86.4967 412.176 85.7562 411.992 85.1349 411.625C84.5175 411.254 84.0402 410.733 83.7031 410.062C83.3698 409.388 83.2031 408.598 83.2031 407.693C83.2031 406.799 83.3698 406.011 83.7031 405.33C84.0402 404.648 84.5099 404.116 85.1122 403.733C85.7183 403.35 86.4266 403.159 87.2372 403.159C87.7296 403.159 88.2069 403.241 88.669 403.403C89.1312 403.566 89.5459 403.822 89.9134 404.17C90.2808 404.519 90.5705 404.972 90.7827 405.528C90.9948 406.081 91.1009 406.754 91.1009 407.545V408.148H84.1634V406.875H89.4361C89.4361 406.428 89.3452 406.032 89.1634 405.688C88.9815 405.339 88.7259 405.064 88.3963 404.864C88.0705 404.663 87.688 404.562 87.2486 404.562C86.7713 404.562 86.3546 404.68 85.9986 404.915C85.6463 405.146 85.3736 405.449 85.1804 405.824C84.991 406.195 84.8963 406.598 84.8963 407.034V408.028C84.8963 408.612 84.9986 409.108 85.2031 409.517C85.4115 409.926 85.7012 410.239 86.0724 410.455C86.4437 410.667 86.8774 410.773 87.3736 410.773C87.6955 410.773 87.9891 410.727 88.2543 410.636C88.5194 410.542 88.7486 410.402 88.9418 410.216C89.1349 410.03 89.2827 409.801 89.3849 409.528L90.9929 409.818C90.8641 410.292 90.633 410.706 90.2997 411.062C89.9702 411.415 89.5554 411.689 89.0554 411.886C88.5592 412.08 87.9929 412.176 87.3565 412.176ZM94.6847 400.364V412H92.9858V400.364H94.6847ZM100.646 412.176C99.8281 412.176 99.1141 411.989 98.5043 411.614C97.8944 411.239 97.4209 410.714 97.0838 410.04C96.7467 409.366 96.5781 408.578 96.5781 407.676C96.5781 406.771 96.7467 405.979 97.0838 405.301C97.4209 404.623 97.8944 404.097 98.5043 403.722C99.1141 403.347 99.8281 403.159 100.646 403.159C101.464 403.159 102.179 403.347 102.788 403.722C103.398 404.097 103.872 404.623 104.209 405.301C104.546 405.979 104.714 406.771 104.714 407.676C104.714 408.578 104.546 409.366 104.209 410.04C103.872 410.714 103.398 411.239 102.788 411.614C102.179 411.989 101.464 412.176 100.646 412.176ZM100.652 410.75C101.182 410.75 101.622 410.61 101.97 410.33C102.319 410.049 102.576 409.676 102.743 409.21C102.913 408.744 102.999 408.231 102.999 407.67C102.999 407.114 102.913 406.602 102.743 406.136C102.576 405.667 102.319 405.29 101.97 405.006C101.622 404.722 101.182 404.58 100.652 404.58C100.118 404.58 99.6747 404.722 99.3224 405.006C98.974 405.29 98.7145 405.667 98.544 406.136C98.3774 406.602 98.294 407.114 98.294 407.67C98.294 408.231 98.3774 408.744 98.544 409.21C98.7145 409.676 98.974 410.049 99.3224 410.33C99.6747 410.61 100.118 410.75 100.652 410.75ZM106.611 415.273V403.273H108.27V404.688H108.412C108.51 404.506 108.652 404.295 108.838 404.057C109.024 403.818 109.281 403.61 109.611 403.432C109.94 403.25 110.376 403.159 110.918 403.159C111.622 403.159 112.251 403.337 112.804 403.693C113.357 404.049 113.791 404.562 114.105 405.233C114.423 405.903 114.582 406.71 114.582 407.653C114.582 408.597 114.425 409.405 114.111 410.08C113.796 410.75 113.365 411.267 112.815 411.631C112.266 411.991 111.639 412.17 110.935 412.17C110.404 412.17 109.971 412.081 109.634 411.903C109.3 411.725 109.039 411.517 108.849 411.278C108.66 411.04 108.514 410.828 108.412 410.642H108.31V415.273H106.611ZM108.276 407.636C108.276 408.25 108.365 408.788 108.543 409.25C108.721 409.712 108.978 410.074 109.315 410.335C109.652 410.593 110.065 410.722 110.554 410.722C111.062 410.722 111.486 410.587 111.827 410.318C112.168 410.045 112.425 409.676 112.599 409.21C112.777 408.744 112.866 408.22 112.866 407.636C112.866 407.061 112.779 406.544 112.605 406.085C112.435 405.627 112.177 405.265 111.832 405C111.491 404.735 111.065 404.602 110.554 404.602C110.062 404.602 109.645 404.729 109.304 404.983C108.967 405.237 108.711 405.591 108.537 406.045C108.363 406.5 108.276 407.03 108.276 407.636ZM120.247 412.176C119.387 412.176 118.647 411.992 118.026 411.625C117.408 411.254 116.931 410.733 116.594 410.062C116.26 409.388 116.094 408.598 116.094 407.693C116.094 406.799 116.26 406.011 116.594 405.33C116.931 404.648 117.401 404.116 118.003 403.733C118.609 403.35 119.317 403.159 120.128 403.159C120.62 403.159 121.098 403.241 121.56 403.403C122.022 403.566 122.437 403.822 122.804 404.17C123.171 404.519 123.461 404.972 123.673 405.528C123.885 406.081 123.991 406.754 123.991 407.545V408.148H117.054V406.875H122.327C122.327 406.428 122.236 406.032 122.054 405.688C121.872 405.339 121.616 405.064 121.287 404.864C120.961 404.663 120.579 404.562 120.139 404.562C119.662 404.562 119.245 404.68 118.889 404.915C118.537 405.146 118.264 405.449 118.071 405.824C117.882 406.195 117.787 406.598 117.787 407.034V408.028C117.787 408.612 117.889 409.108 118.094 409.517C118.302 409.926 118.592 410.239 118.963 410.455C119.334 410.667 119.768 410.773 120.264 410.773C120.586 410.773 120.88 410.727 121.145 410.636C121.41 410.542 121.639 410.402 121.832 410.216C122.026 410.03 122.173 409.801 122.276 409.528L123.884 409.818C123.755 410.292 123.524 410.706 123.19 411.062C122.861 411.415 122.446 411.689 121.946 411.886C121.45 412.08 120.884 412.176 120.247 412.176ZM125.876 412V403.273H127.518V404.659H127.609C127.768 404.189 128.049 403.82 128.45 403.551C128.856 403.278 129.314 403.142 129.825 403.142C129.931 403.142 130.056 403.146 130.2 403.153C130.348 403.161 130.464 403.17 130.547 403.182V404.807C130.479 404.788 130.357 404.767 130.183 404.744C130.009 404.718 129.835 404.705 129.661 404.705C129.259 404.705 128.901 404.79 128.587 404.96C128.276 405.127 128.03 405.36 127.848 405.659C127.666 405.955 127.575 406.292 127.575 406.67V412H125.876ZM138.557 405.403L137.017 405.676C136.953 405.479 136.85 405.292 136.71 405.114C136.574 404.936 136.388 404.79 136.153 404.676C135.919 404.562 135.625 404.506 135.273 404.506C134.792 404.506 134.39 404.614 134.068 404.83C133.746 405.042 133.585 405.316 133.585 405.653C133.585 405.945 133.693 406.18 133.909 406.358C134.125 406.536 134.473 406.682 134.955 406.795L136.341 407.114C137.144 407.299 137.742 407.585 138.136 407.972C138.53 408.358 138.727 408.86 138.727 409.477C138.727 410 138.576 410.466 138.273 410.875C137.973 411.28 137.555 411.598 137.017 411.83C136.483 412.061 135.864 412.176 135.159 412.176C134.182 412.176 133.384 411.968 132.767 411.551C132.15 411.131 131.771 410.534 131.631 409.761L133.273 409.511C133.375 409.939 133.585 410.263 133.903 410.483C134.222 410.699 134.636 410.807 135.148 410.807C135.705 410.807 136.15 410.691 136.483 410.46C136.816 410.225 136.983 409.939 136.983 409.602C136.983 409.33 136.881 409.1 136.676 408.915C136.475 408.729 136.167 408.589 135.75 408.494L134.273 408.17C133.458 407.985 132.856 407.689 132.466 407.284C132.08 406.879 131.886 406.366 131.886 405.744C131.886 405.229 132.03 404.778 132.318 404.392C132.606 404.006 133.004 403.705 133.511 403.489C134.019 403.269 134.6 403.159 135.256 403.159C136.199 403.159 136.941 403.364 137.483 403.773C138.025 404.178 138.383 404.722 138.557 405.403Z" fill="#31393C"/>
<path d="M252.278 392V380.364H259.574V381.875H254.034V385.42H259.193V386.926H254.034V390.489H259.642V392H252.278ZM261.919 392V380.364H266.067C266.968 380.364 267.716 380.519 268.311 380.83C268.91 381.14 269.357 381.57 269.652 382.119C269.947 382.665 270.095 383.295 270.095 384.011C270.095 384.723 269.946 385.35 269.646 385.892C269.351 386.43 268.904 386.848 268.305 387.148C267.711 387.447 266.963 387.597 266.061 387.597H262.919V386.085H265.902C266.47 386.085 266.932 386.004 267.288 385.841C267.648 385.678 267.911 385.441 268.078 385.131C268.245 384.82 268.328 384.447 268.328 384.011C268.328 383.572 268.243 383.191 268.072 382.869C267.906 382.547 267.643 382.301 267.283 382.131C266.927 381.956 266.459 381.869 265.879 381.869H263.675V392H261.919ZM267.663 386.75L270.538 392H268.538L265.72 386.75H267.663ZM272.232 392V380.364H276.379C277.285 380.364 278.035 380.528 278.629 380.858C279.224 381.187 279.669 381.638 279.964 382.21C280.26 382.778 280.408 383.419 280.408 384.131C280.408 384.847 280.258 385.491 279.959 386.062C279.663 386.631 279.216 387.081 278.618 387.415C278.023 387.744 277.275 387.909 276.374 387.909H273.521V386.42H276.214C276.786 386.42 277.25 386.322 277.607 386.125C277.963 385.924 278.224 385.652 278.391 385.307C278.557 384.962 278.641 384.57 278.641 384.131C278.641 383.691 278.557 383.301 278.391 382.96C278.224 382.619 277.961 382.352 277.601 382.159C277.245 381.966 276.775 381.869 276.192 381.869H273.987V392H272.232ZM291.858 380.364V392H290.244L284.33 383.466H284.222V392H282.466V380.364H284.091L290.011 388.909H290.119V380.364H291.858ZM298.044 392.176C297.184 392.176 296.444 391.992 295.822 391.625C295.205 391.254 294.728 390.733 294.391 390.062C294.057 389.388 293.891 388.598 293.891 387.693C293.891 386.799 294.057 386.011 294.391 385.33C294.728 384.648 295.197 384.116 295.8 383.733C296.406 383.35 297.114 383.159 297.925 383.159C298.417 383.159 298.894 383.241 299.357 383.403C299.819 383.566 300.233 383.822 300.601 384.17C300.968 384.519 301.258 384.972 301.47 385.528C301.682 386.081 301.788 386.754 301.788 387.545V388.148H294.851V386.875H300.124C300.124 386.428 300.033 386.032 299.851 385.688C299.669 385.339 299.413 385.064 299.084 384.864C298.758 384.663 298.375 384.562 297.936 384.562C297.459 384.562 297.042 384.68 296.686 384.915C296.334 385.146 296.061 385.449 295.868 385.824C295.679 386.195 295.584 386.598 295.584 387.034V388.028C295.584 388.612 295.686 389.108 295.891 389.517C296.099 389.926 296.389 390.239 296.76 390.455C297.131 390.667 297.565 390.773 298.061 390.773C298.383 390.773 298.677 390.727 298.942 390.636C299.207 390.542 299.436 390.402 299.629 390.216C299.822 390.03 299.97 389.801 300.072 389.528L301.68 389.818C301.552 390.292 301.321 390.706 300.987 391.062C300.658 391.415 300.243 391.689 299.743 391.886C299.247 392.08 298.68 392.176 298.044 392.176ZM304.811 383.273L306.737 386.67L308.68 383.273H310.538L307.817 387.636L310.561 392H308.703L306.737 388.739L304.777 392H302.913L305.629 387.636L302.947 383.273H304.811ZM316.357 383.273V384.636H311.589V383.273H316.357ZM312.868 381.182H314.567V389.438C314.567 389.767 314.616 390.015 314.714 390.182C314.813 390.345 314.94 390.456 315.095 390.517C315.254 390.574 315.427 390.602 315.612 390.602C315.749 390.602 315.868 390.593 315.97 390.574C316.072 390.555 316.152 390.54 316.209 390.528L316.516 391.932C316.417 391.97 316.277 392.008 316.095 392.045C315.913 392.087 315.686 392.11 315.413 392.114C314.966 392.121 314.55 392.042 314.163 391.875C313.777 391.708 313.464 391.451 313.226 391.102C312.987 390.754 312.868 390.316 312.868 389.79V381.182ZM252.278 412V400.364H259.494V401.875H254.034V405.42H258.977V406.926H254.034V412H252.278ZM261.408 412V403.273H263.05V404.659H263.141C263.3 404.189 263.58 403.82 263.982 403.551C264.387 403.278 264.845 403.142 265.357 403.142C265.463 403.142 265.588 403.146 265.732 403.153C265.879 403.161 265.995 403.17 266.078 403.182V404.807C266.01 404.788 265.889 404.767 265.714 404.744C265.54 404.718 265.366 404.705 265.192 404.705C264.79 404.705 264.432 404.79 264.118 404.96C263.807 405.127 263.561 405.36 263.379 405.659C263.197 405.955 263.107 406.292 263.107 406.67V412H261.408ZM270.01 412.193C269.457 412.193 268.957 412.091 268.51 411.886C268.063 411.678 267.709 411.377 267.447 410.983C267.19 410.589 267.061 410.106 267.061 409.534C267.061 409.042 267.156 408.636 267.345 408.318C267.535 408 267.79 407.748 268.112 407.562C268.434 407.377 268.794 407.237 269.192 407.142C269.589 407.047 269.995 406.975 270.408 406.926C270.93 406.866 271.355 406.816 271.68 406.778C272.006 406.737 272.243 406.67 272.391 406.58C272.538 406.489 272.612 406.341 272.612 406.136V406.097C272.612 405.6 272.472 405.216 272.192 404.943C271.915 404.67 271.502 404.534 270.953 404.534C270.381 404.534 269.93 404.661 269.601 404.915C269.275 405.165 269.05 405.443 268.925 405.75L267.328 405.386C267.518 404.856 267.794 404.428 268.158 404.102C268.525 403.773 268.947 403.534 269.425 403.386C269.902 403.235 270.404 403.159 270.93 403.159C271.279 403.159 271.648 403.201 272.038 403.284C272.432 403.364 272.8 403.511 273.141 403.727C273.485 403.943 273.768 404.252 273.987 404.653C274.207 405.051 274.317 405.568 274.317 406.205V412H272.658V410.807H272.589C272.48 411.027 272.315 411.242 272.095 411.455C271.875 411.667 271.593 411.843 271.249 411.983C270.904 412.123 270.491 412.193 270.01 412.193ZM270.379 410.83C270.849 410.83 271.25 410.737 271.584 410.551C271.921 410.366 272.177 410.123 272.351 409.824C272.529 409.521 272.618 409.197 272.618 408.852V407.727C272.557 407.788 272.44 407.845 272.266 407.898C272.095 407.947 271.9 407.991 271.68 408.028C271.461 408.062 271.247 408.095 271.038 408.125C270.83 408.152 270.656 408.174 270.516 408.193C270.186 408.235 269.885 408.305 269.612 408.403C269.343 408.502 269.127 408.644 268.964 408.83C268.805 409.011 268.726 409.254 268.726 409.557C268.726 409.977 268.881 410.295 269.192 410.511C269.502 410.723 269.898 410.83 270.379 410.83ZM276.58 415.273V403.273H278.239V404.688H278.381C278.479 404.506 278.621 404.295 278.807 404.057C278.992 403.818 279.25 403.61 279.58 403.432C279.909 403.25 280.345 403.159 280.886 403.159C281.591 403.159 282.22 403.337 282.773 403.693C283.326 404.049 283.759 404.562 284.074 405.233C284.392 405.903 284.551 406.71 284.551 407.653C284.551 408.597 284.394 409.405 284.08 410.08C283.765 410.75 283.333 411.267 282.784 411.631C282.235 411.991 281.608 412.17 280.903 412.17C280.373 412.17 279.939 412.081 279.602 411.903C279.269 411.725 279.008 411.517 278.818 411.278C278.629 411.04 278.483 410.828 278.381 410.642H278.278V415.273H276.58ZM278.244 407.636C278.244 408.25 278.333 408.788 278.511 409.25C278.689 409.712 278.947 410.074 279.284 410.335C279.621 410.593 280.034 410.722 280.523 410.722C281.03 410.722 281.455 410.587 281.795 410.318C282.136 410.045 282.394 409.676 282.568 409.21C282.746 408.744 282.835 408.22 282.835 407.636C282.835 407.061 282.748 406.544 282.574 406.085C282.403 405.627 282.146 405.265 281.801 405C281.46 404.735 281.034 404.602 280.523 404.602C280.03 404.602 279.614 404.729 279.273 404.983C278.936 405.237 278.68 405.591 278.506 406.045C278.331 406.5 278.244 407.03 278.244 407.636ZM286.455 415.273V403.273H288.114V404.688H288.256C288.354 404.506 288.496 404.295 288.682 404.057C288.867 403.818 289.125 403.61 289.455 403.432C289.784 403.25 290.22 403.159 290.761 403.159C291.466 403.159 292.095 403.337 292.648 403.693C293.201 404.049 293.634 404.562 293.949 405.233C294.267 405.903 294.426 406.71 294.426 407.653C294.426 408.597 294.269 409.405 293.955 410.08C293.64 410.75 293.208 411.267 292.659 411.631C292.11 411.991 291.483 412.17 290.778 412.17C290.248 412.17 289.814 412.081 289.477 411.903C289.144 411.725 288.883 411.517 288.693 411.278C288.504 411.04 288.358 410.828 288.256 410.642H288.153V415.273H286.455ZM288.119 407.636C288.119 408.25 288.208 408.788 288.386 409.25C288.564 409.712 288.822 410.074 289.159 410.335C289.496 410.593 289.909 410.722 290.398 410.722C290.905 410.722 291.33 410.587 291.67 410.318C292.011 410.045 292.269 409.676 292.443 409.21C292.621 408.744 292.71 408.22 292.71 407.636C292.71 407.061 292.623 406.544 292.449 406.085C292.278 405.627 292.021 405.265 291.676 405C291.335 404.735 290.909 404.602 290.398 404.602C289.905 404.602 289.489 404.729 289.148 404.983C288.811 405.237 288.555 405.591 288.381 406.045C288.206 406.5 288.119 407.03 288.119 407.636ZM300.091 412.176C299.231 412.176 298.491 411.992 297.869 411.625C297.252 411.254 296.775 410.733 296.438 410.062C296.104 409.388 295.938 408.598 295.938 407.693C295.938 406.799 296.104 406.011 296.438 405.33C296.775 404.648 297.244 404.116 297.847 403.733C298.453 403.35 299.161 403.159 299.972 403.159C300.464 403.159 300.941 403.241 301.403 403.403C301.866 403.566 302.28 403.822 302.648 404.17C303.015 404.519 303.305 404.972 303.517 405.528C303.729 406.081 303.835 406.754 303.835 407.545V408.148H296.898V406.875H302.17C302.17 406.428 302.08 406.032 301.898 405.688C301.716 405.339 301.46 405.064 301.131 404.864C300.805 404.663 300.422 404.562 299.983 404.562C299.506 404.562 299.089 404.68 298.733 404.915C298.381 405.146 298.108 405.449 297.915 405.824C297.725 406.195 297.631 406.598 297.631 407.034V408.028C297.631 408.612 297.733 409.108 297.938 409.517C298.146 409.926 298.436 410.239 298.807 410.455C299.178 410.667 299.612 410.773 300.108 410.773C300.43 410.773 300.723 410.727 300.989 410.636C301.254 410.542 301.483 410.402 301.676 410.216C301.869 410.03 302.017 409.801 302.119 409.528L303.727 409.818C303.598 410.292 303.367 410.706 303.034 411.062C302.705 411.415 302.29 411.689 301.79 411.886C301.294 412.08 300.727 412.176 300.091 412.176ZM310.091 412V400.364H314.239C315.144 400.364 315.894 400.528 316.489 400.858C317.083 401.187 317.528 401.638 317.824 402.21C318.119 402.778 318.267 403.419 318.267 404.131C318.267 404.847 318.117 405.491 317.818 406.062C317.523 406.631 317.076 407.081 316.477 407.415C315.883 407.744 315.134 407.909 314.233 407.909H311.381V406.42H314.074C314.646 406.42 315.11 406.322 315.466 406.125C315.822 405.924 316.083 405.652 316.25 405.307C316.417 404.962 316.5 404.57 316.5 404.131C316.5 403.691 316.417 403.301 316.25 402.96C316.083 402.619 315.82 402.352 315.46 402.159C315.104 401.966 314.634 401.869 314.051 401.869H311.847V412H310.091ZM322.651 412.193C322.098 412.193 321.598 412.091 321.151 411.886C320.704 411.678 320.349 411.377 320.088 410.983C319.83 410.589 319.702 410.106 319.702 409.534C319.702 409.042 319.796 408.636 319.986 408.318C320.175 408 320.431 407.748 320.753 407.562C321.075 407.377 321.435 407.237 321.832 407.142C322.23 407.047 322.635 406.975 323.048 406.926C323.571 406.866 323.995 406.816 324.321 406.778C324.647 406.737 324.884 406.67 325.031 406.58C325.179 406.489 325.253 406.341 325.253 406.136V406.097C325.253 405.6 325.113 405.216 324.832 404.943C324.556 404.67 324.143 404.534 323.594 404.534C323.022 404.534 322.571 404.661 322.241 404.915C321.916 405.165 321.69 405.443 321.565 405.75L319.969 405.386C320.158 404.856 320.435 404.428 320.798 404.102C321.166 403.773 321.588 403.534 322.065 403.386C322.543 403.235 323.045 403.159 323.571 403.159C323.92 403.159 324.289 403.201 324.679 403.284C325.073 403.364 325.44 403.511 325.781 403.727C326.126 403.943 326.408 404.252 326.628 404.653C326.848 405.051 326.957 405.568 326.957 406.205V412H325.298V410.807H325.23C325.12 411.027 324.955 411.242 324.736 411.455C324.516 411.667 324.234 411.843 323.889 411.983C323.545 412.123 323.132 412.193 322.651 412.193ZM323.02 410.83C323.49 410.83 323.891 410.737 324.224 410.551C324.562 410.366 324.817 410.123 324.991 409.824C325.17 409.521 325.259 409.197 325.259 408.852V407.727C325.198 407.788 325.08 407.845 324.906 407.898C324.736 407.947 324.541 407.991 324.321 408.028C324.101 408.062 323.887 408.095 323.679 408.125C323.471 408.152 323.296 408.174 323.156 408.193C322.827 408.235 322.526 408.305 322.253 408.403C321.984 408.502 321.768 408.644 321.605 408.83C321.446 409.011 321.366 409.254 321.366 409.557C321.366 409.977 321.522 410.295 321.832 410.511C322.143 410.723 322.539 410.83 323.02 410.83ZM329.22 412V403.273H330.862V404.659H330.953C331.112 404.189 331.393 403.82 331.794 403.551C332.199 403.278 332.658 403.142 333.169 403.142C333.275 403.142 333.4 403.146 333.544 403.153C333.692 403.161 333.807 403.17 333.891 403.182V404.807C333.822 404.788 333.701 404.767 333.527 404.744C333.353 404.718 333.179 404.705 333.004 404.705C332.603 404.705 332.245 404.79 331.93 404.96C331.62 405.127 331.374 405.36 331.192 405.659C331.01 405.955 330.919 406.292 330.919 406.67V412H329.22ZM339.95 403.273V404.636H335.183V403.273H339.95ZM336.462 401.182H338.161V409.438C338.161 409.767 338.21 410.015 338.308 410.182C338.407 410.345 338.534 410.456 338.689 410.517C338.848 410.574 339.02 410.602 339.206 410.602C339.342 410.602 339.462 410.593 339.564 410.574C339.666 410.555 339.746 410.54 339.803 410.528L340.109 411.932C340.011 411.97 339.871 412.008 339.689 412.045C339.507 412.087 339.28 412.11 339.007 412.114C338.56 412.121 338.143 412.042 337.757 411.875C337.371 411.708 337.058 411.451 336.82 411.102C336.581 410.754 336.462 410.316 336.462 409.79V401.182ZM343.528 406.818V412H341.83V403.273H343.46V404.693H343.568C343.769 404.231 344.083 403.86 344.511 403.58C344.943 403.299 345.487 403.159 346.142 403.159C346.737 403.159 347.258 403.284 347.705 403.534C348.152 403.78 348.498 404.148 348.744 404.636C348.991 405.125 349.114 405.729 349.114 406.449V412H347.415V406.653C347.415 406.021 347.25 405.527 346.92 405.17C346.591 404.811 346.138 404.631 345.562 404.631C345.169 404.631 344.818 404.716 344.511 404.886C344.208 405.057 343.968 405.307 343.79 405.636C343.616 405.962 343.528 406.356 343.528 406.818ZM355.153 412.176C354.294 412.176 353.553 411.992 352.932 411.625C352.314 411.254 351.837 410.733 351.5 410.062C351.167 409.388 351 408.598 351 407.693C351 406.799 351.167 406.011 351.5 405.33C351.837 404.648 352.307 404.116 352.909 403.733C353.515 403.35 354.223 403.159 355.034 403.159C355.527 403.159 356.004 403.241 356.466 403.403C356.928 403.566 357.343 403.822 357.71 404.17C358.078 404.519 358.367 404.972 358.58 405.528C358.792 406.081 358.898 406.754 358.898 407.545V408.148H351.96V406.875H357.233C357.233 406.428 357.142 406.032 356.96 405.688C356.778 405.339 356.523 405.064 356.193 404.864C355.867 404.663 355.485 404.562 355.045 404.562C354.568 404.562 354.152 404.68 353.795 404.915C353.443 405.146 353.17 405.449 352.977 405.824C352.788 406.195 352.693 406.598 352.693 407.034V408.028C352.693 408.612 352.795 409.108 353 409.517C353.208 409.926 353.498 410.239 353.869 410.455C354.241 410.667 354.674 410.773 355.17 410.773C355.492 410.773 355.786 410.727 356.051 410.636C356.316 410.542 356.545 410.402 356.739 410.216C356.932 410.03 357.08 409.801 357.182 409.528L358.79 409.818C358.661 410.292 358.43 410.706 358.097 411.062C357.767 411.415 357.352 411.689 356.852 411.886C356.356 412.08 355.79 412.176 355.153 412.176ZM360.783 412V403.273H362.425V404.659H362.516C362.675 404.189 362.955 403.82 363.357 403.551C363.762 403.278 364.22 403.142 364.732 403.142C364.838 403.142 364.963 403.146 365.107 403.153C365.254 403.161 365.37 403.17 365.453 403.182V404.807C365.385 404.788 365.264 404.767 365.089 404.744C364.915 404.718 364.741 404.705 364.567 404.705C364.165 404.705 363.807 404.79 363.493 404.96C363.182 405.127 362.936 405.36 362.754 405.659C362.572 405.955 362.482 406.292 362.482 406.67V412H360.783Z" fill="#31393C"/>
<path d="M125.976 47.0038C126.545 46.3652 127.36 46 128.216 46H141.784C142.64 46 143.455 46.3652 144.024 47.0038L172.547 79.0038C174.27 80.9376 172.898 84 170.307 84H99.6928C97.1023 84 95.7296 80.9376 97.4533 79.0038L125.976 47.0038Z" fill="url(#paint6_linear_1_1270)"/>
<rect x="134" width="2" height="47" fill="url(#paint7_linear_1_1270)"/>
<path d="M350.976 82.0038C351.545 81.3652 352.36 81 353.216 81H366.784C367.64 81 368.455 81.3652 369.024 82.0038L397.547 114.004C399.27 115.938 397.898 119 395.307 119H324.693C322.102 119 320.73 115.938 322.453 114.004L350.976 82.0038Z" fill="url(#paint8_linear_1_1270)"/>
<rect x="359" width="2" height="82" fill="url(#paint9_linear_1_1270)"/>
<path d="M248.438 233.935C243.77 239.485 239.541 248.687 236.915 250.148C234.29 251.608 229.863 252.117 225.681 265.599C221.498 279.083 242.617 277.237 242.617 277.237C242.617 277.237 251.647 272.043 255.293 259.495L264.336 251.462L248.438 233.935Z" fill="#FFBDA9"/>
<path d="M232.1 275.758C232.1 275.758 238.936 273.529 244.733 267.397C250.553 261.241 251.303 250.289 251.303 250.289L254.091 255.505L259.667 249.538L262.354 249.277L264.336 251.461L255.293 259.494C251.647 272.042 242.617 277.236 242.617 277.236C242.617 277.236 236.795 277.741 231.87 276.273C231.997 275.955 232.1 275.758 232.1 275.758Z" fill="#C97E6F"/>
<path d="M280.098 185.64C273.63 190.376 269.77 193.812 266.554 200.254C263.337 206.696 243.181 229.841 241.894 231.905C240.608 233.969 253.222 255.873 263.319 261.242C263.319 261.242 278.563 243.633 287.354 236.976C296.146 230.319 293.144 206.697 289.069 198.752C284.995 190.806 280.098 185.64 280.098 185.64Z" fill="#3E96F4"/>
<path d="M279.862 228.262V215.114C279.862 215.114 281.573 214.427 282.907 218.865C283.441 220.64 283.399 222.507 283.162 224.114L292.976 216.722C293.382 224.997 292.055 233.413 287.352 236.975C278.56 243.632 263.317 261.241 263.317 261.241C260.713 259.856 257.941 257.367 255.283 254.405C261.489 248.217 273.265 236.269 279.862 228.262Z" fill="#1B72B2"/>
<path d="M217.154 272.043C215.475 272.568 214.235 273.371 214.235 275.488C214.235 277.606 214.6 280.966 215.402 282.28C216.204 283.595 220.346 284.382 220.346 284.382C220.346 284.382 220.069 275.634 219.194 274.027C218.32 272.421 217.154 272.043 217.154 272.043Z" fill="#FFBDA9"/>
<path d="M215.402 282.281C215.176 281.912 214.989 281.371 214.831 280.75C215.731 281.635 216.032 281.642 217.132 281.759L220.277 282.74C220.326 283.725 220.346 284.383 220.346 284.383C220.346 284.383 216.204 283.595 215.402 282.281Z" fill="#C97E6F"/>
<path d="M221.161 268.843C219.119 269.062 217.078 270.596 217.078 272.714C217.078 274.832 216.349 280.747 217.078 281.697C217.807 282.647 221.381 285.349 222.621 285.568C223.861 285.786 225.966 285.421 225.678 284.764C225.391 284.106 221.161 268.843 221.161 268.843Z" fill="#FFBDA9"/>
<path d="M216.769 280.106C218.318 281.856 222.277 281.699 222.277 281.699C222.277 281.699 224.017 283.56 224.231 284.158C224.361 284.519 225.073 284.994 225.17 285.362C224.515 285.612 223.398 285.704 222.622 285.567C221.406 285.352 217.955 282.754 217.132 281.758L216.769 280.11C216.769 280.11 216.769 280.108 216.769 280.106Z" fill="#C97E6F"/>
<path d="M228.815 265.349C222.55 265.703 221.383 266.287 221.165 268.843C220.946 271.399 221.092 278.848 221.894 280.747C222.696 282.646 223.134 284.326 224.155 285.348C225.175 286.37 226.703 286.374 226.703 286.374C226.703 286.374 230.135 281.332 230.28 277.096C230.426 272.859 228.815 265.349 228.815 265.349Z" fill="#FFBDA9"/>
<path d="M225.209 282.178C225.527 280.443 226.232 278.594 226.321 272.79C226.355 270.609 228.374 281.998 227.473 285.123C227.023 285.898 226.701 286.373 226.701 286.373C226.701 286.373 225.173 286.37 224.152 285.347C223.131 284.325 222.694 282.645 221.891 280.746C221.839 280.623 221.79 280.473 221.743 280.306C222.152 281.372 223.451 282.071 225.209 282.178Z" fill="#C97E6F"/>
<path d="M242.529 278.191C242.134 281.68 237.57 282.938 237.059 284.69C236.548 286.443 236.913 288.049 236.038 288.488C235.163 288.926 231.517 286.881 231.663 284.544C231.663 284.544 230.714 286.516 228.6 286.881C226.484 287.246 225.975 285.699 226.339 283.369C226.704 281.038 226.631 279.797 226.558 277.022C226.484 274.247 225.828 271.691 227.068 268.624C228.308 265.556 229.985 262.854 233.34 263.366C236.694 263.877 238.737 268.113 240.56 269.573C242.383 271.034 242.966 274.32 242.529 278.191Z" fill="#FFBDA9"/>
<path d="M231.667 284.545C231.871 280.107 232.103 276.474 232.103 275.758C232.103 275.042 231.871 270.332 233.544 270.046C233.798 270.002 237.476 272.336 237.547 273.911C237.618 275.486 237.547 278.313 236.403 279.119C235.258 279.924 231.667 284.545 231.667 284.545Z" fill="#C97E6F"/>
<path fill-rule="evenodd" clip-rule="evenodd" d="M369.605 182.813C375.151 186.015 377.591 187.424 383.632 195.101C383.632 195.101 376.412 211.564 374.984 223.589C374.346 228.956 373.423 243.618 372.495 258.362C371.703 270.948 370.907 283.594 370.281 290.57H286.03C284.956 279.087 282.981 256.385 282.961 244.491C282.934 229.314 280.509 217.995 278.617 209.163C276.618 199.834 275.213 193.279 277.858 187.881C279.063 185.422 284.862 182.945 290.728 180.439C292.352 179.745 293.98 179.049 295.518 178.351C295.935 178.162 296.402 177.949 296.912 177.716C305.096 173.984 324.548 165.112 329.595 166.325C334.955 167.614 360.973 177.778 367.835 181.787C368.461 182.152 369.048 182.492 369.605 182.813Z" fill="#3E96F4"/>
<path d="M278.155 204.334C278.184 202.266 277.964 200.234 277.686 198.209C277.382 196.189 277.018 194.177 276.404 192.201C276.374 194.27 276.594 196.303 276.874 198.327C277.179 200.347 277.543 202.358 278.155 204.334Z" fill="#3380C4"/>
<path d="M308.709 192.04C305.553 190.859 298.074 192.912 296.707 193.389C295.34 193.865 297.511 188.014 298.315 187.289C299.118 186.565 300.405 184.877 302.871 185.641C305.337 186.404 307.409 189.232 307.768 190.162C308.126 191.092 308.709 192.04 308.709 192.04Z" fill="#1B72B2"/>
<path d="M335.008 196.925C333.882 196.872 327.315 193.847 325.743 193.096C324.17 192.344 317.047 191.993 312.264 193.332C312.264 193.332 321.472 187.101 326.833 187.155C332.195 187.208 334.231 189.141 334.66 190.859C335.088 192.577 335.008 196.925 335.008 196.925Z" fill="#1B72B2"/>
<path fill-rule="evenodd" clip-rule="evenodd" d="M310.742 284.1C304.531 284.154 300.14 284.192 299.893 284.433C299.349 284.965 291.885 285.498 286.293 285.826C286.373 287.728 286.441 289.471 286.497 291H370.244C370.876 284.124 371.689 271.205 372.498 258.35C373.426 243.61 374.348 228.955 374.986 223.589C375.212 221.69 375.583 219.678 376.046 217.64C369.178 210.272 361.147 206.267 361.147 206.267L356.912 208.63L353.292 215.924C353.292 215.924 358.233 241.457 356.912 250.719C356.483 253.726 347.477 263.944 341.259 265.977C341.259 265.977 350.584 267.407 357.007 263.972C357.007 263.972 356.27 274.126 355.197 279.709C354.426 283.724 326.63 283.963 310.742 284.1Z" fill="#1B72B2"/>
<path d="M310.725 193.597C316.482 192.903 325.735 187.907 329.38 189.625C333.025 191.343 333.883 195.745 334.634 196.497C335.384 197.249 338.601 193.491 338.601 184.257C338.601 175.023 338.884 165.568 332.095 164.283C325.306 162.997 307.723 169.655 304.184 172.339C300.646 175.023 299.145 177.741 298.18 180.355C297.215 182.968 294.642 193.491 295.821 193.598C297 193.706 300.324 186.834 302.79 186.619C305.257 186.403 309.165 193.786 310.725 193.597Z" fill="#3E96F4"/>
<path d="M307.449 185.33C305.981 181.841 304.373 178.78 304.426 176.364C304.48 173.948 305.016 172.284 307.696 171.532C310.376 170.781 311.502 172.23 311.663 175.881C311.825 179.532 307.449 185.33 307.449 185.33Z" fill="#1B72B2"/>
<path d="M328.466 178.825C334.07 173.734 334.705 168.043 334.178 166.862C333.652 165.682 331.337 164.822 331.337 164.822C331.337 164.822 330.426 168.527 330.962 169.44C331.497 170.352 328.466 178.825 328.466 178.825Z" fill="#1B72B2"/>
<path d="M319.547 191.131C320.977 190.692 322.415 190.293 323.878 190.036C325.328 189.763 326.819 189.565 328.246 189.734C328.95 189.822 329.645 190.023 330.131 190.43C330.595 190.897 331.124 191.503 331.577 192.053C332.52 193.162 333.163 194.462 333.812 195.822C333.9 195.994 333.992 196.17 334.112 196.35C334.237 196.526 334.366 196.731 334.673 196.886C334.826 196.958 335.03 196.985 335.199 196.945C335.362 196.905 335.498 196.835 335.598 196.76C335.805 196.609 335.945 196.447 336.076 196.285C336.568 195.631 336.906 194.957 337.239 194.273C337.913 192.879 338.288 191.368 338.488 189.874C338.9 186.874 338.896 183.855 338.601 180.874C338.58 182.371 338.538 183.864 338.41 185.35C338.307 186.836 338.146 188.317 337.866 189.769C337.578 191.22 337.216 192.645 336.542 193.93C336.207 194.581 335.865 195.249 335.447 195.785C335.344 195.914 335.231 196.031 335.135 196.099C335.019 196.171 335.024 196.153 335.012 196.148C334.913 196.115 334.688 195.757 334.544 195.452C333.897 194.126 333.194 192.717 332.173 191.555C331.658 190.967 331.196 190.449 330.59 189.876C329.902 189.331 329.076 189.164 328.308 189.106C326.75 189.005 325.25 189.288 323.79 189.644C322.337 190.037 320.913 190.517 319.547 191.131Z" fill="#1B72B2"/>
<path d="M306.345 189.205C305.859 188.529 305.294 187.915 304.681 187.335C304.363 187.055 304.03 186.788 303.641 186.567C303.442 186.461 303.226 186.372 302.976 186.321C302.844 186.313 302.705 186.298 302.564 186.326C302.423 186.365 302.25 186.427 302.183 186.475C301.443 186.867 300.726 187.377 300.107 187.97C299.487 188.566 298.953 189.234 298.466 189.923C297.979 190.63 297.592 191.349 297.108 191.973C296.873 192.291 296.616 192.595 296.342 192.828C296.212 192.942 296.05 193.035 295.98 193.041C295.94 193.053 295.959 193.045 295.94 193.046C295.926 193.036 295.886 193 295.861 192.929C295.743 192.65 295.735 192.222 295.737 191.833C295.743 191.432 295.774 191.025 295.82 190.617C295.888 189.797 296.036 188.983 296.147 188.158C295.855 188.939 295.628 189.737 295.423 190.551C295.328 190.958 295.253 191.373 295.2 191.797C295.161 192.227 295.112 192.65 295.262 193.159C295.303 193.284 295.373 193.43 295.514 193.558C295.654 193.684 295.884 193.754 296.051 193.726C296.396 193.685 296.592 193.53 296.786 193.395C297.155 193.108 297.447 192.786 297.72 192.453C298.269 191.78 298.675 191.039 299.139 190.391C300.053 189.048 301.129 187.876 302.511 187.022C302.612 186.946 302.644 186.96 302.696 186.926C302.753 186.909 302.827 186.914 302.899 186.907C303.059 186.927 303.23 186.981 303.407 187.048C303.759 187.199 304.099 187.418 304.432 187.647C305.106 188.104 305.724 188.654 306.345 189.205Z" fill="#1B6BB2"/>
<path d="M306.665 164.356C306.677 166.625 306.767 168.887 307.003 171.144C307.581 176.681 307.014 183.983 307.451 185.33C307.939 186.833 310.833 192.202 310.833 192.202C310.833 192.202 315.98 189.839 318.124 187.263C320.268 184.686 323.056 184.556 326.809 180.756C330.561 176.956 333.112 170.92 332.277 165.897C332.17 165.253 331.51 158.822 331.365 152.165C331.22 145.508 324.235 140.45 317.588 140.45C310.941 140.45 306.962 150.328 306.753 156.985C306.668 159.715 306.652 162.28 306.665 164.356Z" fill="#FFBDA9"/>
<path d="M331.366 152.163C331.511 158.82 332.17 165.251 332.277 165.896C332.536 167.449 332.468 169.099 332.144 170.749C330.673 171.021 311.741 171.479 306.837 169.192C306.725 167.583 306.673 165.972 306.664 164.357C306.653 162.281 306.668 159.716 306.754 156.985C306.842 154.162 307.61 150.764 308.97 147.782L324.544 142.254C328.366 144.296 331.273 147.897 331.366 152.163Z" fill="#C97E6F"/>
<path d="M282.305 129.013C282.899 132.543 284.643 133.892 285.423 138.65C286.202 143.408 284.124 150.323 287.223 156.345C290.322 162.367 295.333 170.285 298.228 170.62C301.124 170.954 324.313 167.032 332.137 151.45C334.383 146.977 339.183 129.438 335.075 118.729C330.968 108.02 324.286 98.2053 308.844 97.9084C293.404 97.6108 279.156 110.307 282.305 129.013Z" fill="#FFBDA9"/>
<path d="M295.22 148.306C296.046 148.325 296.951 148.01 297.358 147.468C297.714 146.993 297.862 146.369 297.757 145.785C296.55 146.781 295.07 146.952 293.584 146.693C293.401 147.803 294.255 148.284 295.22 148.306Z" fill="#C97E6F"/>
<path d="M322.54 129.013C321.952 125.342 319.501 123.223 319.501 123.223C319.501 123.223 313.599 120.77 309.034 120.324C304.468 119.878 299.791 118.54 299.791 118.54C299.791 118.54 301.239 122.211 303.689 123.776C303.689 123.776 292.776 123.223 289.323 119.989C289.323 119.989 289.991 122.654 290.659 124.445C290.659 124.445 285.313 123.893 283.643 121.774C283.643 121.774 282.307 126.44 282.307 129.013C282.307 129.013 275.885 120.212 277.519 113.223C279.153 106.234 281.379 103.559 281.379 103.559C281.379 103.559 276.777 104.004 274.253 103.559C274.253 103.559 280.192 98.3541 284.647 94.9341C289.101 91.514 302.464 91.3652 302.464 91.3652C302.464 91.3652 303.689 91.3652 307.136 91.3655C307.136 91.3655 310.939 90.8498 317.594 92.1288C322.54 93.0796 319.735 92.4092 326.151 94.0308C332.566 95.6524 336.425 98.6547 338.986 102.112C341.838 105.962 342.313 109.242 342.313 109.242C342.313 109.242 342.789 115.422 341.838 120.651C341.838 120.651 340.552 133.683 336.134 143.469C331.715 153.254 331.38 138.715 330.429 131.585C328.053 124.445 322.54 129.013 322.54 129.013Z" fill="#31393C"/>
<path d="M304.838 151.518C302.12 153.017 293.241 153.516 292.637 153.433C292.032 153.35 293.273 160.101 295.447 160.351C297.622 160.601 301.971 160.018 303.783 158.269C305.595 156.52 304.838 151.518 304.838 151.518Z" fill="#C97E6F"/>
<path d="M304.272 153.486C304.104 152.887 303.974 152.406 303.847 151.938C300.857 152.96 294.97 153.393 293.155 153.436C293.303 154.339 293.563 155.253 293.931 156.151C293.988 156.114 293.917 156.237 293.973 156.2C297.892 156.818 301.879 155.546 304.272 153.486Z" fill="white"/>
<path d="M303.633 135.379C303.633 134.147 304.24 133.149 304.988 133.149C305.736 133.149 306.343 134.147 306.343 135.379C306.343 136.611 305.736 137.609 304.988 137.609C304.24 137.609 303.633 136.611 303.633 135.379Z" fill="#31393C"/>
<path d="M288.132 136.419C288.132 135.187 288.653 134.189 289.297 134.189C289.94 134.189 290.462 135.187 290.462 136.419C290.462 137.651 289.94 138.649 289.297 138.649C288.653 138.65 288.132 137.651 288.132 136.419Z" fill="#31393C"/>
<path d="M311.219 126.684C310.293 126.174 309.297 125.821 308.273 125.527C307.246 125.25 306.18 125.088 305.099 125.05C304.024 124.996 302.887 124.966 301.846 125.368C300.802 125.728 299.855 126.385 299.158 127.251L299.237 127.384C300.355 127.263 301.279 126.988 302.255 126.859C303.209 126.716 304.134 126.366 305.131 126.286C307.103 126.118 309.168 126.274 311.156 126.824L311.219 126.684Z" fill="#31393C"/>
<path d="M284.213 129.566C284.696 129.379 285.204 129.261 285.711 129.202C286.215 129.134 286.72 129.109 287.219 129.103C287.723 129.097 288.223 129.277 288.714 129.156C288.962 129.1 289.215 129.052 289.473 128.945C289.733 128.856 289.998 128.741 290.283 128.541L290.299 128.387C289.815 127.913 289.266 127.711 288.71 127.61C288.147 127.504 287.59 127.73 287.05 127.878C286.506 128.02 285.974 128.21 285.474 128.466C284.982 128.739 284.501 129.024 284.119 129.444L284.213 129.566Z" fill="#31393C"/>
<path d="M299.889 289.725C299.895 290.07 299.413 290.57 298.233 290.57C297.054 290.57 265.335 290.57 261.048 290.57C256.759 290.57 255.759 288.871 257.044 286.724C258.331 284.577 263.763 279.852 277.201 276.559C290.639 273.267 297.705 280.965 299.889 284.433C301.491 286.976 299.889 289.725 299.889 289.725Z" fill="#C1C9D1"/>
<path d="M256.728 287.368C257.467 289.832 285.842 288.547 285.842 288.547C285.842 288.547 282.965 284.655 279.784 284.544C276.603 284.433 275.057 285.54 270.791 286.275C266.525 287.01 269.688 284.537 269.688 284.537C269.688 284.537 266.675 283.868 265.447 282.916C265.447 282.916 272.475 280.836 275.424 280.353C278.373 279.869 285.878 280.191 286.843 280.353C287.525 280.467 290.988 278.452 295.174 279.464C297.51 281.172 299.055 283.11 299.889 284.433C301.491 286.976 299.889 289.725 299.889 289.725C299.895 290.07 299.413 290.57 298.233 290.57C297.054 290.57 265.335 290.57 261.048 290.57C257.2 290.569 256.005 289.2 256.728 287.368Z" fill="#808A91"/>
<path d="M378.092 266.442C378.092 266.442 351.648 270.537 337.314 273.106C323.736 275.539 312.011 276.595 308.687 275.951C305.363 275.307 293.998 271.119 290.352 269.616C286.707 268.113 279.416 267.254 275.664 268.435C271.911 269.616 268.838 270.905 267.337 270.905C265.836 270.905 266.121 273.339 268.123 273.839C270.124 274.34 271.911 274.269 271.911 274.269C271.911 274.269 265.121 277.99 263.906 278.349C262.691 278.708 264.13 280.926 265.775 280.783C265.775 280.783 264.335 281.642 264.836 282.501C265.336 283.36 268.91 283.36 268.91 283.36C268.91 283.36 264.55 285.507 268.196 286.367C271.841 287.225 276.201 283.146 277.988 282.788C279.775 282.43 283.921 282.645 285.922 284.148C287.923 285.651 296.501 292.595 308.223 288.443C308.223 288.443 387.788 291.671 395.722 291.671C403.656 291.671 408.448 284.649 405.904 271.12C403.36 257.591 398.428 247.498 398.428 247.498L370.981 249.431L378.092 266.442Z" fill="#FFBDA9"/>
<path d="M278.179 272.118C278.88 271.953 279.438 271.857 279.788 271.835C279.788 271.835 279.109 271.952 278.179 272.118Z" fill="#C97E6F"/>
<path d="M271.915 274.269C271.915 274.269 270.128 274.34 268.127 273.84C267.565 273.699 267.143 273.403 266.853 273.053C269.079 274.039 271.818 273.41 273.319 273.052C274.265 272.826 276.591 272.401 278.18 272.118C276.587 272.493 274.255 273.225 271.915 274.269Z" fill="#C97E6F"/>
<path d="M272.258 277.489C272.429 277.411 272.575 277.35 272.668 277.321C272.668 277.321 272.514 277.385 272.258 277.489Z" fill="#C97E6F"/>
<path d="M263.917 279.943C263.943 279.966 264.728 280.659 266.38 279.939C267.756 279.34 271.095 277.967 272.259 277.49C270.795 278.155 266.828 280.398 265.772 280.783C265.04 280.846 264.351 280.442 263.917 279.943Z" fill="#C97E6F"/>
<path d="M268.029 282.571C269.245 282.214 271.782 280.674 273.336 279.938C274.891 279.202 276.875 279.117 276.875 279.117C276.875 279.117 276.285 279.17 274.731 279.938C273.176 280.705 268.913 283.358 268.913 283.358C268.913 283.358 266.619 283.357 265.451 282.915C265.462 282.916 266.82 282.928 268.029 282.571Z" fill="#C97E6F"/>
<path d="M290.651 284.326C292.902 285.722 299.55 287.547 303.517 286.795C307.485 286.043 308.342 282.715 308.342 282.715L309.45 286.293C309.45 286.293 364.63 287.868 375.853 287.363C386.945 286.864 404.248 286.612 406.508 279.938C405.888 287.683 401.699 291.67 395.724 291.67C387.79 291.67 308.226 288.441 308.226 288.441C296.503 292.593 287.926 285.649 285.924 284.146C284.261 282.896 281.119 282.539 279.079 282.66C282.121 281.591 288.399 282.93 290.651 284.326Z" fill="#C97E6F"/>
<path d="M378.094 266.442C378.094 266.442 388.432 265.035 390.505 264.82L388.932 258.378L375.852 261.027L378.094 266.442Z" fill="#C97E6F"/>
<path d="M405.718 248.408C406.107 249.416 405.86 250.55 405.088 251.306C400.283 256.005 393.976 262.404 387.488 263.389C380.411 264.462 368.618 264.892 367.974 263.389C367.331 261.885 364.972 242.773 360.683 233.11C356.395 223.447 353.607 218.507 352.535 212.924C351.464 207.342 361.113 194.242 365.402 193.168C369.69 192.094 379.554 191.45 383.628 195.101C387.703 198.751 390.705 212.71 395.422 223.232C399.228 231.722 404.012 243.988 405.718 248.408Z" fill="#3E96F4"/>
<path d="M379.178 192.981C376.607 192.343 373.947 192.084 371.286 192.09C369.953 192.079 368.619 192.204 367.295 192.394C366.631 192.479 365.977 192.637 365.32 192.774C364.666 192.998 363.984 193.179 363.394 193.537C362.764 193.829 362.236 194.265 361.673 194.652C361.171 195.105 360.625 195.518 360.18 196.025C359.232 196.986 358.421 198.058 357.674 199.164C356.206 201.393 354.98 203.768 354.094 206.267C354.697 205.088 355.317 203.925 356.014 202.807C356.692 201.68 357.404 200.576 358.189 199.53C358.995 198.503 359.788 197.461 360.731 196.574C361.171 196.097 361.686 195.711 362.167 195.286C362.697 194.932 363.197 194.524 363.774 194.265C364.316 193.926 364.923 193.769 365.511 193.555C366.145 193.412 366.776 193.264 367.418 193.161C368.698 192.93 369.998 192.8 371.304 192.72C372.609 192.643 373.923 192.639 375.235 192.691C376.552 192.72 377.865 192.829 379.178 192.981Z" fill="#1C69AF"/>
<path d="M400.364 252.365C400.328 248.934 393.093 217.478 386.703 199.946C389.42 205.936 391.959 215.507 395.421 223.231C399.228 231.722 404.012 243.988 405.718 248.408C406.107 249.416 405.86 250.55 405.088 251.306C403.248 253.106 401.185 255.154 398.978 257.053C399.144 256.891 400.397 255.568 400.364 252.365Z" fill="#1B72B2"/>
<g clip-path="url(#clip1_1_1270)">
<path fill-rule="evenodd" clip-rule="evenodd" d="M326.245 214.044L324.27 210.357C324.249 210.319 324.218 210.287 324.18 210.265C324.143 210.243 324.1 210.231 324.056 210.231C324.013 210.231 323.97 210.243 323.932 210.265C323.895 210.287 323.864 210.319 323.843 210.357L321.868 214.044C321.848 214.081 321.838 214.123 321.839 214.165C321.84 214.207 321.851 214.248 321.873 214.284C321.894 214.32 321.925 214.35 321.961 214.371C321.998 214.392 322.039 214.403 322.081 214.403H322.479C322.567 214.403 322.652 214.379 322.727 214.335C322.802 214.29 322.864 214.227 322.906 214.151L323.18 213.634H324.925L325.2 214.151C325.242 214.228 325.303 214.292 325.379 214.336C325.454 214.381 325.54 214.404 325.627 214.403H326.025C326.068 214.403 326.109 214.393 326.146 214.372C326.183 214.351 326.214 214.321 326.236 214.285C326.258 214.249 326.271 214.208 326.272 214.166C326.274 214.124 326.264 214.082 326.245 214.044ZM323.557 212.939L323.843 212.4C323.864 212.362 323.895 212.331 323.932 212.309C323.97 212.286 324.013 212.275 324.056 212.275C324.1 212.275 324.143 212.286 324.18 212.309C324.218 212.331 324.249 212.362 324.27 212.4L324.556 212.939H323.557H323.557Z" fill="#1E0B4B"/>
<path fill-rule="evenodd" clip-rule="evenodd" d="M344.549 214.044L342.574 210.357C342.553 210.319 342.522 210.287 342.484 210.265C342.447 210.243 342.404 210.231 342.361 210.231C342.317 210.231 342.274 210.243 342.237 210.265C342.199 210.287 342.168 210.319 342.147 210.357L340.172 214.044C340.152 214.081 340.142 214.123 340.143 214.165C340.144 214.207 340.155 214.248 340.177 214.284C340.198 214.32 340.229 214.35 340.265 214.371C340.302 214.392 340.343 214.403 340.385 214.403H340.784C340.871 214.403 340.956 214.379 341.031 214.335C341.106 214.29 341.168 214.227 341.21 214.151L341.484 213.634H343.23L343.504 214.151C343.545 214.228 343.607 214.292 343.682 214.336C343.757 214.381 343.843 214.404 343.931 214.403H344.329C344.371 214.403 344.413 214.393 344.45 214.372C344.487 214.351 344.518 214.322 344.54 214.286C344.562 214.25 344.575 214.208 344.576 214.166C344.578 214.124 344.568 214.082 344.549 214.044ZM341.856 212.939L342.142 212.4C342.163 212.362 342.194 212.331 342.231 212.309C342.269 212.286 342.312 212.275 342.355 212.275C342.399 212.275 342.441 212.286 342.479 212.309C342.516 212.331 342.547 212.362 342.568 212.4L342.855 212.939H341.856H341.856Z" fill="#1E0B4B"/>
<path fill-rule="evenodd" clip-rule="evenodd" d="M321.166 213.113C321.177 213.292 321.148 213.47 321.081 213.636C321.014 213.802 320.911 213.952 320.779 214.073C320.52 214.306 320.179 214.429 319.83 214.415C319.426 214.415 319.025 214.348 318.642 214.218C318.204 214.072 318.154 213.854 318.154 213.702V213.624C318.155 213.486 318.192 213.35 318.261 213.231C318.884 213.5 319.338 213.629 319.652 213.629H319.724C320.128 213.601 320.335 213.467 320.335 213.231C320.333 213.128 320.3 213.028 320.24 212.945C320.18 212.862 320.096 212.799 319.999 212.765C319.772 212.664 319.539 212.576 319.303 212.501C318.932 212.378 318.842 212.311 318.826 212.288L318.814 212.277L318.803 212.266C318.664 212.177 318.551 212.051 318.479 211.903C318.407 211.754 318.377 211.588 318.394 211.424C318.389 211.248 318.421 211.074 318.488 210.912C318.555 210.75 318.654 210.603 318.781 210.481C319.038 210.242 319.378 210.111 319.729 210.116H319.769C320.14 210.116 320.611 210.245 321.178 210.497C321.155 210.587 321.133 210.688 321.099 210.783C321.094 210.795 321.088 210.811 321.082 210.823C321.021 210.985 320.931 211.115 320.808 211.115C320.785 211.116 320.762 211.113 320.741 211.103C320.404 210.966 320.048 210.881 319.685 210.852C319.619 210.845 319.551 210.853 319.488 210.875C319.425 210.898 319.368 210.934 319.32 210.981C319.288 211.016 319.263 211.058 319.248 211.103C319.234 211.149 319.23 211.197 319.236 211.245C319.236 211.374 319.298 211.548 319.562 211.694C319.786 211.807 320.019 211.904 320.257 211.985C320.432 212.037 320.601 212.107 320.763 212.193C320.898 212.303 321.005 212.444 321.076 212.604C321.146 212.764 321.177 212.938 321.166 213.113Z" fill="#1E0B4B"/>
<path fill-rule="evenodd" clip-rule="evenodd" d="M330.779 210.245V213.993C330.779 214.207 330.717 214.403 330.291 214.403C330.207 214.408 330.122 214.394 330.044 214.361C329.966 214.328 329.897 214.277 329.842 214.212L328.366 212.456L328.068 212.103V213.994C328.068 214.207 328.007 214.403 327.581 214.403H327.087V210.251H327.592C327.678 210.242 327.765 210.256 327.845 210.29C327.924 210.324 327.994 210.378 328.046 210.447L328.052 210.453L328.046 210.458L329.5 212.187L329.797 212.54V210.655C329.797 210.442 329.859 210.245 330.28 210.245H330.779L330.779 210.245Z" fill="#1E0B4B"/>
<path fill-rule="evenodd" clip-rule="evenodd" d="M334.853 213.113C334.863 213.292 334.834 213.47 334.767 213.636C334.7 213.802 334.597 213.951 334.465 214.073C334.206 214.306 333.866 214.429 333.517 214.415C333.112 214.415 332.711 214.348 332.327 214.219C331.89 214.073 331.84 213.854 331.84 213.702V213.601C331.842 213.47 331.879 213.343 331.946 213.231C332.569 213.5 333.024 213.629 333.338 213.629H333.411C333.815 213.601 334.023 213.466 334.023 213.231C334.019 213.127 333.985 213.028 333.924 212.945C333.863 212.861 333.778 212.799 333.68 212.765C333.454 212.663 333.222 212.575 332.985 212.501C332.614 212.378 332.524 212.31 332.508 212.288L332.496 212.277L332.485 212.265C332.346 212.173 332.234 212.046 332.161 211.896C332.088 211.745 332.056 211.578 332.07 211.412C332.066 211.237 332.098 211.062 332.164 210.9C332.231 210.738 332.331 210.591 332.457 210.469C332.714 210.23 333.054 210.1 333.405 210.105H333.444C333.814 210.105 334.286 210.234 334.853 210.486C334.831 210.597 334.799 210.706 334.757 210.812C334.752 210.823 334.746 210.84 334.74 210.851C334.679 210.991 334.594 211.103 334.482 211.103C334.459 211.104 334.436 211.101 334.415 211.092C334.078 210.954 333.722 210.869 333.36 210.84C333.293 210.833 333.226 210.841 333.163 210.863C333.1 210.886 333.043 210.922 332.995 210.969C332.962 211.004 332.938 211.046 332.923 211.091C332.909 211.137 332.904 211.185 332.911 211.233C332.911 211.361 332.972 211.536 333.236 211.681C333.461 211.795 333.694 211.892 333.932 211.973C334.107 212.025 334.276 212.095 334.437 212.181C334.576 212.292 334.686 212.434 334.758 212.596C334.83 212.759 334.863 212.936 334.853 213.113Z" fill="#1E0B4B"/>
<path fill-rule="evenodd" clip-rule="evenodd" d="M339.381 213.994C339.373 214.057 339.353 214.118 339.321 214.173C339.289 214.228 339.247 214.276 339.196 214.314C339.114 214.393 339.006 214.439 338.893 214.443C338.874 214.444 338.855 214.442 338.837 214.437C338.761 214.424 338.688 214.395 338.623 214.352C338.559 214.31 338.503 214.255 338.461 214.19V214.185L338.455 214.179L337.187 212.765L336.896 212.439V213.994C336.896 214.201 336.84 214.398 336.436 214.403H335.919V210.251H336.901V212.193L337.193 211.867L338.461 210.459L338.467 210.453V210.447C338.555 210.319 338.69 210.231 338.843 210.2C338.86 210.2 338.882 210.195 338.899 210.195C338.955 210.195 339.01 210.207 339.061 210.229C339.112 210.251 339.158 210.284 339.196 210.324C339.207 210.332 339.217 210.341 339.224 210.352L339.253 210.38C339.322 210.451 339.366 210.544 339.376 210.644C339.37 210.782 339.31 210.913 339.208 211.008L338.159 212.198L338.058 212.31L338.153 212.422L339.208 213.623C339.311 213.72 339.373 213.853 339.381 213.994Z" fill="#1E0B4B"/>
<path fill-rule="evenodd" clip-rule="evenodd" d="M348.41 213.59L348.404 213.579L347.804 212.76L347.691 212.608L347.854 212.513C348.247 212.288 348.443 211.929 348.443 211.413C348.438 211.115 348.322 210.829 348.118 210.611C348.023 210.494 347.902 210.4 347.765 210.337C347.627 210.273 347.478 210.242 347.327 210.246H345.346V214.398H345.851C346.272 214.393 346.328 214.202 346.328 213.989V212.35L346.631 212.765L347.669 214.185C347.714 214.25 347.771 214.305 347.838 214.348C347.904 214.39 347.979 214.419 348.056 214.432H348.073C348.204 214.429 348.329 214.379 348.427 214.291C348.476 214.258 348.517 214.214 348.547 214.162C348.577 214.111 348.595 214.053 348.601 213.994C348.587 213.841 348.519 213.698 348.41 213.59ZM346.872 212.176H346.322V210.818H346.872C347.332 210.818 347.602 211.065 347.602 211.497C347.602 211.929 347.332 212.176 346.872 212.176Z" fill="#1E0B4B"/>
<path fill-rule="evenodd" clip-rule="evenodd" d="M319.004 218.562C319.018 218.576 319.036 218.587 319.056 218.594C319.075 218.6 319.095 218.603 319.116 218.601C319.136 218.603 319.155 218.6 319.174 218.594C319.192 218.587 319.209 218.576 319.223 218.562C319.236 218.548 319.247 218.531 319.254 218.513C319.26 218.494 319.263 218.475 319.262 218.455V216.603C319.26 216.564 319.266 216.524 319.281 216.487C319.295 216.451 319.317 216.417 319.346 216.39C319.374 216.362 319.407 216.341 319.444 216.326C319.481 216.312 319.52 216.305 319.559 216.306H320.025C320.06 216.307 320.094 216.295 320.121 216.272C320.133 216.259 320.142 216.242 320.148 216.225C320.153 216.208 320.156 216.189 320.154 216.171C320.157 216.154 320.155 216.136 320.149 216.119C320.143 216.103 320.133 216.088 320.121 216.076C320.108 216.063 320.093 216.054 320.077 216.048C320.06 216.042 320.043 216.04 320.025 216.042H318.207C318.172 216.041 318.138 216.053 318.111 216.076C318.099 216.09 318.09 216.106 318.084 216.123C318.079 216.14 318.076 216.159 318.078 216.177C318.075 216.194 318.077 216.212 318.083 216.229C318.089 216.245 318.099 216.26 318.111 216.272C318.124 216.285 318.139 216.294 318.155 216.3C318.172 216.306 318.189 216.308 318.207 216.306H318.667C318.707 216.304 318.746 216.31 318.783 216.325C318.82 216.339 318.853 216.361 318.88 216.39C318.932 216.449 318.961 216.525 318.959 216.603V218.455C318.961 218.495 318.977 218.533 319.004 218.562Z" fill="#2A2A2D"/>
<path fill-rule="evenodd" clip-rule="evenodd" d="M320.873 216.031C320.853 216.03 320.833 216.032 320.815 216.039C320.797 216.046 320.78 216.057 320.766 216.071C320.752 216.084 320.741 216.101 320.734 216.12C320.728 216.138 320.725 216.158 320.726 216.177V216.149C320.725 216.134 320.727 216.118 320.733 216.103C320.739 216.088 320.748 216.075 320.76 216.065C320.771 216.053 320.786 216.044 320.801 216.038C320.817 216.033 320.833 216.03 320.85 216.031L320.873 216.031Z" fill="#2A2A2D"/>
<path fill-rule="evenodd" clip-rule="evenodd" d="M320.856 218.601H320.845C320.828 218.602 320.811 218.6 320.796 218.594C320.781 218.588 320.766 218.579 320.755 218.567C320.735 218.546 320.725 218.518 320.726 218.489C320.729 218.516 320.741 218.542 320.76 218.562C320.772 218.575 320.787 218.586 320.803 218.593C320.82 218.599 320.838 218.602 320.856 218.601Z" fill="#2A2A2D"/>
<path fill-rule="evenodd" clip-rule="evenodd" d="M322.332 218.45V218.461C322.333 218.444 322.33 218.426 322.325 218.41C322.319 218.393 322.31 218.378 322.298 218.365C322.285 218.353 322.27 218.344 322.254 218.338C322.237 218.332 322.22 218.33 322.202 218.332H322.214C322.229 218.33 322.245 218.332 322.26 218.338C322.274 218.344 322.288 218.353 322.298 218.365C322.319 218.389 322.331 218.419 322.332 218.45Z" fill="#2A2A2D"/>
<path fill-rule="evenodd" clip-rule="evenodd" d="M322.332 218.461V218.478C322.333 218.494 322.33 218.511 322.324 218.526C322.318 218.542 322.309 218.556 322.298 218.568C322.287 218.579 322.274 218.588 322.259 218.593C322.245 218.599 322.229 218.602 322.214 218.602H322.202C322.22 218.603 322.237 218.6 322.253 218.595C322.27 218.589 322.285 218.58 322.298 218.568C322.321 218.537 322.333 218.499 322.332 218.461Z" fill="#2A2A2D"/>
<path fill-rule="evenodd" clip-rule="evenodd" d="M324.733 216.121C324.554 216.028 324.356 215.978 324.155 215.975C323.956 215.97 323.758 216.011 323.577 216.093C323.42 216.166 323.279 216.269 323.162 216.396C323.05 216.519 322.966 216.664 322.915 216.822C322.86 216.981 322.831 217.148 322.831 217.316C322.83 217.484 322.859 217.652 322.915 217.81C322.969 217.967 323.053 218.112 323.162 218.237C323.279 218.364 323.42 218.466 323.577 218.54C323.758 218.622 323.956 218.662 324.155 218.658C324.266 218.659 324.377 218.648 324.486 218.624C324.576 218.602 324.663 218.568 324.744 218.523C324.76 218.515 324.774 218.503 324.785 218.488C324.796 218.474 324.803 218.457 324.806 218.439C324.81 218.397 324.798 218.355 324.772 218.321C324.759 218.301 324.74 218.285 324.719 218.274C324.697 218.263 324.673 218.258 324.649 218.259C324.612 218.262 324.577 218.269 324.542 218.282C324.488 218.305 324.431 218.323 324.374 218.338C324.303 218.35 324.232 218.355 324.161 218.355C323.962 218.363 323.765 218.308 323.599 218.198C323.457 218.098 323.341 217.965 323.263 217.81C323.189 217.654 323.15 217.484 323.15 217.311C323.15 217.138 323.189 216.968 323.263 216.812C323.336 216.654 323.453 216.519 323.599 216.424C323.766 216.315 323.962 216.26 324.161 216.267C324.228 216.266 324.296 216.273 324.362 216.29C324.42 216.304 324.476 216.323 324.531 216.346C324.566 216.362 324.604 216.372 324.643 216.374C324.668 216.374 324.692 216.368 324.714 216.357C324.735 216.345 324.754 216.328 324.766 216.307C324.781 216.292 324.791 216.274 324.797 216.254C324.803 216.235 324.804 216.214 324.8 216.194C324.795 216.178 324.786 216.163 324.774 216.15C324.763 216.138 324.749 216.128 324.733 216.121Z" fill="#2A2A2D"/>
<path fill-rule="evenodd" clip-rule="evenodd" d="M327.421 218.562C327.436 218.576 327.453 218.587 327.473 218.594C327.492 218.601 327.513 218.603 327.533 218.601C327.553 218.603 327.572 218.601 327.591 218.594C327.609 218.587 327.626 218.576 327.64 218.562C327.653 218.548 327.664 218.531 327.671 218.513C327.678 218.495 327.68 218.475 327.679 218.455V216.183C327.68 216.163 327.678 216.144 327.671 216.125C327.664 216.107 327.653 216.09 327.64 216.076C327.608 216.051 327.568 216.037 327.528 216.037C327.487 216.037 327.447 216.051 327.415 216.076C327.402 216.09 327.391 216.107 327.384 216.125C327.378 216.144 327.375 216.163 327.376 216.183V216.878C327.378 216.919 327.372 216.959 327.357 216.997C327.343 217.034 327.32 217.068 327.292 217.097C327.263 217.126 327.229 217.148 327.191 217.162C327.154 217.177 327.113 217.183 327.073 217.181H326.209C326.126 217.184 326.045 217.153 325.984 217.097C325.956 217.068 325.934 217.034 325.92 216.996C325.905 216.959 325.899 216.919 325.9 216.878V216.183C325.902 216.163 325.899 216.144 325.892 216.125C325.885 216.107 325.875 216.09 325.861 216.076C325.846 216.062 325.828 216.051 325.809 216.044C325.79 216.037 325.769 216.035 325.749 216.037C325.729 216.035 325.71 216.038 325.691 216.045C325.673 216.051 325.656 216.062 325.642 216.076C325.628 216.09 325.618 216.106 325.611 216.125C325.604 216.143 325.601 216.163 325.603 216.182V217.209V217.215V218.449C325.601 218.469 325.604 218.489 325.611 218.507C325.618 218.525 325.628 218.542 325.642 218.556C325.656 218.57 325.673 218.58 325.691 218.587C325.71 218.594 325.729 218.597 325.749 218.595H325.754C325.774 218.597 325.794 218.594 325.812 218.587C325.83 218.58 325.847 218.57 325.861 218.556C325.875 218.542 325.886 218.525 325.892 218.507C325.899 218.489 325.902 218.469 325.9 218.449V217.445H327.074C327.114 217.443 327.154 217.45 327.192 217.464C327.23 217.479 327.264 217.501 327.292 217.529C327.321 217.558 327.343 217.592 327.358 217.63C327.372 217.668 327.379 217.708 327.377 217.748V218.444C327.376 218.488 327.392 218.53 327.421 218.562Z" fill="#2A2A2D"/>
<path fill-rule="evenodd" clip-rule="evenodd" d="M330.501 218.595C330.505 218.591 330.507 218.585 330.507 218.579V216.183C330.508 216.163 330.506 216.144 330.499 216.125C330.492 216.107 330.481 216.09 330.468 216.076C330.453 216.062 330.435 216.051 330.416 216.044C330.397 216.037 330.376 216.035 330.356 216.037C330.336 216.035 330.316 216.038 330.298 216.045C330.28 216.051 330.263 216.062 330.249 216.076C330.235 216.09 330.224 216.106 330.218 216.125C330.211 216.143 330.208 216.163 330.21 216.182V217.451C330.21 217.63 330.114 217.653 330.069 217.653C330.039 217.65 330.009 217.641 329.982 217.626C329.955 217.612 329.932 217.592 329.912 217.568L328.515 216.07C328.507 216.06 328.497 216.051 328.486 216.045C328.474 216.039 328.461 216.036 328.448 216.037V218.455C328.446 218.475 328.449 218.495 328.456 218.513C328.463 218.531 328.473 218.548 328.487 218.562C328.502 218.576 328.52 218.587 328.539 218.594C328.558 218.601 328.579 218.603 328.599 218.601C328.619 218.603 328.638 218.6 328.657 218.594C328.675 218.587 328.692 218.576 328.706 218.562C328.72 218.548 328.73 218.532 328.737 218.513C328.744 218.495 328.747 218.475 328.745 218.456V216.744L328.891 216.901L330.462 218.59C330.462 218.595 330.468 218.595 330.485 218.595C330.487 218.597 330.49 218.598 330.493 218.598C330.496 218.598 330.499 218.597 330.501 218.595Z" fill="#2A2A2D"/>
<path fill-rule="evenodd" clip-rule="evenodd" d="M333.442 216.306C333.32 216.194 333.177 216.109 333.021 216.053C332.865 215.998 332.7 215.969 332.534 215.969C332.365 215.969 332.198 215.998 332.04 216.053C331.883 216.107 331.74 216.193 331.619 216.306C331.491 216.423 331.389 216.567 331.321 216.727C331.244 216.913 331.206 217.114 331.209 217.316C331.206 217.52 331.244 217.722 331.321 217.91C331.388 218.069 331.49 218.211 331.619 218.325C331.741 218.437 331.884 218.523 332.04 218.578C332.198 218.634 332.365 218.662 332.534 218.662C332.7 218.661 332.864 218.633 333.021 218.578C333.177 218.524 333.321 218.438 333.442 218.325C333.569 218.209 333.67 218.068 333.739 217.91C333.889 217.53 333.889 217.107 333.739 216.726C333.671 216.566 333.57 216.423 333.442 216.306ZM333.476 217.77C333.418 217.893 333.338 218.003 333.24 218.096C333.144 218.187 333.029 218.254 332.903 218.292C332.782 218.332 332.655 218.353 332.527 218.354C332.399 218.354 332.272 218.333 332.151 218.292C332.029 218.25 331.916 218.183 331.82 218.096C331.722 218.003 331.642 217.893 331.585 217.77C331.521 217.628 331.49 217.472 331.495 217.316C331.491 217.16 331.522 217.005 331.585 216.861C331.64 216.738 331.721 216.627 331.82 216.535C331.914 216.446 332.028 216.379 332.151 216.339C332.273 216.299 332.399 216.278 332.527 216.277C332.655 216.279 332.782 216.299 332.903 216.339C333.027 216.382 333.141 216.449 333.24 216.535C333.338 216.628 333.418 216.738 333.476 216.861C333.595 217.152 333.595 217.479 333.476 217.77Z" fill="#2A2A2D"/>
<path fill-rule="evenodd" clip-rule="evenodd" d="M332.359 217.495C332.333 217.473 332.312 217.445 332.298 217.414C332.283 217.383 332.276 217.35 332.275 217.316C332.275 217.283 332.282 217.251 332.296 217.221C332.309 217.191 332.329 217.164 332.353 217.142L332.359 217.136C332.381 217.112 332.408 217.093 332.438 217.08C332.468 217.066 332.5 217.059 332.533 217.058C332.566 217.057 332.598 217.064 332.628 217.078C332.658 217.092 332.685 217.111 332.707 217.136C332.733 217.159 332.753 217.186 332.768 217.217C332.782 217.248 332.79 217.282 332.791 217.316C332.791 217.349 332.783 217.381 332.77 217.411C332.756 217.441 332.737 217.468 332.712 217.49C332.69 217.516 332.662 217.536 332.632 217.551C332.601 217.565 332.567 217.573 332.533 217.574C332.5 217.575 332.467 217.568 332.437 217.554C332.407 217.541 332.38 217.521 332.359 217.495Z" fill="#2A2A2D"/>
<path fill-rule="evenodd" clip-rule="evenodd" d="M334.553 218.472C334.551 218.489 334.553 218.507 334.559 218.524C334.565 218.54 334.574 218.555 334.587 218.567C334.599 218.58 334.614 218.589 334.631 218.595C334.647 218.601 334.665 218.603 334.682 218.601H336.023C336.058 218.602 336.092 218.59 336.118 218.567C336.13 218.554 336.14 218.538 336.145 218.52C336.151 218.503 336.153 218.485 336.152 218.466C336.155 218.449 336.153 218.431 336.147 218.415C336.141 218.398 336.131 218.383 336.118 218.371C336.106 218.359 336.091 218.349 336.074 218.343C336.058 218.338 336.04 218.335 336.023 218.337H334.85V216.183C334.851 216.163 334.848 216.144 334.841 216.125C334.835 216.107 334.824 216.09 334.811 216.076C334.796 216.062 334.778 216.051 334.759 216.044C334.739 216.038 334.719 216.035 334.698 216.037C334.679 216.035 334.659 216.038 334.641 216.045C334.622 216.051 334.606 216.062 334.592 216.076C334.578 216.09 334.567 216.106 334.56 216.125C334.554 216.143 334.551 216.163 334.552 216.182V218.466V218.472H334.553Z" fill="#2A2A2D"/>
<path fill-rule="evenodd" clip-rule="evenodd" d="M321.029 216.3V217.181H322.213C322.229 217.18 322.245 217.182 322.26 217.188C322.274 217.194 322.287 217.203 322.298 217.215C322.309 217.227 322.318 217.241 322.324 217.256C322.33 217.272 322.332 217.288 322.331 217.305V217.333C322.333 217.349 322.331 217.364 322.325 217.379C322.319 217.394 322.31 217.407 322.298 217.417C322.274 217.437 322.244 217.449 322.213 217.451H321.029V218.332H322.203C322.22 218.329 322.238 218.331 322.254 218.337C322.271 218.343 322.286 218.353 322.298 218.365C322.31 218.378 322.32 218.393 322.326 218.409C322.332 218.426 322.334 218.443 322.332 218.461C322.333 218.479 322.331 218.497 322.325 218.515C322.319 218.532 322.31 218.548 322.298 218.562C322.286 218.574 322.271 218.584 322.254 218.59C322.238 218.595 322.22 218.597 322.203 218.596H320.862C320.844 218.598 320.826 218.596 320.81 218.591C320.793 218.585 320.778 218.575 320.766 218.562C320.747 218.542 320.735 218.516 320.732 218.489V218.455V216.182C320.73 216.163 320.733 216.143 320.74 216.125C320.747 216.106 320.757 216.09 320.771 216.076C320.785 216.062 320.802 216.051 320.82 216.045C320.839 216.038 320.858 216.035 320.878 216.037H322.213C322.229 216.035 322.245 216.037 322.26 216.043C322.274 216.049 322.287 216.058 322.298 216.07C322.318 216.094 322.33 216.123 322.331 216.154V216.188C322.333 216.204 322.331 216.219 322.325 216.234C322.319 216.249 322.31 216.262 322.298 216.272C322.287 216.283 322.273 216.292 322.259 216.298C322.245 216.303 322.229 216.306 322.213 216.306H321.029V216.3Z" fill="#2A2A2D"/>
<path fill-rule="evenodd" clip-rule="evenodd" d="M341.191 216.34C341.128 216.246 341.041 216.17 340.939 216.121C340.811 216.059 340.671 216.029 340.529 216.031H339.913C339.88 216.029 339.847 216.034 339.816 216.046C339.785 216.057 339.757 216.075 339.733 216.099C339.71 216.122 339.693 216.151 339.681 216.181C339.67 216.212 339.664 216.245 339.666 216.278V218.349C339.664 218.382 339.669 218.415 339.68 218.446C339.692 218.477 339.71 218.505 339.733 218.528C339.757 218.551 339.785 218.569 339.816 218.58C339.847 218.592 339.88 218.597 339.913 218.596H340.749C340.866 218.598 340.983 218.575 341.091 218.528C341.181 218.487 341.262 218.43 341.332 218.361C341.395 218.292 341.443 218.212 341.473 218.125C341.506 218.037 341.523 217.944 341.523 217.851C341.523 217.757 341.506 217.664 341.473 217.576C341.442 217.488 341.392 217.408 341.327 217.341C341.276 217.289 341.242 217.224 341.229 217.153C341.216 217.082 341.225 217.008 341.254 216.942C341.29 216.845 341.303 216.742 341.293 216.639C341.288 216.532 341.253 216.428 341.191 216.34ZM341.158 218.079C341.122 218.15 341.07 218.211 341.006 218.259C340.93 218.31 340.84 218.336 340.748 218.332H340.277C340.234 218.334 340.192 218.327 340.152 218.311C340.112 218.296 340.076 218.272 340.047 218.242C340.017 218.212 339.995 218.177 339.979 218.139C339.964 218.1 339.956 218.059 339.957 218.017V216.609C339.955 216.568 339.963 216.526 339.978 216.487C339.994 216.449 340.017 216.414 340.047 216.385C340.077 216.356 340.113 216.334 340.153 216.319C340.193 216.305 340.235 216.298 340.277 216.301H340.529C340.607 216.297 340.684 216.313 340.753 216.348C340.823 216.382 340.883 216.433 340.928 216.497C340.962 216.555 340.983 216.62 340.989 216.688C340.994 216.754 340.98 216.819 340.95 216.878C340.923 216.942 340.875 216.995 340.815 217.03C340.654 217.088 340.482 217.113 340.31 217.103C340.271 217.104 340.234 217.118 340.204 217.142C340.191 217.154 340.182 217.169 340.176 217.186C340.17 217.202 340.168 217.22 340.17 217.237C340.168 217.255 340.171 217.272 340.177 217.289C340.182 217.305 340.192 217.32 340.204 217.333C340.217 217.345 340.233 217.354 340.251 217.36C340.268 217.366 340.286 217.368 340.304 217.367H340.754C340.845 217.363 340.935 217.389 341.012 217.44C341.078 217.484 341.13 217.546 341.163 217.619C341.197 217.689 341.214 217.766 341.214 217.843C341.206 217.924 341.187 218.003 341.158 218.079Z" fill="#2A2A2D"/>
<path fill-rule="evenodd" clip-rule="evenodd" d="M338.947 218.477C338.942 218.448 338.932 218.42 338.919 218.393L338.431 217.327L337.965 216.311C337.96 216.3 337.96 216.294 337.954 216.283C337.949 216.276 337.945 216.268 337.943 216.26C337.937 216.249 337.932 216.243 337.926 216.232C337.914 216.211 337.898 216.192 337.88 216.176C337.876 216.171 337.87 216.167 337.864 216.165C337.858 216.159 337.852 216.159 337.847 216.154C337.841 216.154 337.836 216.148 337.83 216.148C337.827 216.148 337.824 216.148 337.821 216.149C337.818 216.15 337.815 216.152 337.813 216.154C337.806 216.155 337.8 216.159 337.796 216.165C337.791 216.165 337.791 216.171 337.785 216.171L337.779 216.176L337.774 216.182V216.188L337.763 216.199C337.752 216.211 337.742 216.224 337.735 216.238C337.729 216.244 337.729 216.25 337.723 216.255C337.718 216.261 337.718 216.266 337.712 216.272C337.705 216.285 337.7 216.298 337.695 216.311V216.317L337.123 217.557L336.736 218.399C336.726 218.42 336.718 218.443 336.713 218.466C336.711 218.473 336.709 218.481 336.708 218.489V218.522C336.708 218.536 336.712 218.55 336.719 218.562C336.737 218.585 336.763 218.601 336.792 218.606C336.818 218.611 336.844 218.613 336.87 218.612H336.893C336.908 218.611 336.922 218.605 336.932 218.595C336.948 218.586 336.96 218.572 336.966 218.556L337.118 218.23H338.526L338.679 218.556C338.685 218.572 338.697 218.586 338.712 218.595C338.723 218.601 338.74 218.606 338.751 218.612H338.768C338.787 218.613 338.806 218.611 338.824 218.606C338.83 218.606 338.841 218.601 338.847 218.601C338.872 218.597 338.896 218.585 338.914 218.567L338.925 218.556C338.926 218.552 338.928 218.548 338.931 218.545C338.931 218.539 338.937 218.539 338.937 218.533V218.522C338.944 218.509 338.948 218.493 338.947 218.477ZM337.258 217.95L337.656 217.086C337.666 217.055 337.683 217.026 337.705 217.002C337.728 216.977 337.755 216.958 337.785 216.945C337.801 216.939 337.818 216.935 337.836 216.934H337.864C337.899 216.945 337.932 216.964 337.959 216.989C337.986 217.014 338.008 217.045 338.021 217.08L338.419 217.944H337.258V217.95Z" fill="#2A2A2D"/>
</g>
<path d="M233.951 284.165H154.769C153.971 284.165 153.325 284.812 153.325 285.611V289.124C153.325 289.922 153.971 290.569 154.769 290.569H233.951V284.165Z" fill="#808A91"/>
<path d="M254.328 288.583V290.011C254.328 290.319 254.079 290.569 253.771 290.569H233.825C233.204 290.569 232.7 290.065 232.7 289.444V285.283C232.7 284.612 233.284 284.089 233.95 284.165L253.832 288.028C254.116 288.06 254.328 288.299 254.328 288.583Z" fill="#C1C9D1"/>
<path d="M95.5682 149.39H243.558C246.552 149.39 249.225 151.27 250.239 154.092L282.604 244.101C283.957 248.743 280.567 252.221 275.116 252.809C274.281 252.9 270.305 251.11 264.063 248.17H131.759C128.765 248.17 126.092 246.289 125.078 243.468L95.8408 162.158C90.8976 159.574 88.0795 158.097 88.0795 158.097C88.0795 158.097 86.2508 149.39 95.5682 149.39Z" fill="#C1C9D1"/>
<path d="M238.923 154.029H90.9336C88.8315 154.029 87.3666 156.117 88.0785 158.098L120.444 248.108C121.458 250.93 124.13 252.81 127.124 252.81H275.114C277.216 252.81 278.681 250.722 277.969 248.741L245.604 158.732C244.59 155.91 241.917 154.029 238.923 154.029Z" fill="#ECECEC"/>
<path d="M205.515 252.81L198.946 228.41L174.048 252.81H205.515Z" fill="#808A91"/>
<path d="M169.483 185.64C170.134 189.664 172.734 191.286 175.847 191.286C178.961 191.286 181.304 188.709 180.758 185.64C180.213 182.571 177.508 179.994 174.394 179.994C171.28 179.994 168.985 182.562 169.483 185.64Z" fill="#C1C9D1"/>
<path d="M239.033 237.832L237.13 232.539H239.522L241.426 237.832H239.033Z" fill="#808A91"/>
<path d="M233.999 237.832L232.096 232.539H234.489L236.391 237.832H233.999Z" fill="#808A91"/>
<path d="M228.957 237.832L227.054 232.539H229.446L231.349 237.832H228.957Z" fill="#808A91"/>
<path d="M223.919 237.832L222.017 232.539H224.409L226.311 237.832H223.919Z" fill="#808A91"/>
<path d="M152.369 237.832L150.466 232.539H152.858L154.761 237.832H152.369Z" fill="#808A91"/>
<path d="M147.335 237.832L145.432 232.539H147.824L149.727 237.832H147.335Z" fill="#808A91"/>
<path d="M142.293 237.832L140.39 232.539H142.782L144.685 237.832H142.293Z" fill="#808A91"/>
<path d="M137.255 237.832L135.353 232.539H137.744L139.647 237.832H137.255Z" fill="#808A91"/>
<path d="M155.543 281.871C157.004 277.665 174.712 220.439 174.712 220.439H197.445L198.947 228.409C198.947 228.409 183.705 277.665 182.245 281.871C182.134 282.191 182.027 282.513 181.928 282.835H181.929C180.593 286.947 184.118 286.93 188.086 286.93C192.056 286.93 228.177 286.93 228.177 286.93V290.57H188.086H161.385C153.352 290.569 154.083 286.076 155.543 281.871Z" fill="#9EA7AF"/>
<path d="M197.443 220.439C197.443 220.439 179.733 277.665 178.273 281.871C176.812 286.076 176.082 290.569 184.116 290.569H157.414C149.381 290.569 150.112 286.076 151.572 281.871C153.032 277.665 170.741 220.439 170.741 220.439H197.443Z" fill="#C1C9D1"/>
<path d="M191.877 220.439C190.116 220.359 188.354 220.318 186.593 220.26C184.832 220.199 183.07 220.186 181.31 220.147C179.549 220.12 177.787 220.068 176.026 220.068L170.742 220.035L170.447 220.033L170.355 220.319C169.619 222.624 168.893 224.932 168.201 227.251L166.093 234.197C164.738 238.843 163.38 243.487 162.141 248.17C163.768 243.608 165.276 239.01 166.787 234.412L168.981 227.493C169.722 225.19 170.429 222.876 171.126 220.559L170.74 220.844L176.024 220.811C177.786 220.81 179.547 220.759 181.308 220.731C183.07 220.692 184.831 220.679 186.591 220.619C188.354 220.562 190.116 220.521 191.877 220.439Z" fill="#F9F9F9"/>
<path d="M37.0141 304.619H428.978C432.852 304.619 435.992 301.474 435.992 297.595C435.992 293.715 432.852 290.57 428.978 290.57H37.0141C33.14 290.57 30 293.716 30 297.595C30 301.473 33.1408 304.619 37.0141 304.619Z" fill="url(#paint10_linear_1_1270)"/>
<path d="M37.0143 305H428.986C432.86 305 436 301.866 436 298H30C30 301.865 33.1409 305 37.0143 305Z" fill="url(#paint11_linear_1_1270)"/>
<defs>
<linearGradient id="paint0_linear_1_1270" x1="32.5" y1="0" x2="32.5" y2="227" gradientUnits="userSpaceOnUse">
<stop stop-color="#4D5F66" stop-opacity="0.2"/>
<stop offset="1" stop-color="#4D5F66" stop-opacity="0"/>
</linearGradient>
<linearGradient id="paint1_linear_1_1270" x1="113.5" y1="0.435115" x2="113.5" y2="227" gradientUnits="userSpaceOnUse">
<stop stop-color="#4D5F66" stop-opacity="0.2"/>
<stop offset="1" stop-color="#4D5F66" stop-opacity="0"/>
</linearGradient>
<linearGradient id="paint2_linear_1_1270" x1="400.5" y1="66.3512" x2="400.5" y2="314.156" gradientUnits="userSpaceOnUse">
<stop stop-color="#4D5F66" stop-opacity="0.2"/>
<stop offset="1" stop-color="#4D5F66" stop-opacity="0"/>
</linearGradient>
<linearGradient id="paint3_linear_1_1270" x1="377.5" y1="311.234" x2="358.406" y2="444.986" gradientUnits="userSpaceOnUse">
<stop stop-color="#4D5F66" stop-opacity="0.2"/>
<stop offset="1" stop-color="#4D5F66" stop-opacity="0"/>
</linearGradient>
<linearGradient id="paint4_linear_1_1270" x1="40" y1="426" x2="239.273" y2="341.623" gradientUnits="userSpaceOnUse">
<stop stop-color="white"/>
<stop offset="0.182292" stop-color="#F1F8FF"/>
<stop offset="1" stop-color="#DAECFF"/>
</linearGradient>
<linearGradient id="paint5_linear_1_1270" x1="238" y1="426" x2="437.273" y2="341.623" gradientUnits="userSpaceOnUse">
<stop stop-color="white"/>
<stop offset="0.182292" stop-color="#F1F8FF"/>
<stop offset="1" stop-color="#DAECFF"/>
</linearGradient>
<linearGradient id="paint6_linear_1_1270" x1="135" y1="45.5649" x2="135" y2="84" gradientUnits="userSpaceOnUse">
<stop stop-color="#4D5F66" stop-opacity="0.1"/>
<stop offset="1" stop-color="#4D5F66" stop-opacity="0.25"/>
</linearGradient>
<linearGradient id="paint7_linear_1_1270" x1="135" y1="-0.538168" x2="135" y2="47" gradientUnits="userSpaceOnUse">
<stop stop-color="#4D5F66" stop-opacity="0.1"/>
<stop offset="1" stop-color="#4D5F66" stop-opacity="0.25"/>
</linearGradient>
<linearGradient id="paint8_linear_1_1270" x1="360" y1="80.5649" x2="360" y2="119" gradientUnits="userSpaceOnUse">
<stop stop-color="#4D5F66" stop-opacity="0.1"/>
<stop offset="1" stop-color="#4D5F66" stop-opacity="0.25"/>
</linearGradient>
<linearGradient id="paint9_linear_1_1270" x1="360" y1="-0.938931" x2="360" y2="82" gradientUnits="userSpaceOnUse">
<stop stop-color="#4D5F66" stop-opacity="0.1"/>
<stop offset="1" stop-color="#4D5F66" stop-opacity="0.25"/>
</linearGradient>
<linearGradient id="paint10_linear_1_1270" x1="377.493" y1="291.844" x2="377.313" y2="304.973" gradientUnits="userSpaceOnUse">
<stop stop-color="#4D5F66" stop-opacity="0.2"/>
<stop offset="1" stop-color="#4D5F66" stop-opacity="0"/>
</linearGradient>
<linearGradient id="paint11_linear_1_1270" x1="377.5" y1="298.635" x2="377.455" y2="305.178" gradientUnits="userSpaceOnUse">
<stop stop-color="#4D5F66" stop-opacity="0.2"/>
<stop offset="1" stop-color="#4D5F66" stop-opacity="0.38"/>
</linearGradient>
<clipPath id="clip0_1_1270">
<rect width="96" height="35.3598" fill="white" transform="translate(252 329)"/>
</clipPath>
<clipPath id="clip1_1_1270">
<rect width="30.5219" height="8.55663" fill="white" transform="translate(318.078 210.105)"/>
</clipPath>
</defs>
</svg>
