<svg width="61" height="61" viewBox="0 0 61 61" fill="none" xmlns="http://www.w3.org/2000/svg">
<rect x="0.5" y="0.5" width="60" height="60" rx="30" fill="url(#paint0_linear_0_1335)" stroke="#81B1E2"/>
<path d="M25.4465 26.6875L28.3145 24.5366C28.6305 24.2996 28.851 23.9571 28.9358 23.5714C29.0207 23.1856 28.9644 22.7822 28.777 22.4345L25.2297 15.8462C25.0544 15.5207 24.775 15.2635 24.4361 15.1158C24.0972 14.968 23.7185 14.9384 23.3607 15.0315L17.868 16.463C17.5373 16.5481 17.2277 16.7009 16.959 16.9118C16.6903 17.1226 16.4683 17.3869 16.307 17.688C16.1456 17.989 16.0485 18.3203 16.0217 18.6608C15.995 19.0013 16.0391 19.3436 16.1514 19.6662C17.324 23.0011 20.1161 29.1161 26.2118 35.2118C32.3068 41.3068 38.4218 44.1001 41.7573 45.2721C43.1199 45.751 44.5958 44.9531 44.9606 43.5555L46.3921 38.0628C46.4852 37.705 46.4555 37.3264 46.3078 36.9875C46.16 36.6486 45.9028 36.3691 45.5773 36.1939L38.989 32.6465C38.6413 32.4594 38.2379 32.4031 37.8522 32.488C37.4665 32.5729 37.124 32.7932 36.887 33.1091L34.7348 35.9795C34.6037 36.1553 34.4389 36.3032 34.25 36.4146C34.0611 36.5259 33.8519 36.5984 33.6346 36.6279C33.4173 36.6574 33.1963 36.6432 32.9846 36.5862C32.7728 36.5292 32.5746 36.4306 32.4014 36.296C31.0482 35.2361 29.7608 34.0948 28.5464 32.8784C27.2528 31.5848 26.1203 30.2869 25.13 29.0196C24.9954 28.8466 24.8968 28.6485 24.8398 28.4368C24.7827 28.2252 24.7686 28.0042 24.798 27.787C24.8275 27.5698 24.9001 27.3607 25.0114 27.1719C25.1228 26.9831 25.2707 26.8184 25.4465 26.6875Z" fill="#007BFF"/>
<defs>
<linearGradient id="paint0_linear_0_1335" x1="12" y1="7" x2="60.9177" y2="25.5963" gradientUnits="userSpaceOnUse">
<stop stop-color="#B3DAFF"/>
<stop offset="1" stop-color="#E6F3FF"/>
</linearGradient>
</defs>
</svg>
