<svg width="61" height="61" viewBox="0 0 61 61" fill="none" xmlns="http://www.w3.org/2000/svg">
<rect x="0.5" y="0.5" width="60" height="60" rx="30" fill="url(#paint0_linear_0_1371)" stroke="#81B1E2"/>
<path fill-rule="evenodd" clip-rule="evenodd" d="M30.0224 11C33.488 11 36.4091 13.3315 37.3026 16.5115L23.2636 30.5505C22.7503 29.53 22.4612 28.3773 22.4612 27.1571V18.5612C22.4612 14.3853 25.8465 11 30.0224 11ZM19.4367 27.4755C19.4367 29.3971 19.9592 31.2648 20.9254 32.8887L18.6199 35.1942C17.0885 32.9319 16.2531 30.2468 16.2531 27.4755V25.8837C16.2531 25.0045 16.9658 24.2918 17.8449 24.2918C18.724 24.2918 19.4367 25.0045 19.4367 25.8837V27.4755ZM23.288 39.4857L13.7174 49.0562C13.0958 49.6779 12.0879 49.6779 11.4662 49.0562C10.8446 48.4346 10.8446 47.4267 11.4662 46.805L46.3275 11.9438C46.9491 11.3221 47.957 11.3221 48.5787 11.9438C49.2003 12.5654 49.2003 13.5733 48.5787 14.195L37.5837 25.19V27.1571C37.5837 31.3331 34.1984 34.7184 30.0224 34.7184C29.4161 34.7184 28.8265 34.647 28.2614 34.5122L25.6553 37.1184C27.0145 37.7339 28.5016 38.0612 30.0225 38.0612C32.83 38.0612 35.5225 36.9459 37.5077 34.9607C39.4929 32.9755 40.6082 30.283 40.6082 27.4755V25.8837C40.6082 25.0045 41.3209 24.2918 42.2 24.2918C43.0791 24.2918 43.7918 25.0045 43.7918 25.8837V27.4755C43.7918 31.1274 42.3411 34.6297 39.7589 37.2119C37.5737 39.3971 34.7298 40.7719 31.6939 41.1431V46.293C34.4441 46.6748 36.4694 47.976 36.4694 49.5224C36.4694 49.6846 36.4471 49.844 36.4041 50H23.6408C23.5978 49.844 23.5755 49.6846 23.5755 49.5224C23.5755 47.9463 25.6793 46.6249 28.5102 46.2721V41.1616C26.6675 40.9581 24.8921 40.3851 23.288 39.4857Z" fill="#007BFF"/>
<defs>
<linearGradient id="paint0_linear_0_1371" x1="12" y1="7" x2="60.9177" y2="25.5963" gradientUnits="userSpaceOnUse">
<stop stop-color="#B3DAFF"/>
<stop offset="1" stop-color="#E6F3FF"/>
</linearGradient>
</defs>
</svg>
