<svg width="19" height="28" viewBox="0 0 19 28" fill="none" xmlns="http://www.w3.org/2000/svg">
<circle cx="9.5" cy="14.5" r="9.5" fill="#31393C"/>
<path d="M13.7031 21H4.7207V19.1104L7.94629 15.8496C8.90137 14.8711 9.52539 14.1943 9.81836 13.8193C10.1113 13.4385 10.3223 13.0869 10.4512 12.7646C10.5801 12.4424 10.6445 12.1084 10.6445 11.7627C10.6445 11.2471 10.501 10.8633 10.2139 10.6113C9.93262 10.3594 9.55469 10.2334 9.08008 10.2334C8.58203 10.2334 8.09863 10.3477 7.62988 10.5762C7.16113 10.8047 6.67188 11.1299 6.16211 11.5518L4.68555 9.80273C5.31836 9.26367 5.84277 8.88281 6.25879 8.66016C6.6748 8.4375 7.12891 8.26758 7.62109 8.15039C8.11328 8.02734 8.66406 7.96582 9.27344 7.96582C10.0762 7.96582 10.7852 8.1123 11.4004 8.40527C12.0156 8.69824 12.4932 9.1084 12.833 9.63574C13.1729 10.1631 13.3428 10.7666 13.3428 11.4463C13.3428 12.0381 13.2373 12.5947 13.0264 13.1162C12.8213 13.6318 12.499 14.1621 12.0596 14.707C11.626 15.252 10.8584 16.0283 9.75684 17.0361L8.10449 18.5918V18.7148H13.7031V21Z" fill="white"/>
</svg>
