<svg width="127" height="34" viewBox="0 0 127 34" fill="none" xmlns="http://www.w3.org/2000/svg">
<path d="M44.7109 3.57812C45.6953 3.57812 46.5078 3.69792 47.1484 3.9375C47.7943 4.17708 48.2734 4.54167 48.5859 5.03125C48.9036 5.52083 49.0625 6.14323 49.0625 6.89844C49.0625 7.46094 48.9583 7.9401 48.75 8.33594C48.5417 8.73177 48.2682 9.0599 47.9297 9.32031C47.5911 9.58073 47.2292 9.78906 46.8438 9.94531L50.0859 15H47.9688L45.2109 10.4219H43.375V15H41.5V3.57812H44.7109ZM44.5859 5.14062H43.375V8.875H44.6719C45.5417 8.875 46.1719 8.71354 46.5625 8.39062C46.9583 8.06771 47.1562 7.59115 47.1562 6.96094C47.1562 6.29948 46.9453 5.83073 46.5234 5.55469C46.1068 5.27865 45.4609 5.14062 44.5859 5.14062ZM54.9766 6.1875C55.7474 6.1875 56.4089 6.34635 56.9609 6.66406C57.513 6.98177 57.9375 7.43229 58.2344 8.01562C58.5312 8.59896 58.6797 9.29688 58.6797 10.1094V11.0938H52.9062C52.9271 11.9323 53.151 12.5781 53.5781 13.0312C54.0104 13.4844 54.6146 13.7109 55.3906 13.7109C55.9427 13.7109 56.4375 13.6589 56.875 13.5547C57.3177 13.4453 57.7734 13.2865 58.2422 13.0781V14.5703C57.8099 14.7734 57.3698 14.9219 56.9219 15.0156C56.474 15.1094 55.9375 15.1562 55.3125 15.1562C54.4635 15.1562 53.7161 14.9922 53.0703 14.6641C52.4297 14.3307 51.9271 13.8359 51.5625 13.1797C51.2031 12.5234 51.0234 11.7083 51.0234 10.7344C51.0234 9.76562 51.1875 8.94271 51.5156 8.26562C51.8438 7.58854 52.3047 7.07292 52.8984 6.71875C53.4922 6.36458 54.1849 6.1875 54.9766 6.1875ZM54.9766 7.57031C54.3984 7.57031 53.9297 7.75781 53.5703 8.13281C53.2161 8.50781 53.0078 9.05729 52.9453 9.78125H56.8828C56.8776 9.34896 56.8047 8.96615 56.6641 8.63281C56.5286 8.29948 56.3203 8.03906 56.0391 7.85156C55.763 7.66406 55.4089 7.57031 54.9766 7.57031ZM64.1406 6.1875C65.2344 6.1875 66.0599 6.42969 66.6172 6.91406C67.1797 7.39844 67.4609 8.15365 67.4609 9.17969V15H66.1562L65.8047 13.7734H65.7422C65.4974 14.0859 65.2448 14.3438 64.9844 14.5469C64.724 14.75 64.4219 14.901 64.0781 15C63.7396 15.1042 63.3255 15.1562 62.8359 15.1562C62.3203 15.1562 61.8594 15.0625 61.4531 14.875C61.0469 14.6823 60.7266 14.3906 60.4922 14C60.2578 13.6094 60.1406 13.1146 60.1406 12.5156C60.1406 11.625 60.4714 10.9557 61.1328 10.5078C61.7995 10.0599 62.8047 9.8125 64.1484 9.76562L65.6484 9.71094V9.25781C65.6484 8.65885 65.5078 8.23177 65.2266 7.97656C64.9505 7.72135 64.5599 7.59375 64.0547 7.59375C63.6224 7.59375 63.2031 7.65625 62.7969 7.78125C62.3906 7.90625 61.9948 8.0599 61.6094 8.24219L61.0156 6.94531C61.4375 6.72135 61.9167 6.53906 62.4531 6.39844C62.9948 6.25781 63.5573 6.1875 64.1406 6.1875ZM65.6406 10.8672L64.5234 10.9062C63.6068 10.9375 62.9635 11.0938 62.5938 11.375C62.224 11.6562 62.0391 12.0417 62.0391 12.5312C62.0391 12.9583 62.1667 13.2708 62.4219 13.4688C62.6771 13.6615 63.013 13.7578 63.4297 13.7578C64.0651 13.7578 64.5911 13.5781 65.0078 13.2188C65.4297 12.8542 65.6406 12.3203 65.6406 11.6172V10.8672ZM71.875 15H70.0312V2.84375H71.875V15ZM73.75 11.4844V9.92969H77.7812V11.4844H73.75ZM86.3125 15H79.8438V3.57812H86.3125V5.15625H81.7188V8.25781H86.0234V9.82812H81.7188V13.4141H86.3125V15ZM94.4062 12.5312C94.4062 13.099 94.2682 13.5781 93.9922 13.9688C93.7161 14.3594 93.3125 14.6562 92.7812 14.8594C92.2552 15.0573 91.6094 15.1562 90.8438 15.1562C90.2396 15.1562 89.7188 15.112 89.2812 15.0234C88.849 14.9401 88.4401 14.8099 88.0547 14.6328V13.0469C88.4661 13.2396 88.9271 13.4062 89.4375 13.5469C89.9531 13.6875 90.4401 13.7578 90.8984 13.7578C91.5026 13.7578 91.9375 13.6641 92.2031 13.4766C92.4688 13.2839 92.6016 13.0286 92.6016 12.7109C92.6016 12.5234 92.5469 12.3568 92.4375 12.2109C92.3333 12.0599 92.1354 11.9062 91.8438 11.75C91.5573 11.5885 91.1354 11.3958 90.5781 11.1719C90.0312 10.9531 89.5703 10.7344 89.1953 10.5156C88.8203 10.2969 88.5365 10.0339 88.3438 9.72656C88.151 9.41406 88.0547 9.01562 88.0547 8.53125C88.0547 7.76562 88.3568 7.1849 88.9609 6.78906C89.5703 6.38802 90.375 6.1875 91.375 6.1875C91.9062 6.1875 92.4062 6.24219 92.875 6.35156C93.349 6.45573 93.8125 6.60938 94.2656 6.8125L93.6875 8.19531C93.2969 8.02344 92.9036 7.88281 92.5078 7.77344C92.1172 7.65885 91.7188 7.60156 91.3125 7.60156C90.8385 7.60156 90.4766 7.67448 90.2266 7.82031C89.9818 7.96615 89.8594 8.17448 89.8594 8.44531C89.8594 8.64844 89.9193 8.82031 90.0391 8.96094C90.1589 9.10156 90.3646 9.24219 90.6562 9.38281C90.9531 9.52344 91.3646 9.69792 91.8906 9.90625C92.4062 10.1042 92.8516 10.3125 93.2266 10.5312C93.6068 10.7448 93.8984 11.0078 94.1016 11.3203C94.3047 11.6328 94.4062 12.0365 94.4062 12.5312ZM99.6094 13.6719C99.849 13.6719 100.086 13.651 100.32 13.6094C100.555 13.5625 100.768 13.5078 100.961 13.4453V14.8359C100.758 14.9245 100.495 15 100.172 15.0625C99.849 15.125 99.513 15.1562 99.1641 15.1562C98.6745 15.1562 98.2344 15.0755 97.8438 14.9141C97.4531 14.7474 97.1432 14.4635 96.9141 14.0625C96.6849 13.6615 96.5703 13.1068 96.5703 12.3984V7.75H95.3906V6.92969L96.6562 6.28125L97.2578 4.42969H98.4141V6.35156H100.891V7.75H98.4141V12.375C98.4141 12.8125 98.5234 13.138 98.7422 13.3516C98.9609 13.5651 99.25 13.6719 99.6094 13.6719ZM106.109 6.1875C107.203 6.1875 108.029 6.42969 108.586 6.91406C109.148 7.39844 109.43 8.15365 109.43 9.17969V15H108.125L107.773 13.7734H107.711C107.466 14.0859 107.214 14.3438 106.953 14.5469C106.693 14.75 106.391 14.901 106.047 15C105.708 15.1042 105.294 15.1562 104.805 15.1562C104.289 15.1562 103.828 15.0625 103.422 14.875C103.016 14.6823 102.695 14.3906 102.461 14C102.227 13.6094 102.109 13.1146 102.109 12.5156C102.109 11.625 102.44 10.9557 103.102 10.5078C103.768 10.0599 104.773 9.8125 106.117 9.76562L107.617 9.71094V9.25781C107.617 8.65885 107.477 8.23177 107.195 7.97656C106.919 7.72135 106.529 7.59375 106.023 7.59375C105.591 7.59375 105.172 7.65625 104.766 7.78125C104.359 7.90625 103.964 8.0599 103.578 8.24219L102.984 6.94531C103.406 6.72135 103.885 6.53906 104.422 6.39844C104.964 6.25781 105.526 6.1875 106.109 6.1875ZM107.609 10.8672L106.492 10.9062C105.576 10.9375 104.932 11.0938 104.562 11.375C104.193 11.6562 104.008 12.0417 104.008 12.5312C104.008 12.9583 104.135 13.2708 104.391 13.4688C104.646 13.6615 104.982 13.7578 105.398 13.7578C106.034 13.7578 106.56 13.5781 106.977 13.2188C107.398 12.8542 107.609 12.3203 107.609 11.6172V10.8672ZM115.219 13.6719C115.458 13.6719 115.695 13.651 115.93 13.6094C116.164 13.5625 116.378 13.5078 116.57 13.4453V14.8359C116.367 14.9245 116.104 15 115.781 15.0625C115.458 15.125 115.122 15.1562 114.773 15.1562C114.284 15.1562 113.844 15.0755 113.453 14.9141C113.062 14.7474 112.753 14.4635 112.523 14.0625C112.294 13.6615 112.18 13.1068 112.18 12.3984V7.75H111V6.92969L112.266 6.28125L112.867 4.42969H114.023V6.35156H116.5V7.75H114.023V12.375C114.023 12.8125 114.133 13.138 114.352 13.3516C114.57 13.5651 114.859 13.6719 115.219 13.6719ZM121.773 6.1875C122.544 6.1875 123.206 6.34635 123.758 6.66406C124.31 6.98177 124.734 7.43229 125.031 8.01562C125.328 8.59896 125.477 9.29688 125.477 10.1094V11.0938H119.703C119.724 11.9323 119.948 12.5781 120.375 13.0312C120.807 13.4844 121.411 13.7109 122.188 13.7109C122.74 13.7109 123.234 13.6589 123.672 13.5547C124.115 13.4453 124.57 13.2865 125.039 13.0781V14.5703C124.607 14.7734 124.167 14.9219 123.719 15.0156C123.271 15.1094 122.734 15.1562 122.109 15.1562C121.26 15.1562 120.513 14.9922 119.867 14.6641C119.227 14.3307 118.724 13.8359 118.359 13.1797C118 12.5234 117.82 11.7083 117.82 10.7344C117.82 9.76562 117.984 8.94271 118.312 8.26562C118.641 7.58854 119.102 7.07292 119.695 6.71875C120.289 6.36458 120.982 6.1875 121.773 6.1875ZM121.773 7.57031C121.195 7.57031 120.727 7.75781 120.367 8.13281C120.013 8.50781 119.805 9.05729 119.742 9.78125H123.68C123.674 9.34896 123.602 8.96615 123.461 8.63281C123.326 8.29948 123.117 8.03906 122.836 7.85156C122.56 7.66406 122.206 7.57031 121.773 7.57031ZM46.3203 22.9453C45.9557 22.9453 45.6302 23.0234 45.3438 23.1797C45.0573 23.3307 44.8125 23.5521 44.6094 23.8438C44.4062 24.1354 44.25 24.4922 44.1406 24.9141C44.0365 25.3307 43.9844 25.8047 43.9844 26.3359C43.9844 27.0547 44.0755 27.6589 44.2578 28.1484C44.4401 28.638 44.7161 29.0078 45.0859 29.2578C45.4609 29.5078 45.9297 29.6328 46.4922 29.6328C47.0026 29.6328 47.4922 29.5625 47.9609 29.4219C48.4349 29.2812 48.9115 29.112 49.3906 28.9141V31.5234C48.8854 31.7474 48.3672 31.9089 47.8359 32.0078C47.3099 32.1068 46.75 32.1562 46.1562 32.1562C44.9167 32.1562 43.901 31.9115 43.1094 31.4219C42.3229 30.9271 41.7422 30.2422 41.3672 29.3672C40.9974 28.4922 40.8125 27.4766 40.8125 26.3203C40.8125 25.4557 40.9323 24.6641 41.1719 23.9453C41.4167 23.2266 41.7734 22.6042 42.2422 22.0781C42.7109 21.5469 43.2891 21.138 43.9766 20.8516C44.6693 20.5599 45.4609 20.4141 46.3516 20.4141C46.9036 20.4141 47.4844 20.4792 48.0938 20.6094C48.7083 20.7344 49.3073 20.9375 49.8906 21.2188L48.9453 23.6484C48.5286 23.4505 48.1068 23.2839 47.6797 23.1484C47.2526 23.013 46.7995 22.9453 46.3203 22.9453ZM55.3672 20.5781C56.4036 20.5781 57.2656 20.7057 57.9531 20.9609C58.6406 21.2109 59.1562 21.5859 59.5 22.0859C59.849 22.5859 60.0234 23.2083 60.0234 23.9531C60.0234 24.4167 59.9453 24.8385 59.7891 25.2188C59.6328 25.599 59.4089 25.9401 59.1172 26.2422C58.8307 26.5391 58.487 26.7995 58.0859 27.0234L61.4141 32H57.9141L55.4922 27.8438H54.7109V32H51.625V20.5781H55.3672ZM55.3203 22.9141H54.7109V25.5234H55.2891C55.763 25.5234 56.151 25.4193 56.4531 25.2109C56.7552 25.0026 56.9062 24.6302 56.9062 24.0938C56.9062 23.724 56.7812 23.4349 56.5312 23.2266C56.2812 23.0182 55.8776 22.9141 55.3203 22.9141ZM67.4297 32L65.0938 23.7734H65.0234C65.0443 23.987 65.0651 24.276 65.0859 24.6406C65.112 25.0052 65.1354 25.3984 65.1562 25.8203C65.1771 26.2422 65.1875 26.6484 65.1875 27.0391V32H62.4531V20.5781H66.5625L68.9453 28.6875H69.0078L71.3438 20.5781H75.4609V32H72.625V26.9922C72.625 26.6328 72.6302 26.2474 72.6406 25.8359C72.6562 25.4193 72.6719 25.0286 72.6875 24.6641C72.7083 24.2943 72.7266 24.0026 72.7422 23.7891H72.6719L70.3672 32H67.4297Z" fill="#3E96F4"/>
<rect y="2" width="32" height="32" rx="5" fill="#3E96F4"/>
<g clip-path="url(#clip0_1_283)">
<path d="M28.0311 26.317C28.4684 26.2214 28.8597 25.9789 29.1401 25.63C29.4204 25.2811 29.5729 24.8467 29.5721 24.3991C29.5712 23.9272 29.3985 23.4717 29.0864 23.1178C29.1475 22.9486 29.1787 22.77 29.1785 22.5901C29.1785 22.1737 29.0131 21.7742 28.7186 21.4798C28.4241 21.1853 28.0247 21.0198 27.6082 21.0198C27.1917 21.0198 26.7923 21.1853 26.4978 21.4798C26.2033 21.7742 26.0379 22.1737 26.0379 22.5901C26.0377 22.77 26.0689 22.9486 26.13 23.1178C25.8172 23.4713 25.6444 23.927 25.6442 24.3991C25.6435 24.8467 25.7959 25.2811 26.0763 25.63C26.3566 25.9789 26.748 26.2214 27.1852 26.317V28.1344H25.3846V10.7814L14.9242 6.50175V10.438L5.25112 6.50175V28.126H3.618V28.9635H29.1617V28.126H28.0311V26.317ZM26.4901 24.3991C26.495 24.2375 26.5349 24.0789 26.6072 23.9342C26.6795 23.7896 26.7825 23.6625 26.9089 23.5616L27.202 23.3271L27.001 23.0089C26.9312 22.8987 26.8923 22.7718 26.8883 22.6414C26.8843 22.511 26.9153 22.382 26.9782 22.2677C27.0411 22.1535 27.1335 22.0582 27.2458 21.9918C27.3581 21.9254 27.4861 21.8904 27.6166 21.8904C27.747 21.8904 27.875 21.9254 27.9873 21.9918C28.0996 22.0582 28.192 22.1535 28.2549 22.2677C28.3178 22.382 28.3488 22.511 28.3448 22.6414C28.3408 22.7718 28.3019 22.8987 28.2321 23.0089L28.0311 23.3271L28.3159 23.5616C28.4648 23.6816 28.5805 23.8376 28.6522 24.0148C28.7239 24.1921 28.7491 24.3847 28.7254 24.5744C28.7017 24.7641 28.63 24.9446 28.517 25.0989C28.404 25.2531 28.2535 25.3759 28.0797 25.4556C27.9059 25.5353 27.7147 25.5693 27.5241 25.5543C27.3335 25.5394 27.1498 25.476 26.9906 25.3702C26.8314 25.2644 26.7018 25.1196 26.6142 24.9497C26.5266 24.7797 26.4839 24.5902 26.4901 24.3991ZM15.7617 7.74963L24.5722 11.3425V26.5013H15.7617V7.74963ZM14.9242 12.6071H13.5842V13.4446H14.9242V15.5216H13.5842V16.3591H14.9242V18.4361H13.5842V19.2736H14.9242V21.7024H13.5842V22.5399H14.9242V24.843H10.9461V24.2149H12.194V23.3774H10.9461V21.158H12.194V20.3205H10.9461V18.1011H12.194V17.2636H10.9461V15.0526H12.194V14.2151H10.9461V12.0125H12.194V11.175H10.9461V9.7345L14.9242 11.3509V12.6071ZM9.22925 25.6721V28.126H8.29962V25.6805L9.22925 25.6721ZM10.0667 25.6721H10.9461V28.126H10.0416L10.0667 25.6721ZM11.8087 25.6721H12.7132V28.126H11.7836L11.8087 25.6721ZM10.1337 9.38276V24.843H6.08862V7.74963L10.1337 9.38276ZM6.08862 25.6805H7.46212V28.1344H6.08862V25.6805ZM13.5256 28.1344V25.6805H14.9242V28.1344H13.5256ZM15.7366 28.1344V27.3471H24.5471V28.1344H15.7366Z" fill="white"/>
<path d="M6.94287 13.6038H8.43362V14.4413H6.94287V13.6038ZM6.94287 15.5216H8.43362V16.3591H6.94287V15.5216ZM6.94287 17.4395H8.43362V18.277H6.94287V17.4395ZM6.94287 19.3574H8.43362V20.1949H6.94287V19.3574ZM6.94287 21.2753H8.43362V22.1128H6.94287V21.2753ZM21.5237 13.6038H23.0145V14.4413H21.5237V13.6038ZM21.5237 15.5216H23.0145V16.3591H21.5237V15.5216ZM21.5237 17.4395H23.0145V18.277H21.5237V17.4395ZM21.5237 19.3574H23.0145V20.1949H21.5237V19.3574ZM21.5237 21.2753H23.0145V22.1128H21.5237V21.2753ZM21.5237 23.1931H23.0145V24.0306H21.5237V23.1931ZM17.2692 13.6038H18.76V14.4413H17.2692V13.6038ZM17.2692 15.5216H18.76V16.3591H17.2692V15.5216ZM17.2692 17.4395H18.76V18.277H17.2692V17.4395ZM17.2692 19.3574H18.76V20.1949H17.2692V19.3574ZM17.2692 21.2753H18.76V22.1128H17.2692V21.2753ZM17.2692 23.1931H18.76V24.0306H17.2692V23.1931ZM6.94287 23.1931H8.43362V24.0306H6.94287V23.1931Z" fill="white"/>
</g>
<defs>
<clipPath id="clip0_1_283">
<rect width="26.8" height="26.8" fill="white" transform="translate(3.19925 2.8)"/>
</clipPath>
</defs>
</svg>
