<svg width="19" height="29" viewBox="0 0 19 29" fill="none" xmlns="http://www.w3.org/2000/svg">
<circle cx="9.5" cy="14.6772" r="9.5" fill="#31393C"/>
<path d="M13.2021 11.2017C13.2021 12.0044 12.959 12.687 12.4727 13.2495C11.9863 13.812 11.3037 14.1987 10.4248 14.4097V14.4624C11.4619 14.5913 12.2471 14.9077 12.7803 15.4116C13.3135 15.9097 13.5801 16.5835 13.5801 17.4331C13.5801 18.6694 13.1318 19.6333 12.2354 20.3247C11.3389 21.0103 10.0586 21.353 8.39453 21.353C7 21.353 5.76367 21.1216 4.68555 20.6587V18.3472C5.18359 18.5991 5.73145 18.8042 6.3291 18.9624C6.92676 19.1206 7.51855 19.1997 8.10449 19.1997C9.00098 19.1997 9.66309 19.0474 10.0908 18.7427C10.5186 18.438 10.7324 17.9487 10.7324 17.2749C10.7324 16.6714 10.4863 16.2437 9.99414 15.9917C9.50195 15.7397 8.7168 15.6138 7.63867 15.6138H6.66309V13.5308H7.65625C8.65234 13.5308 9.37891 13.4019 9.83594 13.144C10.2988 12.8804 10.5303 12.4321 10.5303 11.7993C10.5303 10.8267 9.9209 10.3403 8.70215 10.3403C8.28027 10.3403 7.84961 10.4106 7.41016 10.5513C6.97656 10.6919 6.49316 10.9351 5.95996 11.2808L4.70312 9.40869C5.875 8.56494 7.27246 8.14307 8.89551 8.14307C10.2256 8.14307 11.2744 8.4126 12.042 8.95166C12.8154 9.49072 13.2021 10.2407 13.2021 11.2017Z" fill="white"/>
</svg>
