<svg width="61" height="61" viewBox="0 0 61 61" fill="none" xmlns="http://www.w3.org/2000/svg">
<rect x="0.5" y="0.5" width="60" height="60" rx="30" fill="url(#paint0_linear_0_1326)" stroke="#81B1E2"/>
<path d="M37.0682 35.3612L36.5612 38.9101C36.5053 39.3011 36.5916 39.6992 36.8043 40.032C37.017 40.3648 37.3422 40.6102 37.7205 40.7235L44.8874 42.8738C45.2415 42.98 45.621 42.9643 45.9651 42.8292C46.3092 42.694 46.598 42.4472 46.7851 42.1284L49.6568 37.2323C49.8305 36.9382 49.9413 36.6112 49.9822 36.2721C50.0231 35.933 49.9932 35.5892 49.8944 35.2622C49.7957 34.9352 49.6301 34.6323 49.4083 34.3726C49.1864 34.1129 48.9131 33.9021 48.6056 33.7534C45.4184 32.2244 39.12 29.8748 30.4995 29.8748C21.8799 29.8748 15.5806 32.2236 12.3934 33.7534C11.0913 34.3782 10.6118 35.9861 11.3422 37.2323L14.2139 42.1284C14.401 42.4472 14.6898 42.694 15.0339 42.8292C15.378 42.9643 15.7575 42.98 16.1116 42.8738L23.2785 40.7235C23.6567 40.61 23.9817 40.3646 24.1945 40.0318C24.4072 39.6991 24.4935 39.3011 24.4378 38.9101L23.93 35.3585C23.8983 35.1416 23.9103 34.9204 23.9651 34.7081C24.02 34.4958 24.1166 34.2966 24.2494 34.1221C24.3822 33.9476 24.5485 33.8014 24.7385 33.692C24.9286 33.5825 25.1385 33.5121 25.3561 33.4848C27.0624 33.2775 28.7797 33.1741 30.4986 33.1755C32.328 33.1755 34.0466 33.2925 35.6429 33.4884C35.8604 33.5155 36.0703 33.5859 36.2603 33.6952C36.4503 33.8046 36.6165 33.9507 36.7492 34.1252C36.882 34.2996 36.9786 34.4988 37.0333 34.711C37.0881 34.9233 37.0999 35.1443 37.0682 35.3612Z" fill="#007BFF"/>
<circle cx="31" cy="18" r="8" fill="#007BFF"/>
<path d="M28 15L34 21" stroke="white" stroke-width="2" stroke-linecap="round"/>
<path d="M34 15L28 21" stroke="white" stroke-width="2" stroke-linecap="round"/>
<defs>
<linearGradient id="paint0_linear_0_1326" x1="12" y1="7" x2="60.9177" y2="25.5963" gradientUnits="userSpaceOnUse">
<stop stop-color="#B3DAFF"/>
<stop offset="1" stop-color="#E6F3FF"/>
</linearGradient>
</defs>
</svg>
