<svg width="61" height="61" viewBox="0 0 61 61" fill="none" xmlns="http://www.w3.org/2000/svg">
<rect x="0.5" y="0.5" width="60" height="60" rx="30" fill="url(#paint0_linear_0_1344)" stroke="#81B1E2"/>
<path d="M32.3572 27.769C31.9942 27.4079 31.7065 26.9784 31.5106 26.5054C31.3147 26.0324 31.2145 25.5252 31.2159 25.0132L31.2159 13.3497L34.7607 13.3497L34.7613 25.0139C34.7619 25.2552 34.8716 25.3648 35.1123 25.3648L46.7771 25.3661L46.7771 28.9109L35.1129 28.9103C34.6009 28.9118 34.0937 28.8117 33.6207 28.6158C33.1476 28.4199 32.7182 28.1321 32.3572 27.769Z" fill="#007BFF"/>
<path d="M31.8733 37.5423L29.0054 39.6933C28.6893 39.9302 28.4689 40.2727 28.384 40.6585C28.2991 41.0442 28.3555 41.4476 28.5428 41.7954L32.0901 48.3836C32.2654 48.7091 32.5449 48.9664 32.8838 49.1141C33.2226 49.2618 33.6013 49.2915 33.9591 49.1984L39.4518 47.7669C39.7826 47.6818 40.0921 47.529 40.3608 47.3181C40.6295 47.1072 40.8515 46.8429 41.0129 46.5419C41.1742 46.2408 41.2713 45.9096 41.2981 45.5691C41.3249 45.2286 41.2807 44.8862 41.1684 44.5637C39.9958 41.2288 37.2037 35.1137 31.1081 29.0181C25.013 22.9231 18.898 20.1297 15.5625 18.9577C14.2 18.4789 12.724 19.2767 12.3592 20.6743L10.9278 26.1671C10.8346 26.5248 10.8643 26.9035 11.012 27.2424C11.1598 27.5813 11.417 27.8607 11.7425 28.036L18.3308 31.5833C18.6785 31.7705 19.0819 31.8267 19.4676 31.7419C19.8533 31.657 20.1958 31.4366 20.4329 31.1208L22.5851 28.2503C22.7161 28.0745 22.8809 27.9266 23.0698 27.8153C23.2587 27.704 23.468 27.6314 23.6853 27.602C23.9025 27.5725 24.1235 27.5867 24.3353 27.6436C24.547 27.7006 24.7453 27.7993 24.9184 27.9338C26.2716 28.9937 27.559 30.1351 28.7735 31.3514C30.067 32.645 31.1996 33.943 32.1898 35.2102C32.3244 35.3833 32.4231 35.5814 32.4801 35.7931C32.5371 36.0047 32.5513 36.2256 32.5218 36.4428C32.4923 36.66 32.4198 36.8692 32.3084 37.058C32.1971 37.2468 32.0491 37.4114 31.8733 37.5423Z" fill="#007BFF"/>
<path d="M49.2832 27.1377L43.0159 33.4051V20.8704L49.2832 27.1377Z" fill="#007BFF"/>
<defs>
<linearGradient id="paint0_linear_0_1344" x1="12" y1="7" x2="60.9177" y2="25.5963" gradientUnits="userSpaceOnUse">
<stop stop-color="#B3DAFF"/>
<stop offset="1" stop-color="#E6F3FF"/>
</linearGradient>
</defs>
</svg>
