<svg width="61" height="61" viewBox="0 0 61 61" fill="none" xmlns="http://www.w3.org/2000/svg">
<rect x="0.5" y="0.5" width="60" height="60" rx="30" fill="url(#paint0_linear_0_1362)" stroke="#81B1E2"/>
<path d="M20.4864 23.9318L24.0353 24.4388C24.4263 24.4947 24.8244 24.4084 25.1572 24.1957C25.49 23.9829 25.7354 23.6578 25.8488 23.2795L27.999 16.1126C28.1053 15.7585 28.0896 15.379 27.9544 15.0349C27.8193 14.6908 27.5725 14.402 27.2536 14.2149L22.3575 11.3432C22.0634 11.1695 21.7365 11.0587 21.3974 11.0178C21.0583 10.9769 20.7144 11.0068 20.3874 11.1056C20.0605 11.2043 19.7576 11.3699 19.4979 11.5917C19.2382 11.8136 19.0273 12.0869 18.8786 12.3944C17.3497 15.5816 15 21.88 15 30.5005C15 39.1201 17.3488 45.4194 18.8786 48.6066C19.5035 49.9087 21.1113 50.3882 22.3575 49.6578L27.2536 46.7861C27.5725 46.599 27.8193 46.3102 27.9544 45.9661C28.0896 45.622 28.1053 45.2425 27.999 44.8884L25.8488 37.7215C25.7352 37.3433 25.4898 37.0183 25.1571 36.8055C24.8243 36.5928 24.4263 36.5065 24.0353 36.5622L20.4838 37.07C20.2668 37.1017 20.0457 37.0897 19.8334 37.0349C19.6211 36.98 19.4219 36.8834 19.2474 36.7506C19.0729 36.6178 18.9266 36.4515 18.8172 36.2615C18.7078 36.0714 18.6374 35.8615 18.6101 35.6439C18.4027 33.9376 18.2994 32.2203 18.3007 30.5014C18.3007 28.672 18.4177 26.9534 18.6136 25.3571C18.6408 25.1396 18.7111 24.9297 18.8205 24.7397C18.9298 24.5497 19.076 24.3835 19.2504 24.2508C19.4248 24.118 19.624 24.0214 19.8363 23.9667C20.0485 23.9119 20.2696 23.9001 20.4864 23.9318Z" fill="#007BFF"/>
<path d="M46.5 29.134C47.1667 29.5189 47.1667 30.4811 46.5 30.866L39 35.1962C38.3333 35.5811 37.5 35.0999 37.5 34.3301L37.5 25.6699C37.5 24.9001 38.3333 24.4189 39 24.8038L46.5 29.134Z" fill="#007BFF"/>
<defs>
<linearGradient id="paint0_linear_0_1362" x1="12" y1="7" x2="60.9177" y2="25.5963" gradientUnits="userSpaceOnUse">
<stop stop-color="#B3DAFF"/>
<stop offset="1" stop-color="#E6F3FF"/>
</linearGradient>
</defs>
</svg>
