<svg width="61" height="61" viewBox="0 0 61 61" fill="none" xmlns="http://www.w3.org/2000/svg">
<rect x="0.5" y="0.5" width="60" height="60" rx="30" fill="url(#paint0_linear_0_1368)" stroke="#81B1E2"/>
<path fill-rule="evenodd" clip-rule="evenodd" d="M29.7694 11C25.5934 11 22.2082 14.3853 22.2082 18.5612V27.1571C22.2082 31.3331 25.5934 34.7184 29.7694 34.7184C33.9453 34.7184 37.3306 31.3331 37.3306 27.1571V18.5612C37.3306 14.3853 33.9453 11 29.7694 11ZM17.5918 24.2918C18.471 24.2918 19.1837 25.0045 19.1837 25.8837V27.4755C19.1837 30.283 20.299 32.9755 22.2842 34.9607C24.2694 36.9459 26.9619 38.0612 29.7694 38.0612C32.5769 38.0612 35.2694 36.9459 37.2546 34.9607C39.2398 32.9755 40.3551 30.283 40.3551 27.4755V25.8837C40.3551 25.0045 41.0678 24.2918 41.9469 24.2918C42.8261 24.2918 43.5388 25.0045 43.5388 25.8837V27.4755C43.5388 31.1274 42.0881 34.6297 39.5058 37.2119C37.3207 39.3971 34.4767 40.7719 31.4408 41.1431V46.293C34.1911 46.6748 36.2163 47.976 36.2163 49.5224C36.2163 49.6846 36.1941 49.844 36.151 50H23.3877C23.3447 49.844 23.3224 49.6846 23.3224 49.5224C23.3224 47.9463 25.4262 46.6249 28.2571 46.2721V41.1616C25.1616 40.8197 22.2563 39.4352 20.033 37.2119C17.4507 34.6297 16 31.1274 16 27.4755V25.8837C16 25.0045 16.7127 24.2918 17.5918 24.2918Z" fill="#007BFF"/>
<defs>
<linearGradient id="paint0_linear_0_1368" x1="12" y1="7" x2="60.9177" y2="25.5963" gradientUnits="userSpaceOnUse">
<stop stop-color="#B3DAFF"/>
<stop offset="1" stop-color="#E6F3FF"/>
</linearGradient>
</defs>
</svg>
